<svg xmlns="http://www.w3.org/2000/svg" width="20" height="20" viewBox="0 0 20 20" fill="none" class="sh-img " alt=""><rect width="20" height="20" rx="10" fill=""></rect><g clip-path="url(#clip0_3840_369)"><path d="M7.06956 7.24381C7.33242 7.02098 7.51054 6.71444 7.57398 6.37573C7.63741 6.03703 7.58229 5.6868 7.41788 5.38395C7.25347 5.0811 6.9898 4.8441 6.6712 4.71278C6.3526 4.58147 5.99851 4.56386 5.66845 4.66291C5.3384 4.76196 5.05251 4.97164 4.85886 5.25668C4.66521 5.54172 4.57561 5.88474 4.60512 6.22807C4.63464 6.57141 4.78146 6.89411 5.02091 7.14192C5.26037 7.38973 5.57784 7.54754 5.91996 7.58881L6.39276 9.16321C5.93048 9.40084 5.53086 9.7443 5.22646 10.1656C4.92207 10.587 4.72151 11.0742 4.64111 11.5878C4.56071 12.1013 4.60276 12.6265 4.76382 13.1207C4.92488 13.6149 5.2004 14.0641 5.56794 14.4316C5.93548 14.7992 6.38465 15.0747 6.87884 15.2358C7.37304 15.3968 7.8983 15.4389 8.41182 15.3585C8.92535 15.2781 9.41262 15.0775 9.83394 14.7731C10.2553 14.4687 10.5987 14.0691 10.8364 13.6068L12.4108 14.079C12.4519 14.4212 12.6096 14.7387 12.8574 14.9783C13.1051 15.2178 13.4278 15.3647 13.7712 15.3943C14.1145 15.4239 14.4576 15.3344 14.7427 15.1408C15.0278 14.9472 15.2376 14.6613 15.3367 14.3313C15.4358 14.0012 15.4182 13.6471 15.2869 13.3284C15.1556 13.0098 14.9186 12.7461 14.6157 12.5816C14.3129 12.4172 13.9626 12.3621 13.6239 12.4255C13.2851 12.489 12.9786 12.6671 12.7558 12.93L11.1808 12.4572C11.268 11.671 11.0686 10.8797 10.6192 10.2288L13.3516 7.49641C13.6724 7.6223 14.0267 7.63388 14.3551 7.52922C14.6834 7.42455 14.9657 7.21002 15.1545 6.9217C15.3432 6.63338 15.427 6.28885 15.3916 5.94605C15.3562 5.60325 15.2038 5.2831 14.9602 5.03941C14.7165 4.79573 14.3963 4.64339 14.0535 4.608C13.7107 4.57262 13.3662 4.65635 13.0779 4.84511C12.7895 5.03388 12.575 5.31616 12.4704 5.6445C12.3657 5.97284 12.3773 6.32721 12.5032 6.64801L9.77076 9.38041C9.1198 8.93103 8.32855 8.73161 7.54236 8.81881L7.06956 7.24381ZM9.99996 12.0996C9.99996 12.3754 9.94564 12.6485 9.84011 12.9032C9.73457 13.158 9.57989 13.3895 9.38488 13.5845C9.18988 13.7795 8.95838 13.9342 8.70359 14.0398C8.44881 14.1453 8.17574 14.1996 7.89996 14.1996C7.62418 14.1996 7.35111 14.1453 7.09632 14.0398C6.84154 13.9342 6.61004 13.7795 6.41504 13.5845C6.22003 13.3895 6.06535 13.158 5.95981 12.9032C5.85428 12.6485 5.79996 12.3754 5.79996 12.0996C5.79996 11.5427 6.02121 11.0085 6.41504 10.6147C6.80886 10.2209 7.343 9.99961 7.89996 9.99961C8.45691 9.99961 8.99106 10.2209 9.38488 10.6147C9.77871 11.0085 9.99996 11.5427 9.99996 12.0996Z" fill="white"></path></g><defs><clipPath id="clip0_3840_369"><rect width="12" height="12" fill="white" transform="translate(4 4)"></rect></clipPath></defs></svg>