<svg xmlns="http://www.w3.org/2000/svg" width="18" height="18" viewBox="0 0 18 18" fill="none" class="sh-img" alt=""><g clip-path="url(#clip0_80_16143)"><path d="M8.99986 17.64C13.7716 17.64 17.6399 13.7717 17.6399 9C17.6399 4.22826 13.7716 0.360001 8.99986 0.360001C4.22812 0.360001 0.359863 4.22826 0.359863 9C0.359863 13.7717 4.22812 17.64 8.99986 17.64Z" fill="#D8E6E9"></path><path d="M15.3721 14.832L15.0481 15.156L14.9761 15.228C12.1681 11.592 12.1681 6.444 14.9761 2.772L15.3721 3.168C12.7801 6.588 12.7801 11.412 15.3721 14.832Z" fill="#071123"></path><path d="M15.6961 3.528C15.6601 3.528 15.6601 3.564 15.6241 3.564C15.3721 3.564 15.1201 3.6 14.9041 3.6H14.8681C14.7961 3.6 14.7241 3.528 14.6881 3.456C14.6161 3.204 14.5441 2.952 14.5081 2.7C14.5081 2.592 14.5441 2.52 14.6521 2.484H14.6881L14.8681 2.664C14.9041 2.844 14.9401 3.06 15.0121 3.24C15.1561 3.24 15.3001 3.204 15.4441 3.204C15.5161 3.312 15.6241 3.42 15.6961 3.528ZM14.4001 4.356C14.3281 4.356 14.2561 4.32 14.2201 4.248C14.1121 3.996 14.0401 3.744 13.9681 3.492C13.9321 3.384 14.0041 3.312 14.0761 3.276C14.1841 3.24 14.2561 3.312 14.2921 3.384C14.3641 3.564 14.4001 3.78 14.4721 3.96C14.6881 3.924 14.8681 3.888 15.0841 3.888C15.1921 3.888 15.2641 3.96 15.3001 4.032C15.3361 4.104 15.2281 4.212 15.1561 4.248L14.4001 4.356Z" fill="#E42F26"></path><path d="M14.0041 5.148C13.9321 5.148 13.8601 5.112 13.8601 5.04C13.7521 4.824 13.6441 4.572 13.5361 4.32C13.5001 4.212 13.5361 4.14 13.6441 4.068C13.7521 4.032 13.8241 4.068 13.8961 4.176C13.9681 4.356 14.0401 4.536 14.1481 4.716C14.3281 4.68 14.5441 4.608 14.7241 4.572C14.8321 4.536 14.9041 4.608 14.9401 4.716C14.9761 4.824 14.9041 4.896 14.7961 4.932C14.5441 4.968 14.3281 5.04 14.0761 5.112C14.0401 5.148 14.0041 5.148 14.0041 5.148ZM13.6801 5.976C13.6081 5.976 13.5721 5.94 13.5361 5.904C13.3921 5.688 13.2841 5.472 13.1401 5.22C13.1041 5.148 13.1401 5.04 13.2121 4.968C13.2841 4.932 13.3921 4.968 13.4641 5.04C13.5721 5.22 13.6441 5.4 13.7521 5.58C13.9321 5.508 14.1481 5.436 14.3281 5.4C14.4361 5.364 14.5081 5.436 14.5441 5.508C14.5801 5.616 14.5081 5.688 14.4361 5.724C14.2201 5.796 13.9681 5.868 13.7521 5.94C13.7161 5.976 13.6801 5.976 13.6801 5.976ZM13.4281 6.84C13.3561 6.84 13.3201 6.804 13.2841 6.768L12.8521 6.12C12.8161 6.048 12.8161 5.94 12.9241 5.868C12.9961 5.832 13.1041 5.832 13.1761 5.94C13.2841 6.12 13.3921 6.264 13.5001 6.444C13.6801 6.372 13.8601 6.264 14.0761 6.192C14.1841 6.156 14.2561 6.192 14.2921 6.3C14.3281 6.408 14.2921 6.48 14.1841 6.516C13.9681 6.588 13.7521 6.696 13.5001 6.804C13.5001 6.804 13.4641 6.84 13.4281 6.84ZM13.2481 7.668C13.2121 7.668 13.1401 7.632 13.1041 7.596C12.9241 7.416 12.7801 7.2 12.6001 7.02C12.5281 6.948 12.5641 6.84 12.6361 6.768C12.7081 6.696 12.8161 6.732 12.8881 6.804C12.9961 6.948 13.1401 7.128 13.2841 7.272C13.4641 7.164 13.6441 7.092 13.8241 6.984C13.8961 6.948 14.0041 6.984 14.0761 7.056C14.1121 7.128 14.0761 7.236 14.0041 7.308C13.7881 7.416 13.5721 7.524 13.3561 7.668H13.2481ZM13.1761 8.532C13.1401 8.532 13.1041 8.532 13.0681 8.496L12.5281 7.956C12.4561 7.884 12.4561 7.776 12.5281 7.704C12.6001 7.632 12.7081 7.632 12.7801 7.704L13.2121 8.136C13.3921 8.028 13.5361 7.92 13.7161 7.812C13.7881 7.776 13.8961 7.776 13.9681 7.884C14.0041 7.956 14.0041 8.064 13.8961 8.136C13.6801 8.244 13.5001 8.388 13.2841 8.532H13.1761ZM13.1401 9.432C13.1041 9.432 13.0681 9.432 13.0321 9.396C12.8161 9.252 12.6361 9.072 12.4561 8.892C12.3841 8.82 12.3841 8.712 12.4561 8.64C12.5281 8.568 12.6361 8.568 12.7081 8.64C12.8521 8.784 12.9961 8.892 13.1761 9.036C13.3201 8.892 13.5001 8.784 13.6441 8.676C13.7161 8.604 13.8241 8.64 13.8961 8.712C13.9681 8.784 13.9321 8.892 13.8601 8.964C13.6801 9.108 13.4641 9.252 13.2841 9.396C13.2481 9.396 13.2121 9.432 13.1401 9.432ZM13.2121 10.296C13.1761 10.296 13.1401 10.296 13.1041 10.26L12.4561 9.828C12.3841 9.756 12.3481 9.648 12.4201 9.576C12.4921 9.504 12.6001 9.468 12.6721 9.54C12.8161 9.648 12.9961 9.792 13.1761 9.9C13.3201 9.756 13.4641 9.612 13.6081 9.504C13.6801 9.432 13.7881 9.432 13.8601 9.504C13.9321 9.576 13.9321 9.684 13.8601 9.756C13.6801 9.9 13.5001 10.08 13.3201 10.26C13.3201 10.26 13.2481 10.296 13.2121 10.296Z" fill="#E42F26"></path><path d="M13.3558 11.16C13.3198 11.16 13.2838 11.16 13.2838 11.124C13.0678 11.016 12.8518 10.872 12.5998 10.728C12.5278 10.692 12.4918 10.548 12.5278 10.476C12.5638 10.404 12.7078 10.368 12.7798 10.404C12.9598 10.512 13.1038 10.62 13.2838 10.692C13.4278 10.548 13.5358 10.368 13.6798 10.224C13.7518 10.152 13.8598 10.152 13.9318 10.224C14.0038 10.296 14.0038 10.404 13.9318 10.476C13.7518 10.656 13.6078 10.836 13.4638 11.016C13.4638 11.124 13.3918 11.16 13.3558 11.16ZM13.5718 11.988H13.4998C13.2478 11.88 13.0318 11.772 12.8158 11.664C12.7438 11.628 12.7078 11.52 12.7438 11.412C12.7798 11.34 12.8878 11.304 12.9958 11.34C13.1758 11.448 13.3558 11.52 13.5358 11.592C13.6438 11.412 13.7878 11.268 13.8958 11.124C13.9678 11.052 14.0758 11.052 14.1478 11.088C14.2198 11.16 14.2558 11.268 14.1838 11.34C14.0398 11.52 13.8958 11.736 13.7518 11.916C13.6798 11.952 13.6078 11.988 13.5718 11.988ZM13.8238 12.816H13.7518C13.4998 12.744 13.2478 12.636 13.0318 12.564C12.9238 12.528 12.8878 12.42 12.9238 12.312C12.9598 12.204 13.0678 12.168 13.1758 12.204C13.3558 12.276 13.5358 12.348 13.7518 12.42C13.8598 12.24 13.9678 12.06 14.0758 11.916C14.1478 11.844 14.2558 11.808 14.3278 11.88C14.3998 11.952 14.4358 12.06 14.3638 12.132C14.2198 12.348 14.1118 12.528 14.0038 12.744C13.9678 12.78 13.8958 12.816 13.8238 12.816ZM14.1838 13.644H14.1478L13.3918 13.428C13.2838 13.392 13.2478 13.284 13.2838 13.212C13.3198 13.104 13.4278 13.068 13.4998 13.104C13.6798 13.176 13.8958 13.212 14.0758 13.284C14.1478 13.104 14.2558 12.924 14.3638 12.744C14.3998 12.672 14.5078 12.636 14.6158 12.672C14.6878 12.708 14.7238 12.816 14.6878 12.924L14.3638 13.572C14.3278 13.572 14.2558 13.644 14.1838 13.644Z" fill="#E42F26"></path><path d="M14.6518 14.4C14.6158 14.4 14.6158 14.4 14.6518 14.4C14.3638 14.364 14.1118 14.328 13.8598 14.256C13.7518 14.22 13.7158 14.148 13.7158 14.04C13.7158 13.932 13.8238 13.896 13.9318 13.896C14.1118 13.932 14.3278 13.968 14.5078 14.004C14.5798 13.824 14.6518 13.608 14.7238 13.428C14.7598 13.32 14.8678 13.284 14.9758 13.32C15.0838 13.356 15.1198 13.464 15.0838 13.572C14.9758 13.788 14.9038 14.04 14.8318 14.256C14.7958 14.364 14.7238 14.4 14.6518 14.4ZM15.5158 14.292C15.4438 14.472 15.4078 14.652 15.3718 14.832C15.2638 14.94 15.1918 15.048 15.0838 15.12C14.8318 15.12 14.6158 15.084 14.3638 15.048C14.2558 15.048 14.1838 14.94 14.2198 14.832C14.2198 14.724 14.3278 14.652 14.4358 14.688C14.6518 14.724 14.8318 14.724 15.0478 14.76C15.0838 14.544 15.1558 14.364 15.1918 14.184C15.2278 14.076 15.3358 14.04 15.4078 14.076C15.4798 14.112 15.5518 14.22 15.5158 14.292Z" fill="#E42F26"></path><path d="M3.02393 15.228C2.87993 15.12 2.77193 14.976 2.62793 14.832C5.25593 11.412 5.25593 6.588 2.62793 3.168L3.02393 2.772C5.83193 6.444 5.83193 11.556 3.02393 15.228Z" fill="#071123"></path><path d="M3.5282 15.3C3.5282 15.408 3.4922 15.48 3.3842 15.516H3.3482C3.2762 15.48 3.2402 15.408 3.1682 15.372C3.1322 15.192 3.0962 14.976 3.0242 14.796C2.8802 14.796 2.7362 14.832 2.5922 14.832C2.4842 14.724 2.4122 14.616 2.3042 14.508C2.3402 14.508 2.3402 14.472 2.3762 14.472C2.6282 14.472 2.8802 14.436 3.0962 14.436C3.1682 14.436 3.2402 14.508 3.2762 14.58C3.3842 14.796 3.4562 15.048 3.5282 15.3ZM3.6362 13.644C3.7082 13.644 3.7802 13.68 3.8162 13.752C3.9242 14.004 3.9962 14.256 4.0682 14.508C4.1042 14.616 4.0322 14.688 3.9602 14.724C3.8522 14.76 3.7802 14.688 3.7442 14.616C3.6722 14.436 3.6362 14.22 3.5642 14.04C3.3482 14.076 3.1682 14.112 2.9522 14.112C2.8442 14.112 2.7722 14.04 2.7362 13.968C2.7002 13.896 2.8082 13.788 2.8802 13.752C3.0962 13.716 3.3482 13.68 3.6362 13.644Z" fill="#E42F26"></path><path d="M4.03184 12.852C4.10384 12.852 4.17584 12.888 4.17584 12.96C4.28384 13.176 4.39184 13.428 4.49984 13.68C4.53584 13.788 4.49984 13.86 4.39184 13.932C4.28384 13.968 4.21184 13.932 4.13984 13.824C4.06784 13.644 3.99584 13.464 3.88784 13.284C3.70784 13.32 3.49184 13.392 3.31184 13.428C3.23984 13.392 3.13184 13.32 3.13184 13.212C3.13184 13.104 3.16784 13.032 3.27584 12.996C3.52784 12.96 3.74384 12.888 3.99584 12.816C3.99584 12.852 3.99584 12.852 4.03184 12.852ZM4.35584 12.024C4.42784 12.024 4.46384 12.06 4.49984 12.096C4.64384 12.312 4.75184 12.528 4.89584 12.78C4.93184 12.852 4.89584 12.96 4.82384 13.032C4.75184 13.068 4.64384 13.032 4.57184 12.96C4.46384 12.78 4.39184 12.6 4.28384 12.42C4.10384 12.492 3.88784 12.564 3.70784 12.6C3.59984 12.636 3.52784 12.564 3.49184 12.492C3.45584 12.384 3.49184 12.276 3.59984 12.24C3.81584 12.168 4.06784 12.096 4.28384 12.024H4.35584ZM4.60784 11.16C4.67984 11.16 4.71584 11.196 4.75184 11.232L5.18384 11.88C5.21984 11.952 5.21984 12.06 5.11184 12.132C5.03984 12.168 4.93184 12.168 4.85984 12.06C4.75184 11.88 4.64384 11.736 4.53584 11.556C4.35584 11.628 4.17584 11.736 3.95984 11.808C3.85184 11.844 3.77984 11.808 3.74384 11.7C3.70784 11.592 3.74384 11.52 3.85184 11.484C4.06784 11.412 4.28384 11.304 4.53584 11.196C4.53584 11.196 4.57184 11.16 4.60784 11.16ZM4.75184 10.332C4.78784 10.332 4.85984 10.368 4.89584 10.404C5.07584 10.584 5.21984 10.8 5.39984 10.98C5.47184 11.052 5.43584 11.16 5.36384 11.232C5.29184 11.304 5.18384 11.268 5.11184 11.196C5.00384 11.052 4.85984 10.872 4.71584 10.728C4.53584 10.836 4.35584 10.908 4.17584 11.016C4.10384 11.052 3.99584 11.016 3.92384 10.944C3.88784 10.872 3.92384 10.764 3.99584 10.692C4.21184 10.584 4.42784 10.476 4.64384 10.332H4.75184ZM4.85984 9.468C4.89584 9.468 4.93184 9.468 4.96784 9.504L5.50784 10.044C5.57984 10.116 5.57984 10.224 5.50784 10.296C5.43584 10.368 5.32784 10.368 5.25584 10.296L4.82384 9.864C4.67984 9.972 4.49984 10.08 4.31984 10.188C4.24784 10.224 4.13984 10.224 4.06784 10.116C4.03184 10.044 4.03184 9.936 4.13984 9.864C4.35584 9.756 4.53584 9.612 4.75184 9.468H4.85984ZM4.85984 8.568C4.89584 8.568 4.93184 8.568 4.96784 8.604C5.18384 8.748 5.36384 8.928 5.54384 9.108C5.61584 9.18 5.61584 9.288 5.54384 9.36C5.47184 9.432 5.36384 9.432 5.29184 9.36C5.14784 9.216 5.00384 9.108 4.82384 8.964C4.67984 9.108 4.49984 9.216 4.35584 9.324C4.28384 9.396 4.17584 9.36 4.10384 9.288C4.03184 9.216 4.06784 9.108 4.13984 9.036C4.31984 8.892 4.53584 8.748 4.71584 8.604C4.78784 8.604 4.82384 8.568 4.85984 8.568ZM4.82384 7.704C4.85984 7.704 4.89584 7.704 4.93184 7.74L5.57984 8.172C5.65184 8.244 5.68784 8.352 5.61584 8.424C5.54384 8.496 5.43584 8.532 5.36384 8.46C5.21984 8.352 5.03984 8.208 4.85984 8.1C4.71584 8.244 4.57184 8.388 4.42784 8.496C4.35584 8.568 4.24784 8.568 4.17584 8.496C4.10384 8.424 4.10384 8.316 4.17584 8.244C4.35584 8.1 4.53584 7.92 4.71584 7.74C4.71584 7.74 4.75184 7.704 4.82384 7.704Z" fill="#E42F26"></path><path d="M4.67985 6.84C4.71585 6.84 4.75185 6.84 4.75185 6.876C4.96785 6.984 5.18385 7.128 5.43585 7.272C5.50785 7.308 5.54385 7.452 5.50785 7.524C5.47185 7.596 5.32785 7.632 5.25585 7.596C5.07585 7.488 4.93185 7.38 4.75185 7.308C4.60785 7.452 4.49985 7.632 4.35585 7.776C4.28385 7.848 4.17585 7.848 4.10385 7.776C4.03185 7.704 4.03185 7.596 4.10385 7.524C4.28385 7.344 4.42785 7.164 4.57185 6.984C4.57185 6.876 4.60785 6.84 4.67985 6.84ZM4.46385 6.012H4.53585C4.78785 6.12 5.00385 6.228 5.21985 6.336C5.29185 6.372 5.32785 6.48 5.29185 6.588C5.25585 6.66 5.14785 6.696 5.03985 6.66C4.85985 6.552 4.67985 6.48 4.49985 6.408C4.39185 6.588 4.24785 6.732 4.13985 6.876C4.06785 6.948 3.95985 6.948 3.88785 6.912C3.81585 6.84 3.77985 6.732 3.85185 6.66C3.99585 6.48 4.13985 6.264 4.28385 6.084C4.35585 6.048 4.39185 6.012 4.46385 6.012ZM4.17585 5.184H4.24785C4.49985 5.256 4.75185 5.364 4.96785 5.436C5.07585 5.472 5.11185 5.58 5.07585 5.688C5.03985 5.796 4.93185 5.832 4.82385 5.796C4.64385 5.724 4.46385 5.652 4.24785 5.58C4.13985 5.76 4.03185 5.94 3.92385 6.084C3.85185 6.156 3.74385 6.192 3.67185 6.12C3.59985 6.048 3.56385 5.94 3.63585 5.868C3.77985 5.652 3.88785 5.472 3.99585 5.256C4.06785 5.22 4.10385 5.184 4.17585 5.184ZM3.81585 4.356H3.85185L4.60785 4.572C4.71585 4.608 4.75185 4.716 4.71585 4.788C4.67985 4.896 4.57185 4.932 4.49985 4.896C4.31985 4.824 4.10385 4.788 3.92385 4.716C3.85185 4.896 3.74385 5.076 3.63585 5.256C3.59985 5.4 3.49185 5.436 3.41985 5.364C3.34785 5.328 3.31185 5.22 3.34785 5.112L3.67185 4.464C3.67185 4.428 3.74385 4.356 3.81585 4.356ZM3.38385 3.6C3.67185 3.636 3.92385 3.672 4.17585 3.744C4.28385 3.78 4.31985 3.852 4.31985 3.96C4.31985 4.068 4.21185 4.104 4.10385 4.104C3.92385 4.068 3.70785 4.032 3.52785 3.996C3.45585 4.176 3.38385 4.392 3.31185 4.572C3.23985 4.644 3.13185 4.68 3.05985 4.644C2.95185 4.608 2.91585 4.5 2.95185 4.392C3.05985 4.176 3.13185 3.924 3.20385 3.708C3.23985 3.636 3.31185 3.6 3.38385 3.6ZM3.81585 3.132C3.81585 3.24 3.70785 3.312 3.59985 3.276C3.41985 3.24 3.20385 3.24 3.02385 3.204C2.95185 3.42 2.91585 3.6 2.84385 3.816C2.80785 3.924 2.69985 3.96 2.62785 3.924C2.51985 3.888 2.48385 3.78 2.51985 3.708C2.59185 3.528 2.62785 3.348 2.66385 3.168C2.77185 3.06 2.84385 2.952 2.95185 2.88C3.20385 2.88 3.41985 2.916 3.67185 2.952C3.74385 2.952 3.81585 3.024 3.81585 3.132Z" fill="#E42F26"></path><path opacity="0.1" d="M17.6399 9C17.6399 13.788 13.7519 17.64 8.99993 17.64C6.26393 17.64 3.77993 16.344 2.23193 14.364C3.70793 15.516 5.54393 16.2 7.55993 16.2C12.3479 16.2 16.1999 12.348 16.1999 7.56C16.1999 5.544 15.5159 3.672 14.3279 2.232C16.3799 3.78 17.6399 6.264 17.6399 9Z" fill="#071123"></path><path opacity="0.25" d="M14.8319 5.796C14.8319 10.692 10.6919 14.688 5.57986 14.688C4.28386 14.688 3.05986 14.436 1.97986 14.004C0.863863 12.492 0.359863 10.764 0.359863 9C0.359863 4.212 4.21186 0.360001 8.99986 0.360001C10.1879 0.360001 11.2679 0.576001 12.3119 1.008C12.8519 1.224 13.3919 1.512 13.8959 1.872C14.4719 3.06 14.8319 4.392 14.8319 5.796Z" fill="white"></path><path opacity="0.25" d="M12.7079 3.708C12.7079 8.604 8.56786 12.6 3.45586 12.6C2.59186 12.6 1.76386 12.492 1.00786 12.276C0.575863 11.268 0.359863 10.152 0.359863 9C0.359863 4.212 4.21186 0.360001 8.99986 0.360001C10.1879 0.360001 11.2679 0.576001 12.3119 1.008C12.5639 1.872 12.7079 2.772 12.7079 3.708Z" fill="white"></path><path opacity="0.25" d="M8.05135 8.18965C9.8368 6.40415 10.3382 4.01077 9.17132 2.84391C8.00441 1.67704 5.61105 2.17855 3.82561 3.96406C2.04016 5.74957 1.53874 8.14294 2.70565 9.3098C3.87255 10.4767 6.26591 9.97516 8.05135 8.18965Z" fill="white"></path></g><defs><clipPath id="clip0_80_16143"><rect width="18" height="18" fill="white"></rect></clipPath></defs></svg>