<svg
  id="Layer_1"
  data-name="Layer 1"
  viewBox="0 0 116 116"
  xmlns="http://www.w3.org/2000/svg"
>

  <path
    class="cls-1"
    d="M112.91,37.8c-2.19-8.31-8.22-15.25-16.22-18.48-8.57-3.44-18.54-2.24-26.03,3.1-7.67,5.45-11.86,14.56-11.45,23.9-1.68-2.41-2.39-5.28-2.62-8.28-1.72,4.85-1.5,9.95.23,14.8-6.99,1.13-14.54,1.45-18.4-5.62-1.17-2.14-1.93-4.38-2.57-6.76-.82-2.97-1.57-5.83-2.65-8.72-2.41-6.56-5.89-12.68-11.54-16.84,2.2.77,4.58.64,6.4-.86,2.07-1.72,2.74-4.53,1.84-7.07-1.78-.17-3.38.03-5.21.52l.79-5.43-4.12,3.5c-.27.23-1.01.35-1.33.24-.32-.09-.7-.63-.76-1.04-.26-2.09,1.5-2.91.95-4.78-2.13,1.72-3.62,3.74-5.03,6.15l-1.68-4.67-2.56,5.45-2-2.42c-.69,1.33-.82,2.48-.82,3.87l-1.42-.78c-1.66,2.15-1.86,4.84-1,7.36-1.59.58-2.82,1.51-3.56,3,2.27-.29,4.38-.14,6.34,1.02-3.55,2.79-6.79,7.23-4.2,11.59.73,1.23,1.82,2.02,3.18,2.37-8.92,14.85-5.31,35.85,8.07,46.52l6.4,5.12c2.25,1.79,4.31,3.65,6.16,5.85,1.66,2,2.98,4.23,3.73,6.59.78,2.48.92,5.13.15,7.84-1.55,5.45-6.34,7.25-11.33,8.35,4.87,1.73,11.54,2.8,18.9,2.8,6.06,0,11.63-.72,16.12-1.93-1.95-.44-3.69-1.32-4.87-3.11-.87-1.34-1.05-2.89-.29-4.33.6-1.17,1.73-2.1,3.29-2.14-1.09-.79-2.46-.67-3.79-.15-.01-2.36.42-4.65,1.25-6.76,1.87-4.85,5.74-8.85,10.73-10.7,2.5-.92,5.72-1.72,6.5-4.4l.9,2.22,3.69-8.04c.51,3.2-.08,6.21-.7,9.5,3.64-3.57,5.15-8.41,4.97-13.35,1.52,2.89,1.83,5.94,1.55,9.19,2.86-3.35,4.15-7.54,3.96-11.95.9-.26,1.65.1,2.22.7,2.57,2.73.01,5.93.87,9.12,3.62-5.47,5.15-11.83,4.6-18.48,1.86,2.23,2.61,4.88,2.78,7.86,2.94-5.45,2.06-12.24-2.25-16.82,3.24-.64,6.34.52,8.72,3.19.6-6.08-3.1-11.92-8.69-14.31,5.62-.45,10.65,2.52,13.43,7.46-.38-7.41-5.99-13.55-13.29-15.01l4.94-1.93c.46-.27.9-.76.88-1.22,0-.35-.38-.97-.79-1.18-5.34-2.62-11.34-2.71-17.03-.69,2.16-1.63,4.69-2.5,7.4-2.86,6.06-.79,11.91,1.38,16.2,5.71,4.39,4.42,6.77,10.27,7.17,16.53.32,4.98-.59,9.64-2.18,14.4.6-.51,1-1.02,1.42-1.7,4.24-6.82,5.75-15.15,3.67-23.02ZM46.43,99.57c-.04,3.65-.35,7.29-1.06,10.88-.67,3.3-4.03,2.24-7.72,2.88-1.22.22-2.09.19-3.11-.59-.42-.33-1.33-.38-1.64-1.18-.41-1.09-.22-3.32.83-4.01,1.63-1.08,3.73-.59,5.67-.91-.35-.44-1.04-1.09-1.65-1.2l-2.91-.58c1.14-1.43,1.91-3.33,3.24-4.49,2.21-1.93,1.96-.92,2.93-3.76.14-.42.32-.93.54-1.55l1.77,1.64,3.11,2.87Z"
  />
</svg>