<svg xmlns="http://www.w3.org/2000/svg" width="18" height="18" viewBox="0 0 18 18" fill="none" class="sh-img" alt=""><g clip-path="url(#clip0_80_15983)"><path d="M8.99986 17.64C13.7716 17.64 17.6399 13.7717 17.6399 9C17.6399 4.22826 13.7716 0.360001 8.99986 0.360001C4.22812 0.360001 0.359863 4.22826 0.359863 9C0.359863 13.7717 4.22812 17.64 8.99986 17.64Z" fill="#E42F26"></path><path d="M14.904 2.70001C9.32403 4.89601 4.89603 9.28801 2.62803 14.832C2.55603 14.724 2.44803 14.652 2.37603 14.544C2.23203 14.364 2.08803 14.184 1.94403 13.968L1.72803 13.644C4.10403 8.31601 8.38803 4.10401 13.716 1.76401C13.824 1.83601 13.932 1.90801 14.04 2.01601C14.22 2.16001 14.436 2.30401 14.616 2.44801C14.724 2.52001 14.796 2.59201 14.904 2.70001Z" fill="#BF2026"></path><path d="M14.6158 2.44801C9.07185 4.68001 4.67985 9.03601 2.37585 14.544C2.23185 14.364 2.08785 14.184 1.94385 13.968C4.28385 8.60401 8.63985 4.28401 14.0398 2.01601C14.2558 2.12401 14.4358 2.26801 14.6158 2.44801Z" fill="#921A1C"></path><path d="M3.4 15.1195C3.44651 15.0096 3.39517 14.8829 3.28532 14.8364C3.17547 14.7899 3.04871 14.8412 3.00219 14.951C2.95568 15.0609 3.00702 15.1877 3.11687 15.2342C3.22672 15.2807 3.35348 15.2293 3.4 15.1195Z" fill="#921A1C"></path><path d="M3.31179 15.12C3.27579 15.156 3.27579 15.192 3.23979 15.264C3.20379 15.336 3.20379 15.372 3.16779 15.444C3.09579 15.372 3.02379 15.336 2.98779 15.264C2.98779 15.228 2.98779 15.228 3.02379 15.192C3.05979 15.156 3.05979 15.084 3.09579 15.048C3.13179 14.976 3.20379 14.94 3.27579 14.976C3.31179 14.976 3.34779 15.048 3.31179 15.12Z" fill="#D8E6E9"></path><path d="M3.81005 14.2532C3.86137 14.1455 3.81568 14.0166 3.70799 13.9653C3.6003 13.914 3.4714 13.9597 3.42007 14.0674C3.36875 14.1751 3.41445 14.304 3.52214 14.3553C3.62983 14.4066 3.75873 14.3609 3.81005 14.2532Z" fill="#921A1C"></path><path d="M4.40152 13.0758C4.45925 12.9714 4.42141 12.84 4.31701 12.7823C4.21262 12.7245 4.08119 12.7624 4.02347 12.8668C3.96574 12.9712 4.00358 13.1026 4.10797 13.1603C4.21237 13.218 4.34379 13.1802 4.40152 13.0758Z" fill="#921A1C"></path><path d="M4.2841 12.888C4.2121 12.852 4.1401 12.888 4.1041 12.96C3.8881 13.32 3.7081 13.68 3.5281 14.076C3.4921 14.148 3.5281 14.22 3.5641 14.256C3.6361 14.292 3.7081 14.256 3.7441 14.184C3.9241 13.824 4.1041 13.464 4.3201 13.104C4.3561 12.996 4.3201 12.924 4.2841 12.888Z" fill="#D8E6E9"></path><path d="M4.89188 12.2364C4.95412 12.1346 4.92207 12.0017 4.82029 11.9394C4.71852 11.8772 4.58557 11.9093 4.52333 12.011C4.4611 12.1128 4.49315 12.2458 4.59492 12.308C4.69669 12.3702 4.82965 12.3382 4.89188 12.2364Z" fill="#921A1C"></path><path d="M5.62243 11.1587C5.69067 11.0609 5.66666 10.9262 5.5688 10.858C5.47095 10.7897 5.33631 10.8138 5.26808 10.9116C5.19984 11.0095 5.22386 11.1441 5.32171 11.2123C5.41956 11.2806 5.5542 11.2566 5.62243 11.1587Z" fill="#921A1C"></path><path d="M5.47212 10.944C5.40012 10.908 5.32812 10.908 5.29212 10.98C5.04012 11.304 4.82412 11.664 4.60812 12.024C4.57212 12.096 4.57212 12.168 4.64412 12.204C4.71612 12.24 4.78812 12.204 4.82412 12.168C5.04012 11.808 5.25612 11.484 5.50812 11.16C5.54412 11.088 5.54412 11.016 5.47212 10.944Z" fill="#D8E6E9"></path><path d="M6.14971 10.4023C6.22213 10.3075 6.20399 10.1719 6.1092 10.0995C6.01441 10.0271 5.87885 10.0452 5.80643 10.14C5.734 10.2348 5.75214 10.3704 5.84693 10.4428C5.94173 10.5152 6.07728 10.4971 6.14971 10.4023Z" fill="#921A1C"></path><path d="M6.97451 9.39847C7.05246 9.30817 7.04244 9.17177 6.95213 9.09383C6.86182 9.01588 6.72543 9.0259 6.64748 9.11621C6.56954 9.20652 6.57956 9.34291 6.66986 9.42086C6.76017 9.4988 6.89657 9.48878 6.97451 9.39847Z" fill="#921A1C"></path><path d="M6.87595 9.18C6.83995 9.144 6.73195 9.144 6.69595 9.216C6.44395 9.54 6.15595 9.828 5.90395 10.188C5.86795 10.26 5.86795 10.332 5.90395 10.368C5.97595 10.404 6.04795 10.404 6.08395 10.332C6.33595 10.008 6.58795 9.684 6.83995 9.396C6.91195 9.288 6.91195 9.216 6.87595 9.18Z" fill="#D8E6E9"></path><path d="M7.60416 8.68237C7.68596 8.59554 7.68188 8.45883 7.59505 8.37703C7.50822 8.29523 7.37151 8.29931 7.28971 8.38614C7.20791 8.47297 7.21199 8.60968 7.29882 8.69148C7.38566 8.77328 7.52236 8.7692 7.60416 8.68237Z" fill="#921A1C"></path><path d="M8.54526 7.77606C8.63208 7.69425 8.63615 7.55755 8.55434 7.47073C8.47253 7.38391 8.33582 7.37985 8.249 7.46166C8.16218 7.54347 8.15812 7.68017 8.23993 7.76699C8.32174 7.85381 8.45844 7.85787 8.54526 7.77606Z" fill="#921A1C"></path><path d="M8.46016 7.56C8.42416 7.524 8.31616 7.524 8.28016 7.56L7.41616 8.424C7.38016 8.496 7.38016 8.568 7.41616 8.604C7.45216 8.64 7.56016 8.64 7.59616 8.604L8.46016 7.74C8.49616 7.668 8.49616 7.596 8.46016 7.56Z" fill="#D8E6E9"></path><path d="M9.22169 7.15324C9.31199 7.07528 9.32198 6.93888 9.24402 6.84859C9.16606 6.7583 9.02966 6.7483 8.93937 6.82626C8.84908 6.90422 8.83908 7.04062 8.91704 7.13091C8.995 7.22121 9.1314 7.2312 9.22169 7.15324Z" fill="#921A1C"></path><path d="M10.2479 6.31762C10.3427 6.24518 10.3608 6.10963 10.2884 6.01484C10.2159 5.92006 10.0804 5.90195 9.98558 5.97438C9.8908 6.04682 9.87269 6.18238 9.94513 6.27716C10.0176 6.37195 10.1531 6.39006 10.2479 6.31762Z" fill="#921A1C"></path><path d="M10.1882 6.084C10.1522 6.012 10.0802 6.012 10.0082 6.084C9.68421 6.336 9.36021 6.588 9.03621 6.876C8.96421 6.912 8.96421 7.02 9.00021 7.056C9.03621 7.092 9.14421 7.128 9.18021 7.056C9.50421 6.804 9.79221 6.552 10.1162 6.3C10.1882 6.228 10.2242 6.156 10.1882 6.084Z" fill="#D8E6E9"></path><path d="M10.9922 5.75916C11.09 5.69092 11.114 5.55628 11.0458 5.45843C10.9775 5.36059 10.8429 5.33658 10.745 5.40482C10.6472 5.47306 10.6232 5.6077 10.6914 5.70555C10.7597 5.8034 10.8943 5.8274 10.9922 5.75916Z" fill="#921A1C"></path><path d="M12.0948 5.0372C12.1966 4.97493 12.2286 4.84196 12.1663 4.74021C12.104 4.63846 11.971 4.60646 11.8693 4.66874C11.7675 4.73101 11.7355 4.86398 11.7978 4.96573C11.8601 5.06748 11.9931 5.09948 12.0948 5.0372Z" fill="#921A1C"></path><path d="M12.06 4.82401C12.024 4.75201 11.952 4.75201 11.88 4.78801C11.52 5.00401 11.196 5.22001 10.836 5.47201C10.764 5.50801 10.764 5.58001 10.8 5.65201C10.836 5.72401 10.908 5.72401 10.98 5.68801C11.304 5.47201 11.664 5.22001 11.988 5.00401C12.06 4.96801 12.096 4.86001 12.06 4.82401Z" fill="#D8E6E9"></path><path d="M12.922 4.57371C13.0264 4.51597 13.0642 4.38453 13.0065 4.28015C12.9488 4.17576 12.8173 4.13795 12.7129 4.19569C12.6085 4.25344 12.5707 4.38487 12.6285 4.48926C12.6862 4.59364 12.8177 4.63146 12.922 4.57371Z" fill="#921A1C"></path><path d="M14.0625 3.97963C14.1702 3.92828 14.2159 3.79937 14.1645 3.69169C14.1132 3.58401 13.9843 3.53835 13.8766 3.58969C13.7689 3.64104 13.7233 3.76995 13.7746 3.87763C13.826 3.98531 13.9549 4.03098 14.0625 3.97963Z" fill="#921A1C"></path><path d="M14.076 3.744C14.04 3.672 13.968 3.672 13.896 3.708C13.536 3.888 13.14 4.068 12.78 4.284C12.708 4.32 12.672 4.392 12.708 4.464C12.744 4.536 12.816 4.536 12.888 4.5C13.248 4.32 13.608 4.104 13.968 3.924C14.076 3.888 14.076 3.816 14.076 3.744Z" fill="#D8E6E9"></path><path d="M14.9529 3.5807C15.0627 3.53416 15.114 3.40739 15.0675 3.29755C15.0209 3.18771 14.8942 3.13639 14.7843 3.18292C14.6745 3.22946 14.6232 3.35623 14.6697 3.46607C14.7162 3.57591 14.843 3.62723 14.9529 3.5807Z" fill="#921A1C"></path><path d="M15.2641 3.06C15.3361 3.132 15.3721 3.204 15.4441 3.24C15.3001 3.276 15.1921 3.348 15.0481 3.384C15.0121 3.384 14.9761 3.42 14.9041 3.42C14.8321 3.456 14.7601 3.42 14.7241 3.348C14.6881 3.276 14.7241 3.204 14.7961 3.168L14.9401 3.132C15.0841 3.168 15.1921 3.096 15.2641 3.06Z" fill="#D8E6E9"></path><path d="M4.41818 15.4416C4.4651 15.3319 4.41424 15.205 4.30456 15.158C4.19489 15.1111 4.06793 15.162 4.02101 15.2717C3.97408 15.3813 4.02495 15.5083 4.13462 15.5552C4.2443 15.6021 4.37125 15.5513 4.41818 15.4416Z" fill="#921A1C"></path><path d="M4.28392 15.444C4.24792 15.48 4.24792 15.516 4.24792 15.552C4.17592 15.732 4.10392 15.876 4.03192 16.056C3.95992 16.02 3.88792 15.948 3.81592 15.912C3.88792 15.768 3.92392 15.588 3.99592 15.444C3.99592 15.408 4.03192 15.372 4.03192 15.336C4.06792 15.264 4.13992 15.228 4.21192 15.264C4.28392 15.3 4.31992 15.372 4.28392 15.444Z" fill="#D8E6E9"></path><path d="M4.7329 14.6931C4.78422 14.5854 4.73853 14.4565 4.63084 14.4052C4.52315 14.3539 4.39425 14.3996 4.34293 14.5073C4.2916 14.615 4.3373 14.7439 4.44499 14.7952C4.55268 14.8465 4.68158 14.8008 4.7329 14.6931Z" fill="#921A1C"></path><path d="M5.30777 13.5846C5.36551 13.4802 5.32768 13.3488 5.22329 13.2911C5.1189 13.2333 4.98747 13.2712 4.92974 13.3756C4.872 13.4799 4.90982 13.6114 5.01421 13.6691C5.1186 13.7269 5.25003 13.689 5.30777 13.5846Z" fill="#921A1C"></path><path d="M5.18383 13.392C5.11183 13.356 5.03983 13.392 5.00383 13.464C4.82383 13.824 4.64383 14.148 4.46383 14.508C4.42783 14.58 4.46383 14.652 4.53583 14.688C4.60783 14.724 4.67983 14.688 4.71583 14.616C4.89583 14.256 5.07583 13.932 5.25583 13.572C5.25583 13.5 5.21983 13.428 5.18383 13.392Z" fill="#D8E6E9"></path><path d="M5.7659 12.7944C5.82815 12.6926 5.79611 12.5597 5.69434 12.4974C5.59258 12.4352 5.45962 12.4672 5.39737 12.569C5.33513 12.6708 5.36717 12.8037 5.46893 12.866C5.5707 12.9282 5.70366 12.8962 5.7659 12.7944Z" fill="#921A1C"></path><path d="M6.44618 11.759C6.51439 11.6612 6.49035 11.5265 6.39248 11.4583C6.29462 11.3901 6.15998 11.4141 6.09177 11.512C6.02356 11.6099 6.0476 11.7445 6.14547 11.8127C6.24333 11.8809 6.37797 11.8569 6.44618 11.759Z" fill="#921A1C"></path><path d="M6.33602 11.556C6.26402 11.52 6.19202 11.52 6.15602 11.592L5.50802 12.564C5.47202 12.636 5.47202 12.708 5.54402 12.744C5.61602 12.78 5.68802 12.744 5.72402 12.708L6.37202 11.736C6.40802 11.664 6.37202 11.592 6.33602 11.556Z" fill="#D8E6E9"></path><path d="M6.99052 11.0389C7.06295 10.9441 7.04481 10.8086 6.95002 10.7361C6.85523 10.6637 6.71967 10.6819 6.64725 10.7766C6.57482 10.8714 6.59296 11.007 6.68775 11.0794C6.78255 11.1518 6.9181 11.1337 6.99052 11.0389Z" fill="#921A1C"></path><path d="M7.76943 10.0743C7.84738 9.98395 7.83736 9.84755 7.74705 9.76961C7.65674 9.69166 7.52035 9.70168 7.4424 9.79199C7.36446 9.8823 7.37448 10.0187 7.46479 10.0966C7.55509 10.1746 7.69149 10.1646 7.76943 10.0743Z" fill="#921A1C"></path><path d="M7.66814 9.86401C7.63214 9.82801 7.52414 9.82801 7.48814 9.86401C7.23614 10.152 6.98414 10.476 6.73214 10.764C6.69614 10.836 6.69614 10.908 6.76814 10.944C6.84014 10.98 6.91214 10.98 6.94814 10.908C7.20014 10.584 7.41614 10.296 7.66814 10.008C7.70414 9.97201 7.70414 9.90001 7.66814 9.86401Z" fill="#D8E6E9"></path><path d="M8.36589 9.39848C8.44768 9.31164 8.44359 9.17494 8.35675 9.09315C8.26991 9.01136 8.13321 9.01545 8.05142 9.10229C7.96963 9.18913 7.97372 9.32583 8.06056 9.40762C8.14739 9.48941 8.2841 9.48532 8.36589 9.39848Z" fill="#921A1C"></path><path d="M9.21323 8.52423C9.30005 8.44242 9.30412 8.30572 9.2223 8.2189C9.14049 8.13208 9.00379 8.12801 8.91697 8.20982C8.83015 8.29164 8.82609 8.42834 8.9079 8.51516C8.98971 8.60198 9.12641 8.60604 9.21323 8.52423Z" fill="#921A1C"></path><path d="M9.14389 8.316C9.10789 8.28 8.99989 8.28 8.96389 8.316C8.67589 8.568 8.38789 8.856 8.13589 9.144C8.09989 9.18 8.09989 9.288 8.13589 9.324C8.17189 9.36 8.27989 9.36 8.31589 9.324C8.56789 9.036 8.85589 8.784 9.14389 8.496C9.17989 8.424 9.21589 8.352 9.14389 8.316Z" fill="#D8E6E9"></path><path d="M9.90873 7.93915C9.99901 7.86118 10.009 7.72478 9.93102 7.6345C9.85305 7.54421 9.71665 7.53423 9.62636 7.61221C9.53608 7.69018 9.5261 7.82658 9.60407 7.91686C9.68204 8.00715 9.81844 8.01713 9.90873 7.93915Z" fill="#921A1C"></path><path d="M10.8666 7.15433C10.9613 7.08189 10.9795 6.94633 10.907 6.85155C10.8346 6.75677 10.699 6.73866 10.6042 6.81111C10.5095 6.88355 10.4913 7.01911 10.5638 7.11389C10.6362 7.20867 10.7718 7.22677 10.8666 7.15433Z" fill="#921A1C"></path><path d="M10.8 6.912C10.764 6.84 10.692 6.84 10.62 6.876C10.296 7.128 10.008 7.344 9.72002 7.632C9.64802 7.668 9.64802 7.776 9.72002 7.812C9.75602 7.848 9.82802 7.884 9.90002 7.812C10.188 7.56 10.476 7.308 10.8 7.092C10.836 7.056 10.836 6.984 10.8 6.912Z" fill="#D8E6E9"></path><path d="M11.5796 6.63004C11.6774 6.56179 11.7014 6.42715 11.6332 6.3293C11.5649 6.23146 11.4303 6.20746 11.3324 6.27571C11.2346 6.34395 11.2106 6.4786 11.2788 6.57644C11.3471 6.67429 11.4817 6.69828 11.5796 6.63004Z" fill="#921A1C"></path><path d="M12.6436 5.9358C12.7453 5.87355 12.7774 5.74058 12.7151 5.63882C12.6529 5.53706 12.5199 5.50503 12.4181 5.56728C12.3164 5.62953 12.2844 5.76249 12.3466 5.86425C12.4089 5.96602 12.5418 5.99805 12.6436 5.9358Z" fill="#921A1C"></path><path d="M12.5998 5.688C12.5638 5.616 12.4918 5.616 12.4198 5.652L11.4478 6.3C11.3758 6.336 11.3758 6.408 11.4118 6.48C11.4478 6.552 11.5198 6.552 11.5918 6.516L12.5638 5.868C12.5998 5.832 12.6358 5.76 12.5998 5.688Z" fill="#D8E6E9"></path><path d="M13.4235 5.47312C13.5279 5.41539 13.5657 5.28396 13.508 5.17957C13.4502 5.07518 13.3188 5.03735 13.2144 5.09509C13.11 5.15283 13.0722 5.28426 13.1299 5.38865C13.1877 5.49304 13.3191 5.53086 13.4235 5.47312Z" fill="#921A1C"></path><path d="M14.5288 4.90625C14.6365 4.85492 14.6822 4.72601 14.6309 4.61833C14.5795 4.51064 14.4506 4.46495 14.3429 4.51628C14.2352 4.56761 14.1896 4.69652 14.2409 4.80421C14.2922 4.91189 14.4211 4.95758 14.5288 4.90625Z" fill="#921A1C"></path><path d="M14.5079 4.68C14.4719 4.608 14.3999 4.608 14.3279 4.608C13.9679 4.788 13.6079 4.968 13.2839 5.148C13.2119 5.184 13.2119 5.256 13.2119 5.328C13.2479 5.4 13.3199 5.4 13.3919 5.364C13.7159 5.184 14.0759 5.004 14.4359 4.824C14.5079 4.824 14.5439 4.752 14.5079 4.68Z" fill="#D8E6E9"></path><path d="M15.2734 4.55651C15.383 4.50957 15.4339 4.3826 15.3869 4.27294C15.34 4.16327 15.213 4.11243 15.1034 4.15938C14.9937 4.20632 14.9428 4.33329 14.9898 4.44295C15.0367 4.55262 15.1637 4.60346 15.2734 4.55651Z" fill="#921A1C"></path><path d="M15.9841 3.924C16.0561 3.996 16.0921 4.068 16.1281 4.14C15.8761 4.248 15.6241 4.32 15.4081 4.428C15.3721 4.428 15.3361 4.464 15.3001 4.464C15.2281 4.5 15.1561 4.464 15.1201 4.392C15.0841 4.32 15.1201 4.248 15.1921 4.212C15.2281 4.176 15.2641 4.176 15.3361 4.176C15.5161 4.104 15.7681 3.996 15.9841 3.924Z" fill="#D8E6E9"></path><path d="M1.28759 11.4316C1.33891 11.324 1.29322 11.195 1.18553 11.1437C1.07784 11.0924 0.948935 11.1381 0.897613 11.2458C0.846292 11.3535 0.891987 11.4824 0.999677 11.5337C1.10737 11.585 1.23627 11.5393 1.28759 11.4316Z" fill="#921A1C"></path><path d="M1.87515 10.2744C1.93288 10.17 1.89504 10.0386 1.79065 9.98086C1.68625 9.92313 1.55482 9.96097 1.4971 10.0654C1.43937 10.1698 1.47721 10.3012 1.58161 10.3589C1.686 10.4166 1.81743 10.3788 1.87515 10.2744Z" fill="#921A1C"></path><path d="M1.72808 10.116C1.65608 10.08 1.58408 10.116 1.54808 10.188C1.36808 10.548 1.15208 10.908 1.00808 11.268C0.972076 11.34 1.00808 11.412 1.04408 11.448C1.11608 11.484 1.18808 11.448 1.22408 11.376L1.76408 10.296C1.80008 10.224 1.76408 10.152 1.72808 10.116Z" fill="#D8E6E9"></path><path d="M2.32206 9.46648C2.38429 9.36471 2.35224 9.23175 2.25047 9.16952C2.1487 9.10728 2.01574 9.13933 1.95351 9.24111C1.89127 9.34288 1.92332 9.47584 2.0251 9.53807C2.12687 9.60031 2.25982 9.56825 2.32206 9.46648Z" fill="#921A1C"></path><path d="M3.02917 8.43494C3.09741 8.33708 3.07339 8.20244 2.97554 8.13421C2.87769 8.06598 2.74305 8.08999 2.67482 8.18784C2.60658 8.2857 2.6306 8.42033 2.72845 8.48857C2.8263 8.5568 2.96094 8.53279 3.02917 8.43494Z" fill="#921A1C"></path><path d="M2.87997 8.244C2.80797 8.208 2.73597 8.208 2.69997 8.28C2.48397 8.604 2.26797 8.928 2.05197 9.288C2.01597 9.36 2.01597 9.432 2.08797 9.468C2.15997 9.504 2.23197 9.468 2.26797 9.432C2.48397 9.108 2.69997 8.748 2.91597 8.424C2.95197 8.352 2.95197 8.28 2.87997 8.244Z" fill="#D8E6E9"></path><path d="M3.5623 7.69573C3.63473 7.60094 3.61659 7.46538 3.5218 7.39296C3.427 7.32053 3.29145 7.33867 3.21902 7.43346C3.1466 7.52826 3.16474 7.66381 3.25953 7.73624C3.35432 7.80866 3.48988 7.79052 3.5623 7.69573Z" fill="#921A1C"></path><path d="M4.35879 6.68505C4.43674 6.59474 4.42671 6.45835 4.33641 6.3804C4.2461 6.30246 4.1097 6.31248 4.03176 6.40278C3.95381 6.49309 3.96383 6.62949 4.05414 6.70743C4.14445 6.78538 4.28084 6.77536 4.35879 6.68505Z" fill="#921A1C"></path><path d="M4.24816 6.48001C4.21216 6.44401 4.10416 6.44401 4.06816 6.51601C3.81616 6.80401 3.56416 7.12801 3.31216 7.45201C3.27616 7.52401 3.27616 7.59601 3.31216 7.63201C3.34816 7.66801 3.45616 7.66801 3.49216 7.59601C3.74416 7.27201 3.99616 6.98401 4.24816 6.69601C4.32016 6.62401 4.32016 6.55201 4.24816 6.48001Z" fill="#D8E6E9"></path><path d="M4.97135 6.01351C5.05315 5.92668 5.04907 5.78998 4.96224 5.70818C4.8754 5.62638 4.7387 5.63046 4.6569 5.71729C4.5751 5.80412 4.57918 5.94082 4.66601 6.02262C4.75284 6.10442 4.88955 6.10035 4.97135 6.01351Z" fill="#921A1C"></path><path d="M5.86313 5.12192C5.94996 5.04011 5.95402 4.90341 5.87221 4.81658C5.7904 4.72976 5.65369 4.7257 5.56687 4.80751C5.48005 4.88932 5.47599 5.02603 5.5578 5.11285C5.63961 5.19967 5.77631 5.20373 5.86313 5.12192Z" fill="#921A1C"></path><path d="M5.79623 4.932C5.76023 4.896 5.65223 4.896 5.61623 4.932C5.32823 5.22 5.04023 5.472 4.78823 5.76C4.75223 5.796 4.75223 5.904 4.78823 5.94C4.82423 5.976 4.93223 5.976 4.96823 5.94C5.25623 5.652 5.50823 5.364 5.79623 5.112C5.83223 5.04 5.83223 4.968 5.79623 4.932Z" fill="#D8E6E9"></path><path d="M6.54738 4.51717C6.63767 4.4392 6.64767 4.30281 6.56971 4.21251C6.49174 4.12222 6.35535 4.11222 6.26505 4.19018C6.17476 4.26814 6.16476 4.40454 6.24272 4.49484C6.32069 4.58513 6.45708 4.59513 6.54738 4.51717Z" fill="#921A1C"></path><path d="M7.52037 3.74156C7.61515 3.66912 7.63326 3.53356 7.56082 3.43878C7.48839 3.344 7.35283 3.32588 7.25804 3.39832C7.16326 3.47076 7.14515 3.60632 7.21759 3.7011C7.29002 3.79588 7.42558 3.81399 7.52037 3.74156Z" fill="#921A1C"></path><path d="M7.45201 3.49199C7.41601 3.45599 7.34401 3.41999 7.27201 3.49199C6.94801 3.74399 6.66001 3.99599 6.33601 4.24799C6.26401 4.28399 6.26401 4.39199 6.30001 4.42799C6.33601 4.46399 6.40801 4.46399 6.48001 4.42799C6.76801 4.17599 7.09201 3.92399 7.38001 3.67199C7.48801 3.63599 7.48801 3.56399 7.45201 3.49199Z" fill="#D8E6E9"></path><path d="M8.25095 3.17301C8.3488 3.10477 8.3728 2.97013 8.30456 2.87228C8.23632 2.77443 8.10168 2.75043 8.00383 2.81867C7.90598 2.88691 7.88198 3.02155 7.95022 3.1194C8.01846 3.21725 8.1531 3.24125 8.25095 3.17301Z" fill="#921A1C"></path><path d="M9.32772 2.48732C9.42946 2.42505 9.46147 2.29208 9.39919 2.19033C9.33692 2.08858 9.20395 2.05658 9.1022 2.11886C9.00045 2.18113 8.96845 2.3141 9.03073 2.41585C9.093 2.5176 9.22597 2.5496 9.32772 2.48732Z" fill="#921A1C"></path><path d="M9.28817 2.26801C9.25217 2.19601 9.18017 2.19601 9.10817 2.23201C8.78417 2.44801 8.42417 2.66401 8.10017 2.88001C8.02817 2.91601 8.02817 2.98801 8.06417 3.06001C8.10017 3.13201 8.17217 3.13201 8.24417 3.09601C8.56817 2.88001 8.89217 2.66401 9.25217 2.44801C9.28817 2.37601 9.32417 2.30401 9.28817 2.26801Z" fill="#D8E6E9"></path><path d="M10.1139 2.03172C10.2183 1.97398 10.2561 1.84254 10.1984 1.73816C10.1406 1.63377 10.0092 1.59596 9.90483 1.6537C9.80044 1.71144 9.76263 1.84288 9.82037 1.94726C9.87812 2.05165 10.0096 2.08946 10.1139 2.03172Z" fill="#921A1C"></path><path d="M11.2593 1.4563C11.367 1.40495 11.4127 1.27604 11.3613 1.16836C11.31 1.06068 11.1811 1.01502 11.0734 1.06636C10.9657 1.11771 10.92 1.24662 10.9714 1.3543C11.0227 1.46198 11.1516 1.50764 11.2593 1.4563Z" fill="#921A1C"></path><path d="M11.2319 1.224C11.1959 1.152 11.1239 1.152 11.0519 1.188L9.97187 1.728C9.89987 1.764 9.86387 1.836 9.89987 1.908C9.93587 1.98 10.0079 1.98 10.0799 1.944L11.1599 1.404C11.2319 1.332 11.2679 1.26 11.2319 1.224Z" fill="#D8E6E9"></path><path d="M12.204 0.972003C12.168 1.008 12.168 1.044 12.096 1.044C11.988 1.08 11.844 1.044 11.808 0.936003C11.808 0.900003 11.772 0.864003 11.808 0.828003C11.844 0.828003 11.88 0.864003 11.916 0.864003C11.988 0.900003 12.06 0.900003 12.096 0.936003C12.132 0.972003 12.168 0.972003 12.204 0.972003Z" fill="#921A1C"></path><path d="M12.1321 0.935998C12.0601 0.971998 11.9881 0.935998 11.9521 0.899998V0.863998C11.9881 0.899998 12.0601 0.935998 12.1321 0.935998Z" fill="#D8E6E9"></path><path d="M1.86886 12.6039C1.91579 12.4942 1.86492 12.3673 1.75524 12.3204C1.64557 12.2734 1.51862 12.3243 1.47169 12.434C1.42476 12.5436 1.47563 12.6706 1.5853 12.7175C1.69498 12.7645 1.82193 12.7136 1.86886 12.6039Z" fill="#921A1C"></path><path d="M1.76416 12.6C1.76416 12.636 1.72816 12.672 1.72816 12.708L1.51216 13.248C1.47616 13.14 1.40416 13.068 1.36816 12.96C1.40416 12.852 1.47616 12.708 1.51216 12.6C1.51216 12.564 1.54816 12.528 1.54816 12.492C1.58416 12.42 1.65616 12.384 1.69216 12.42C1.76416 12.456 1.76416 12.528 1.76416 12.6Z" fill="#D8E6E9"></path><path d="M2.19189 11.8738C2.24321 11.7661 2.19752 11.6372 2.08983 11.5859C1.98214 11.5345 1.85323 11.5802 1.80191 11.6879C1.75059 11.7956 1.79628 11.9245 1.90397 11.9758C2.01166 12.0272 2.14057 11.9815 2.19189 11.8738Z" fill="#921A1C"></path><path d="M2.7316 10.7685C2.78933 10.6641 2.75151 10.5327 2.64712 10.475C2.54273 10.4172 2.4113 10.4551 2.35356 10.5594C2.29583 10.6638 2.33365 10.7953 2.43804 10.853C2.54243 10.9107 2.67386 10.8729 2.7316 10.7685Z" fill="#921A1C"></path><path d="M2.59203 10.584C2.52003 10.548 2.44803 10.584 2.41203 10.62C2.23203 10.944 2.05203 11.304 1.87203 11.628C1.83603 11.7 1.87203 11.772 1.94403 11.808C2.01603 11.844 2.08803 11.808 2.12403 11.736C2.30403 11.376 2.44803 11.052 2.62803 10.728C2.66403 10.692 2.66403 10.62 2.59203 10.584Z" fill="#D8E6E9"></path><path d="M3.17801 10.0277C3.24026 9.92597 3.20822 9.79301 3.10645 9.73076C3.00469 9.66852 2.87173 9.70056 2.80948 9.80232C2.74724 9.90409 2.77928 10.037 2.88104 10.0993C2.98281 10.1615 3.11577 10.1295 3.17801 10.0277Z" fill="#921A1C"></path><path d="M3.85634 9.00988C3.92455 8.91201 3.90051 8.77738 3.80264 8.70916C3.70477 8.64095 3.57014 8.66499 3.50193 8.76286C3.43371 8.86073 3.45776 8.99536 3.55562 9.06357C3.65349 9.13179 3.78812 9.10774 3.85634 9.00988Z" fill="#921A1C"></path><path d="M3.70822 8.82C3.63622 8.784 3.56422 8.784 3.52822 8.856C3.31222 9.18 3.09622 9.504 2.91622 9.828C2.88022 9.9 2.88022 9.972 2.95222 10.008C3.02422 10.044 3.09622 10.008 3.13222 9.972C3.31222 9.648 3.52822 9.324 3.74422 9.036C3.78022 8.928 3.78022 8.856 3.70822 8.82Z" fill="#D8E6E9"></path><path d="M4.35771 8.31489C4.43014 8.22009 4.412 8.08454 4.31721 8.01211C4.22241 7.93969 4.08686 7.95783 4.01443 8.05262C3.94201 8.14741 3.96015 8.28297 4.05494 8.35539C4.14973 8.42781 4.28529 8.40968 4.35771 8.31489Z" fill="#921A1C"></path><path d="M5.13613 7.36576C5.21408 7.27545 5.20406 7.13906 5.11375 7.06111C5.02344 6.98317 4.88705 6.99319 4.8091 7.08349C4.73116 7.1738 4.74118 7.3102 4.83148 7.38814C4.92179 7.46609 5.05819 7.45607 5.13613 7.36576Z" fill="#921A1C"></path><path d="M5.00421 7.16399C4.96821 7.12799 4.86021 7.12799 4.82421 7.16399C4.57221 7.45199 4.32021 7.73999 4.10421 8.06399C4.06821 8.13599 4.06821 8.20799 4.14021 8.24399C4.17621 8.27999 4.28421 8.27999 4.32021 8.20799C4.53621 7.91999 4.78821 7.63199 5.04021 7.34399C5.07621 7.27199 5.07621 7.19999 5.00421 7.16399Z" fill="#D8E6E9"></path><path d="M5.69011 6.7101C5.7719 6.62326 5.76781 6.48656 5.68097 6.40476C5.59413 6.32297 5.45743 6.32706 5.37564 6.4139C5.29384 6.50074 5.29794 6.63744 5.38477 6.71923C5.47161 6.80103 5.60831 6.79694 5.69011 6.7101Z" fill="#921A1C"></path><path d="M6.56431 5.87738C6.65113 5.79557 6.65519 5.65887 6.57338 5.57205C6.49157 5.48523 6.35486 5.48116 6.26804 5.56297C6.18122 5.64479 6.17716 5.78149 6.25897 5.86831C6.34078 5.95513 6.47748 5.95919 6.56431 5.87738Z" fill="#921A1C"></path><path d="M6.47996 5.652C6.44396 5.616 6.37196 5.616 6.29996 5.652C6.01196 5.904 5.75996 6.192 5.50796 6.444C5.47196 6.48 5.47196 6.588 5.50796 6.624C5.54396 6.66 5.65196 6.66 5.68796 6.624C5.93996 6.336 6.22796 6.084 6.47996 5.832C6.51596 5.796 6.51596 5.688 6.47996 5.652Z" fill="#D8E6E9"></path><path d="M7.1934 5.28196C7.28368 5.20399 7.29366 5.06759 7.21569 4.9773C7.13772 4.88702 7.00132 4.87704 6.91103 4.95501C6.82075 5.03298 6.81077 5.16938 6.88874 5.25967C6.96671 5.34995 7.10311 5.35993 7.1934 5.28196Z" fill="#921A1C"></path><path d="M8.12682 4.53511C8.2216 4.46267 8.23971 4.32711 8.16726 4.23233C8.09482 4.13755 7.95926 4.11945 7.86448 4.19189C7.7697 4.26433 7.7516 4.39989 7.82404 4.49467C7.89648 4.58945 8.03204 4.60756 8.12682 4.53511Z" fill="#921A1C"></path><path d="M8.06395 4.284C8.02795 4.248 7.95595 4.212 7.88395 4.248C7.59595 4.464 7.27195 4.716 6.98395 4.968C6.94795 5.004 6.91195 5.076 6.98395 5.148C7.01995 5.184 7.09195 5.22 7.16395 5.148C7.45195 4.896 7.73995 4.68 8.02795 4.428C8.09995 4.428 8.09995 4.356 8.06395 4.284Z" fill="#D8E6E9"></path><path d="M8.82762 4.00102C8.92546 3.93278 8.94946 3.79814 8.88122 3.70029C8.81297 3.60245 8.67833 3.57845 8.58048 3.6467C8.48264 3.71494 8.45864 3.84958 8.52689 3.94743C8.59513 4.04527 8.72978 4.06927 8.82762 4.00102Z" fill="#921A1C"></path><path d="M9.8677 3.344C9.96946 3.28175 10.0015 3.14879 9.93924 3.04702C9.87699 2.94526 9.74403 2.91323 9.64227 2.97548C9.5405 3.03773 9.50847 3.17069 9.57072 3.27245C9.63297 3.37422 9.76593 3.40625 9.8677 3.344Z" fill="#921A1C"></path><path d="M9.82786 3.132C9.79186 3.06 9.71986 3.06 9.64786 3.096C9.32386 3.312 8.99986 3.492 8.67586 3.708C8.60386 3.744 8.60386 3.816 8.63986 3.888C8.67586 3.96 8.74786 3.96 8.81986 3.924C9.14386 3.708 9.43186 3.492 9.75586 3.312C9.82786 3.24 9.86386 3.168 9.82786 3.132Z" fill="#D8E6E9"></path><path d="M10.6076 2.88999C10.712 2.83226 10.7498 2.70083 10.692 2.59644C10.6343 2.49205 10.5029 2.45422 10.3985 2.51196C10.2941 2.5697 10.2563 2.70113 10.314 2.80552C10.3717 2.90991 10.5032 2.94773 10.6076 2.88999Z" fill="#921A1C"></path><path d="M11.6875 2.3582C11.7952 2.30687 11.8409 2.17796 11.7895 2.07028C11.7382 1.96259 11.6093 1.9169 11.5016 1.96823C11.3939 2.01956 11.3483 2.14847 11.3996 2.25616C11.4509 2.36384 11.5798 2.40953 11.6875 2.3582Z" fill="#921A1C"></path><path d="M11.6642 2.124C11.6282 2.052 11.5562 2.052 11.4842 2.052C11.1242 2.232 10.8002 2.412 10.4762 2.592C10.4402 2.628 10.4042 2.7 10.4402 2.772C10.4762 2.844 10.5482 2.844 10.6202 2.808C10.9442 2.628 11.3042 2.448 11.6282 2.304C11.6642 2.268 11.7002 2.196 11.6642 2.124Z" fill="#D8E6E9"></path><path d="M12.4262 2.0003C12.5359 1.95335 12.5867 1.82639 12.5398 1.71672C12.4928 1.60706 12.3659 1.55621 12.2562 1.60316C12.1465 1.65011 12.0957 1.77707 12.1426 1.88674C12.1896 1.99641 12.3165 2.04725 12.4262 2.0003Z" fill="#921A1C"></path><path d="M13.0682 1.40401C13.1762 1.44001 13.2482 1.51201 13.3562 1.54801C13.0682 1.65601 12.8162 1.76401 12.5282 1.87201C12.4922 1.87201 12.4562 1.90801 12.4202 1.90801C12.3482 1.94401 12.2762 1.90801 12.2402 1.83601C12.2042 1.76401 12.2402 1.69201 12.3122 1.69201C12.3482 1.65601 12.3842 1.65601 12.4202 1.65601C12.6722 1.54801 12.8882 1.47601 13.0682 1.40401Z" fill="#D8E6E9"></path><path opacity="0.1" d="M17.6399 8.99999C17.6399 13.788 13.7519 17.64 8.99993 17.64C6.26393 17.64 3.77993 16.344 2.23193 14.364C3.70793 15.516 5.54393 16.2 7.55993 16.2C12.3119 16.2 16.1999 12.348 16.1999 7.55999C16.1999 5.54399 15.5159 3.67199 14.3279 2.23199C16.3439 3.77999 17.6399 6.22799 17.6399 8.99999Z" fill="#071123"></path><path opacity="0.1" d="M14.8319 5.796C14.8319 10.692 10.6919 14.688 5.57986 14.688C4.28386 14.688 3.05986 14.436 1.97986 14.004C0.899863 12.492 0.359863 10.764 0.359863 9C0.359863 4.212 4.21186 0.360001 8.99986 0.360001C10.1879 0.360001 11.2679 0.576001 12.3119 1.008C12.8519 1.224 13.3919 1.512 13.8959 1.872C14.4719 3.06 14.8319 4.392 14.8319 5.796Z" fill="white"></path><path opacity="0.1" d="M12.7439 3.708C12.7439 8.604 8.60386 12.6 3.45586 12.6C2.59186 12.6 1.76386 12.492 1.00786 12.276C0.575863 11.268 0.359863 10.152 0.359863 9C0.359863 4.212 4.21186 0.360001 8.99986 0.360001C10.1879 0.360001 11.2679 0.576001 12.3119 1.008C12.5999 1.872 12.7439 2.772 12.7439 3.708Z" fill="white"></path><path opacity="0.1" d="M8.02303 8.20711C9.80848 6.4216 10.3099 4.02823 9.143 2.86136C7.97609 1.6945 5.58273 2.19601 3.79729 3.98151C2.01184 5.76702 1.51042 8.16039 2.67732 9.32726C3.84423 10.4941 6.23759 9.99262 8.02303 8.20711Z" fill="white"></path></g><defs><clipPath id="clip0_80_15983"><rect width="18" height="18" fill="white"></rect></clipPath></defs></svg>