<svg xmlns="http://www.w3.org/2000/svg" width="18" height="18" viewBox="0 0 18 18" fill="none" class="sh-img" alt=""><g clip-path="url(#clip0_80_16094)"><path d="M15.0839 3.78001L15.8399 3.67201C15.0479 2.66401 14.0759 1.87201 12.9599 1.29601L12.8159 1.80001L15.0839 3.78001Z" fill="#D8E6E9"></path><path d="M7.0199 1.44L9.6839 2.556L12.5639 1.764L12.6719 1.188C12.7439 1.224 12.7799 1.224 12.8519 1.26C11.6639 0.684001 10.3679 0.360001 8.9999 0.360001C7.6319 0.360001 6.2639 0.756001 6.8759 0.612001L7.0199 1.44ZM2.9879 6.912L3.0239 4.104L1.9799 3.96C0.935903 5.436 0.323903 7.236 0.359903 9.18L1.1879 9.324L2.9879 6.912ZM14.5079 6.948L16.2719 9.324L17.6399 9.108V9C17.6399 7.128 17.0279 5.364 16.0199 3.96L15.1559 4.068L14.5079 6.948Z" fill="#071123"></path><path d="M6.73201 1.476L6.62401 0.720001C4.82401 1.224 3.27601 2.304 2.19601 3.744L3.16801 3.852L6.73201 1.476ZM15.876 3.78C15.876 3.816 15.912 3.816 15.912 3.852C15.912 3.816 15.912 3.816 15.876 3.78ZM6.04801 17.136C6.04801 17.136 6.01201 17.136 6.01201 17.1L6.04801 17.136ZM1.65601 13.536C1.65601 13.5 1.62001 13.464 1.62001 13.464C1.62001 13.464 1.62001 13.5 1.65601 13.536ZM1.15201 9.612L0.360007 9.468C0.324007 8.856 0.252007 11.16 1.54801 13.356L2.16001 12.42L1.15201 9.612Z" fill="#D8E6E9"></path><path d="M5.29189 13.068L2.37589 12.6L1.69189 13.608C2.66389 15.156 4.10389 16.344 5.79589 17.028L6.87589 15.408L5.29189 13.068Z" fill="#071123"></path><path d="M14.2918 7.12801L11.5558 7.56001L10.5838 10.44L12.1678 12.78L15.0838 12.312L16.0558 9.50401L14.2918 7.12801ZM5.93981 7.56001L3.16781 7.12801L1.40381 9.50401L2.41181 12.312L5.32781 12.78L6.91181 10.44L5.93981 7.56001ZM7.12781 15.552L6.04781 17.136C6.94781 17.46 7.95581 17.64 8.99981 17.64C9.86381 17.64 10.7278 17.496 11.5198 17.28L10.3678 15.552H7.12781ZM16.3438 9.61201L15.3358 12.456L16.2358 13.788C17.0638 12.528 17.5678 11.052 17.6398 9.43201L16.3438 9.61201Z" fill="#D8E6E9"></path><path d="M12.2041 13.068L10.6201 15.408L11.8081 17.172C13.5361 16.596 15.0481 15.444 16.0561 13.968L15.1201 12.6L12.2041 13.068Z" fill="#071123"></path><path d="M7.12795 10.584L5.54395 12.924L7.12795 15.264H10.3679L11.9519 12.924L10.3679 10.584H7.12795ZM11.4839 7.27201L14.2559 6.84001L14.9039 3.99601L12.6359 2.01601L9.75595 2.80801L8.89195 5.50801L11.4839 7.27201Z" fill="#D8E6E9"></path><path d="M6.19189 7.488L7.16389 10.296H10.3319L11.3039 7.488L8.74789 5.724L6.19189 7.488Z" fill="#071123"></path><path d="M8.63988 5.472L9.46788 2.772L6.91188 1.692L3.31188 4.032L3.27588 6.84L6.01188 7.272L8.63988 5.472Z" fill="#D8E6E9"></path><path d="M1.69186 13.608C1.69186 13.572 1.65586 13.536 1.65586 13.536C1.65586 13.536 1.65586 13.572 1.69186 13.608ZM16.2359 13.752C16.2359 13.752 16.2359 13.788 16.1999 13.788C16.1999 13.752 16.1999 13.752 16.2359 13.752ZM16.0559 14.004C16.0919 13.968 16.0919 13.932 16.1279 13.896C16.0919 13.896 16.0919 13.932 16.0559 14.004ZM11.5199 17.28C11.6279 17.244 11.6999 17.208 11.8079 17.208C11.6999 17.208 11.5919 17.244 11.5199 17.28ZM6.62386 0.683998C6.76786 0.647998 6.80386 0.647998 6.62386 0.683998V0.683998ZM15.8039 3.708C15.8399 3.744 15.8399 3.78 15.8759 3.816C15.8759 3.744 15.8399 3.708 15.8039 3.708ZM1.54786 13.356C1.58386 13.392 1.58386 13.428 1.61986 13.464C1.58386 13.392 1.54786 13.356 1.54786 13.356ZM1.97986 3.96C2.05186 3.852 2.05186 3.852 1.97986 3.96V3.96ZM0.359863 9.18C0.359863 9.396 0.359863 9.468 0.359863 9.18V9.18Z" fill="#BCD5D6"></path><path d="M16.3439 9.612L17.6399 9.396V9.108L16.2719 9.324L14.5079 6.948L15.1559 4.068L16.0199 3.96C15.9839 3.924 15.9839 3.888 15.9479 3.852C15.9479 3.816 15.9119 3.816 15.9119 3.78C15.8759 3.744 15.8759 3.708 15.8399 3.672L15.0839 3.78L12.8159 1.8L12.9239 1.296C12.8879 1.296 12.8519 1.26 12.8159 1.26C12.7439 1.224 12.7079 1.188 12.6359 1.188L12.5279 1.764L9.64786 2.556L7.01986 1.44L6.91186 0.612C6.83986 0.612 6.73186 0.647999 6.62386 0.683999L6.73186 1.44L3.13186 3.816L2.15986 3.708C2.01586 3.924 2.01586 3.888 1.97986 3.96L3.02386 4.104L2.98786 6.912L1.22386 9.324L0.359863 9.18V9.468L1.15186 9.576L2.15986 12.42L1.54786 13.356C1.58386 13.392 1.58386 13.428 1.61986 13.464C1.61986 13.5 1.65586 13.536 1.65586 13.536C1.65586 13.572 1.69186 13.608 1.69186 13.608L2.37586 12.6L5.29186 13.068L6.87586 15.408L5.79586 17.028C5.86786 17.064 5.90386 17.064 5.97586 17.1C5.97586 17.1 6.01186 17.1 6.01186 17.136H6.04786L7.12786 15.552H10.3319L11.5199 17.28C11.6279 17.244 11.6999 17.208 11.8079 17.172L10.6199 15.408L12.2039 13.068L15.1199 12.6L16.0559 14.004C16.0919 13.968 16.0919 13.932 16.1279 13.896C16.1639 13.86 16.1639 13.824 16.1999 13.788C16.1999 13.788 16.1999 13.752 16.2359 13.752L15.3359 12.42L16.3439 9.612ZM9.75586 2.808L12.6359 2.016L14.9039 3.996L14.2559 6.84L11.4839 7.272L8.89186 5.508L9.75586 2.808ZM11.3039 7.488L10.3319 10.296H7.16386L6.19186 7.488L8.74786 5.724L11.3039 7.488ZM3.31186 4.032L6.91186 1.692L9.50386 2.772L8.63986 5.472L6.01186 7.272L3.27586 6.84L3.31186 4.032ZM2.41186 12.312L1.40386 9.504L3.16786 7.128L5.90386 7.56L6.87586 10.44L5.29186 12.78L2.41186 12.312ZM10.3679 15.264H7.16386L5.57986 12.924L7.16386 10.584H10.3679L11.9519 12.924L10.3679 15.264ZM15.0839 12.312L12.1679 12.78L10.5839 10.44L11.5559 7.56L14.2919 7.128L16.0559 9.504L15.0839 12.312Z" fill="#BCD5D6"></path><path opacity="0.2" d="M14.832 5.796C14.832 10.692 10.692 14.688 5.57995 14.688C4.28395 14.688 3.05995 14.436 1.97995 14.004C-2.05204 8.316 1.94395 0.360001 8.99995 0.360001C10.188 0.360001 11.268 0.576001 12.312 1.008C12.852 1.224 13.392 1.512 13.896 1.872C14.508 3.06 14.832 4.392 14.832 5.796Z" fill="white"></path><path opacity="0.2" d="M12.7439 3.708C12.7439 9.576 6.87589 13.824 1.00789 12.276C-1.29611 6.66 2.80789 0.360001 8.99989 0.360001C10.1879 0.360001 11.2679 0.576001 12.3119 1.008C12.5999 1.872 12.7439 2.772 12.7439 3.708Z" fill="white"></path><path opacity="0.2" d="M8.0494 8.18431C9.83485 6.39881 10.3363 4.00543 9.16936 2.83857C8.00246 1.6717 5.6091 2.17321 3.82366 3.95872C2.03821 5.74423 1.53679 8.1376 2.70369 9.30446C3.8706 10.4713 6.26395 9.96982 8.0494 8.18431Z" fill="white"></path><path opacity="0.1" d="M17.6398 9C17.6398 13.788 13.7878 17.64 8.99976 17.64C6.15576 17.64 3.63576 16.272 2.05176 14.148C3.49176 15.228 5.25576 15.84 7.19976 15.84C11.9878 15.84 15.8398 11.952 15.8398 7.2C15.8398 5.256 15.1918 3.492 14.1478 2.052C16.2718 3.636 17.6398 6.156 17.6398 9Z" fill="#071123"></path></g><defs><clipPath id="clip0_80_16094"><rect width="18" height="18" fill="white"></rect></clipPath></defs></svg>