<svg xmlns="http://www.w3.org/2000/svg" width="16" height="16" viewBox="0 0 16 16" fill="none" class="sh-img" alt=""><path d="M13.1462 2.82909L12.7159 0.03125L11.4864 2.45331L11.2841 4.32625L12.0556 6.21109C12.2169 5.99706 12.3695 5.786 12.509 5.58563C13.0681 4.78322 13.2952 3.79544 13.1462 2.82909ZM3.28352 0.03125L2.85321 2.82909C2.70424 3.79544 2.93127 4.78322 3.49036 5.58563C3.62989 5.78597 3.78246 5.99706 3.94377 6.21109L4.71527 4.32625L4.56499 2.50537L3.28352 0.03125Z" fill="#F0C882"></path><path d="M3.28418 0.03125L4.71596 4.32625L6.22124 3.05028C5.72262 2.22997 4.66684 0.722406 3.28418 0.03125ZM9.77952 3.05028L11.2848 4.32625L12.7166 0.03125C11.3339 0.722406 10.2781 2.22997 9.77952 3.05028Z" fill="#EAB971"></path><path d="M8.00034 14.2404L6.41016 14.6837C6.56694 15.4181 7.21941 15.9688 8.00034 15.9688C8.78128 15.9688 9.43375 15.4181 9.59053 14.6837L8.00034 14.2404Z" fill="#C6475A"></path><path d="M7.99953 2.6333C7.36203 2.6333 6.75869 2.78293 6.22038 3.05027C3.89838 4.20299 3.17372 7.24899 4.69719 9.37258C4.71538 9.39793 4.73331 9.42343 4.75097 9.44918L5.03156 9.62793L5.10438 10.0628C5.40019 10.6842 5.5601 11.3816 5.5601 12.1057V13.2887C5.5601 13.866 5.84763 14.4547 6.40935 14.6837C6.83185 14.8571 7.33763 14.8034 7.72206 14.5035L7.9995 14.1929L8.27757 14.5045C9.10532 15.1537 10.4389 14.6357 10.4389 13.2887V12.1058C10.4389 11.3874 10.5963 10.6895 10.8949 10.0625L10.9572 9.62636L11.2484 9.44889C11.2659 9.4233 11.2838 9.39789 11.3018 9.37268C11.8057 8.67046 12.1036 7.80202 12.1036 6.86171C12.1036 4.51752 10.2568 2.6333 7.99953 2.6333Z" fill="#F7E4B3"></path><path d="M6.21153 7.28207C6.08447 7.15498 5.87869 7.15492 5.75156 7.28207C5.6245 7.4091 5.41862 7.4091 5.29156 7.28207C5.16453 7.15504 5.16453 6.9491 5.29156 6.82207C5.67203 6.44167 6.29106 6.4416 6.6715 6.82207C6.79853 6.9491 6.79853 7.15504 6.6715 7.28207C6.5445 7.40907 6.33859 7.4091 6.21153 7.28207ZM10.2493 7.28207C10.1222 7.15495 9.91647 7.15492 9.78934 7.28207C9.66228 7.4091 9.45641 7.4091 9.32934 7.28207C9.20231 7.15504 9.20231 6.9491 9.32934 6.82207C9.70984 6.44163 10.3289 6.4417 10.7093 6.82207C10.8363 6.9491 10.8363 7.15504 10.7093 7.28207C10.5823 7.40907 10.3763 7.4091 10.2493 7.28207Z" fill="#5A5656"></path><path d="M8.00005 10.4393C7.82043 10.4393 7.6748 10.2937 7.6748 10.1141V5.23528C7.6748 5.05566 7.82043 4.91003 8.00005 4.91003C8.17968 4.91003 8.3253 5.05566 8.3253 5.23528V10.1141C8.3253 10.2937 8.17968 10.4393 8.00005 10.4393Z" fill="#EAB971"></path><path d="M11.2486 9.44895C10.9263 8.86089 10.3028 8.48782 9.62591 8.48782C9.44638 8.48782 9.30066 8.63354 9.30066 8.81307C9.30066 8.99261 9.44638 9.13832 9.62591 9.13832C10.0923 9.13832 10.52 9.41186 10.7155 9.83567C10.74 9.87611 10.7636 9.9942 10.895 10.0624L11.2486 9.44895ZM6.6986 8.81307C6.6986 8.99261 6.55288 9.13832 6.37335 9.13832C5.90695 9.13832 5.47923 9.41186 5.28407 9.83536C5.25935 9.87617 5.23507 9.99486 5.1042 10.0627C5.00273 9.84932 4.88463 9.64442 4.75098 9.44926C5.07266 8.8612 5.69648 8.48779 6.37335 8.48779C6.55291 8.48782 6.6986 8.63354 6.6986 8.81307Z" fill="#F0C882"></path><path d="M8.97591 12.7162C8.97591 13.1585 8.68123 13.5322 8.2776 13.6516V14.5035C8.17848 14.4263 8.13276 14.3701 8.00016 14.2403C7.8676 14.3701 7.82185 14.4263 7.72273 14.5035V13.6516C7.3191 13.5322 7.02441 13.1585 7.02441 12.7162C7.02441 12.1772 7.46123 12.0657 8.00016 12.0657C8.5391 12.0657 8.97591 12.1772 8.97591 12.7162Z" fill="#363030"></path></svg>