<svg xmlns="http://www.w3.org/2000/svg" width="12" height="14" viewBox="0 0 12 14" fill="none" class="sh-img" alt=""><g clip-path="url(#clip0_80_15407)"><path d="M6.65198 7.30217C6.40754 6.90958 6.08594 6.54033 5.67198 6.21017C4.26171 5.2038 2.92336 5.30746 1.6368 6.21017C0.398006 7.19804 -0.0142689 8.53592 0.000374725 9.79912H0.000656334L0.239461 11.4071C0.426167 12.0645 0.699891 12.6303 0.978121 13.0168C1.3 13.4639 2.66777 14 3.65425 14C4.64101 14 6.00878 13.4639 6.33066 13.0168C6.56355 12.693 6.79362 12.2436 6.97188 11.7197C7.00624 11.6182 7.41184 11.6145 7.44225 11.5077L7.80894 9.93102L8.00336 9.79883C8.01293 8.95796 7.1386 8.08383 6.65198 7.30217Z" fill="#A37859"></path><path d="M8.7505 0.845833C9.5514 0.845833 10.2005 1.51812 10.2005 2.34733C10.2005 3.17683 9.5514 3.84912 8.7505 3.84912C7.94989 3.84912 7.30078 3.17683 7.30078 2.34733C7.30078 1.51812 7.94989 0.845833 8.7505 0.845833Z" fill="#F4BE53"></path><path d="M10.0911 4.52637C8.57609 5.48042 7.80758 6.59254 6.65186 7.30217C7.13848 8.08383 7.31786 8.95796 7.30829 9.79883L10.794 8.16987C11.268 7.69271 11.9999 6.96529 11.9999 6.96529C10.789 6.09583 10.9416 5.41829 10.0911 4.52637Z" fill="#82AF7E"></path><path d="M8.51856 8.47933C9.1885 7.82017 9.82945 7.25317 9.82945 7.25317C9.98152 7.35904 10.1136 7.46258 10.2302 7.56437C10.4667 7.77117 10.641 7.97096 10.794 8.16987C11.0939 8.55954 11.3113 8.94483 11.7537 9.36425C11.7537 9.36425 9.72046 11.5095 8.33607 13.2653C8.33607 13.2653 7.38396 12.3646 6.97168 11.7197C7.00604 11.6182 7.0387 11.5138 7.06912 11.4071C7.20992 10.9107 7.30144 10.3623 7.3082 9.79883C7.59741 9.41558 8.0646 8.92646 8.51856 8.47933Z" fill="#B0D2A5"></path><path d="M9.8543 9.12217C10.1373 9.37271 10.068 9.93796 9.69969 10.3845C9.33107 10.831 8.80305 10.9903 8.52003 10.7397C8.23702 10.4892 8.30629 9.92425 8.67464 9.47771C9.04298 9.03087 9.571 8.87192 9.8543 9.12217ZM10.2263 6.50971C10.4468 6.75762 10.4338 7.16829 10.2305 7.56437C10.1139 7.46258 9.98186 7.35904 9.8298 7.25317C9.8298 7.25317 9.18885 7.82017 8.51891 8.47933C8.44118 8.44492 8.37247 8.39592 8.3153 8.33146C7.99652 7.97271 8.16577 7.27417 8.6935 6.77104C9.22124 6.26792 9.90752 6.15096 10.2263 6.50971Z" fill="#558B57"></path><path d="M7.30824 9.79912L7.30852 9.79883C7.30176 10.3623 7.21024 10.9107 7.06943 11.4071C7.06943 11.4071 5.47665 12.2754 3.65436 12.2754C1.83207 12.2754 0.239574 11.4071 0.239574 11.4071C0.0987698 10.911 0.00724689 10.3623 0.000488281 9.79912H0.00076989C0.00076989 9.79912 0.473309 10.1611 1.12185 10.5516C1.37587 10.7045 1.65663 10.8617 1.94697 11.0034C2.52624 11.2866 3.14268 11.5077 3.65436 11.5077C4.16605 11.5077 4.78249 11.2866 5.36204 11.0034C5.6521 10.8617 5.93314 10.7045 6.18687 10.5516C6.8357 10.1611 7.30824 9.79912 7.30824 9.79912Z" fill="#524459"></path><path d="M6.1866 10.5516C5.93287 10.7045 5.65182 10.8617 5.36177 11.0034C5.36177 10.3186 5.01708 9.42579 5.01708 9.42579V9.4255C5.26771 9.23038 5.40823 8.97867 5.48117 8.71996H5.48145C5.48145 8.71996 6.1866 9.59058 6.1866 10.5516ZM2.29139 9.42579C2.29139 9.42579 1.9467 10.3186 1.9467 11.0034C1.65636 10.8617 1.37559 10.7045 1.12158 10.5516C1.12158 9.59058 1.82701 8.71996 1.82701 8.71996C1.90023 8.97896 2.04075 9.23067 2.29139 9.42579Z" fill="#7F7F80"></path><path d="M5.01716 9.42579C5.01716 9.42579 5.36185 10.3186 5.36185 11.0034C4.7823 11.2866 4.16585 11.5077 3.65417 11.5077C3.14249 11.5077 2.52605 11.2866 1.94678 11.0034C1.94678 10.3186 2.29147 9.42579 2.29147 9.42579C2.57899 9.64979 3.01182 9.79912 3.65417 9.79912C4.2968 9.79912 4.72964 9.64979 5.01716 9.4255V9.42579Z" fill="#A37859"></path><path d="M5.5276 6.59254L5.54647 6.59808C5.48057 6.85067 5.4403 7.12367 5.4403 7.42058C5.4403 7.42058 4.83005 6.78067 3.65434 6.78067C2.4789 6.78067 1.86837 7.42058 1.86837 7.42058C1.86837 7.12367 1.8281 6.85067 1.76221 6.59808L1.78136 6.59254C1.78136 6.59254 2.4789 5.95292 3.65434 5.95292C4.83005 5.95292 5.5276 6.59254 5.5276 6.59254Z" fill="#7F7F80"></path><path d="M5.43996 7.42058C5.43996 7.42058 5.65934 8.09113 5.48108 8.71996C5.40814 8.97867 5.26762 9.23038 5.01699 9.4255C4.72947 9.64979 4.29663 9.79913 3.654 9.79913C3.01165 9.79913 2.57882 9.64979 2.2913 9.42579C2.04066 9.23067 1.90014 8.97896 1.82692 8.71996C1.64895 8.09083 1.86804 7.42058 1.86804 7.42058C1.86804 7.42058 2.47857 6.78067 3.654 6.78067C4.82972 6.78067 5.43996 7.42058 5.43996 7.42058ZM6.77366 0C5.32732 0.571083 4.89505 1.71529 4.89505 1.71529C4.89505 1.71529 4.40815 1.14683 3.654 1.14683C2.90013 1.14683 2.41323 1.71529 2.41323 1.71529C2.41323 1.71529 1.98068 0.571083 0.53462 0C0.53462 0 0.320316 1.29354 1.53377 2.72388C1.53377 3.24683 0.699925 3.93079 0.699925 4.28663C0.699925 4.47271 0.804965 4.68563 0.952246 4.93558H0.952528L1.47069 5.83421C1.52983 5.9535 1.58587 6.07863 1.63656 6.21017C1.68415 6.33354 1.72667 6.46304 1.76187 6.59808L1.78102 6.59254C1.78102 6.59254 2.47857 5.95292 3.654 5.95292C4.82972 5.95292 5.52726 6.59254 5.52726 6.59254L5.54613 6.59808C5.58133 6.46304 5.62414 6.33354 5.67173 6.21017C5.72214 6.07863 5.77846 5.9535 5.8376 5.83421L6.35576 4.93558H6.35604C6.50304 4.68563 6.60836 4.47271 6.60836 4.28663C6.60836 3.93079 5.77423 3.24683 5.77423 2.72388C6.98797 1.29354 6.77366 0 6.77366 0Z" fill="#BE9272"></path><path d="M1.9819 4.96883C2.09961 5.35763 1.97373 5.74437 1.70114 5.83275C1.62595 5.85725 1.54766 5.85638 1.47106 5.83421C1.26943 5.77617 1.07991 5.57083 0.994581 5.28908C0.957971 5.16804 0.945017 5.04729 0.952903 4.93558C0.969517 4.68854 1.08751 4.48613 1.27534 4.42517C1.54794 4.3365 1.86447 4.58004 1.9819 4.96883ZM3.65438 1.91567C4.69548 1.91567 5.76025 3.89433 4.19957 3.47929C4.19957 3.47929 4.09059 3.99029 3.65438 3.99029C3.21845 3.99029 3.10946 3.47929 3.10946 3.47929C1.54879 3.89433 2.61355 1.91567 3.65438 1.91567ZM6.35613 4.93558C6.36402 5.04729 6.35106 5.16804 6.31445 5.28908C6.22913 5.57083 6.0396 5.77617 5.83797 5.83421C5.76137 5.85638 5.68309 5.85725 5.6079 5.83275C5.3353 5.74437 5.20942 5.35763 5.32713 4.96883C5.44456 4.58004 5.76081 4.3365 6.03369 4.42517C6.22152 4.48613 6.33952 4.68854 6.35613 4.93558Z" fill="#5C381E"></path><path d="M3.11707 8.29165L2.57556 8.0131C2.4641 7.95582 2.3289 8.00284 2.27356 8.11828C2.21823 8.23369 2.26368 8.37375 2.37511 8.43106L2.91662 8.7096C2.94883 8.72614 2.98299 8.73402 3.01667 8.73402C3.09949 8.73402 3.17925 8.68647 3.21861 8.60443C3.27398 8.48902 3.2285 8.34896 3.11707 8.29165ZM4.73361 8.0131L4.19208 8.29165C4.08065 8.34896 4.03519 8.48899 4.09053 8.60443C4.12987 8.68647 4.20962 8.73402 4.29247 8.73402C4.32613 8.73402 4.36031 8.72614 4.39253 8.7096L4.93406 8.43106C5.0455 8.37375 5.09095 8.23372 5.03561 8.11828C4.98027 8.00292 4.84513 7.95585 4.73361 8.0131Z" fill="#906748"></path><path d="M9.36809 2.23904C9.24602 2.21355 9.12732 2.29545 9.10279 2.42177C9.06928 2.59429 8.92115 2.7195 8.75058 2.7195C8.61423 2.7195 8.4913 2.64125 8.42977 2.5153C8.37359 2.4003 8.238 2.35428 8.12704 2.41243C8.01603 2.47059 7.97157 2.61097 8.02772 2.72598C8.16638 3.00985 8.44337 3.1862 8.75058 3.1862C9.13492 3.1862 9.46882 2.90343 9.54449 2.51382C9.56905 2.38747 9.49006 2.26444 9.36809 2.23904Z" fill="#F9D285"></path></g><defs><clipPath id="clip0_80_15407"><rect width="12" height="14" fill="white"></rect></clipPath></defs></svg>