<svg xmlns="http://www.w3.org/2000/svg" width="12" height="12" viewBox="0 0 12 12" fill="none" class="sh-img " alt=""><path fill-rule="evenodd" clip-rule="evenodd" d="M4.64644 0.646445C4.74021 0.55268 4.86739 0.5 5 0.5H9C9.82845 0.5 10.5 1.17157 10.5 2V10C10.5 10.8284 9.82845 11.5 9 11.5H3C2.17158 11.5 1.5 10.8284 1.5 10V4C1.5 3.86739 1.55268 3.74021 1.64645 3.64644L4.64644 0.646445ZM9 1.5H5.5V4C5.5 4.27614 5.27615 4.5 5 4.5H2.5V10C2.5 10.2761 2.72386 10.5 3 10.5H9C9.27615 10.5 9.5 10.2761 9.5 10V2C9.5 1.72386 9.27615 1.5 9 1.5ZM3.2071 3.5H4.5V2.2071L3.2071 3.5ZM3.5 6.5C3.5 6.22385 3.72386 6 4 6H8C8.27615 6 8.5 6.22385 8.5 6.5C8.5 6.77615 8.27615 7 8 7H4C3.72386 7 3.5 6.77615 3.5 6.5ZM3.5 8.5C3.5 8.22385 3.72386 8 4 8H8C8.27615 8 8.5 8.22385 8.5 8.5C8.5 8.77615 8.27615 9 8 9H4C3.72386 9 3.5 8.77615 3.5 8.5Z" fill="white"></path></svg>