<svg xmlns="http://www.w3.org/2000/svg" width="12" height="12" viewBox="0 0 12 12" fill="none" class="sh-img " alt=""><path d="M10.855 3.645C10.8085 3.59814 10.7532 3.56094 10.6923 3.53555C10.6313 3.51017 10.566 3.4971 10.5 3.4971C10.434 3.4971 10.3686 3.51017 10.3077 3.53555C10.2468 3.56094 10.1915 3.59814 10.145 3.645L6.99997 6.795L4.85497 4.645C4.80849 4.59814 4.75319 4.56094 4.69226 4.53555C4.63133 4.51017 4.56598 4.4971 4.49997 4.4971C4.43396 4.4971 4.36861 4.51017 4.30768 4.53555C4.24675 4.56094 4.19145 4.59814 4.14497 4.645L1.14497 7.645C1.09811 7.69148 1.06091 7.74678 1.03552 7.80771C1.01014 7.86864 0.99707 7.93399 0.99707 8C0.99707 8.06601 1.01014 8.13136 1.03552 8.19229C1.06091 8.25322 1.09811 8.30852 1.14497 8.355C1.19145 8.40186 1.24675 8.43906 1.30768 8.46445C1.36861 8.48983 1.43396 8.5029 1.49997 8.5029C1.56598 8.5029 1.63133 8.48983 1.69226 8.46445C1.75319 8.43906 1.80849 8.40186 1.85497 8.355L4.49997 5.705L6.64497 7.855C6.69145 7.90186 6.74675 7.93906 6.80768 7.96445C6.86861 7.98983 6.93396 8.0029 6.99997 8.0029C7.06598 8.0029 7.13133 7.98983 7.19226 7.96445C7.25319 7.93906 7.30849 7.90186 7.35497 7.855L10.855 4.355C10.9018 4.30852 10.939 4.25322 10.9644 4.19229C10.9898 4.13136 11.0029 4.06601 11.0029 4C11.0029 3.93399 10.9898 3.86864 10.9644 3.80771C10.939 3.74678 10.9018 3.69148 10.855 3.645Z" fill="white"></path></svg>