<svg xmlns="http://www.w3.org/2000/svg" width="12" height="12" viewBox="0 0 12 12" fill="none" class="sh-img" alt=""><g clip-path="url(#clip0_5584_85)"><path d="M10.9519 6.8222C11.3525 6.02316 11.6561 5.14442 11.8297 4.28089C12.1626 2.62399 11.9989 1.17433 11.4122 0.587665C10.8259 0.00118363 9.37607 -0.162676 7.71933 0.1702C6.85545 0.343786 5.97692 0.647364 5.17783 1.04838C4.2645 1.50669 3.45446 2.08603 2.77038 2.7703C2.08592 3.45438 1.50659 4.26444 1.04846 5.17794C0.647469 5.97682 0.343869 6.85553 0.170282 7.71944C-0.16257 9.37615 0.00112539 10.8259 0.587771 11.4123C1.17444 11.9989 2.62391 12.1627 4.281 11.8298C5.14452 11.6562 6.02305 11.3526 6.82212 10.952C7.73546 10.4935 8.5455 9.91411 9.22995 9.23003C9.91405 8.54558 10.4934 7.73554 10.9519 6.8222Z" fill="#FC6E51"></path><path d="M3.86425 8.13556C3.76648 8.03815 3.76648 7.87956 3.86425 7.78217L7.75302 3.89302C7.85081 3.79542 8.00902 3.79542 8.1068 3.89302C8.20419 3.99079 8.20419 4.149 8.1068 4.24659L4.21765 8.13554C4.12022 8.23332 3.96203 8.23332 3.86425 8.13556Z" fill="#E9573F"></path><path d="M5.27858 7.78243L4.21768 6.72188C4.12027 6.62409 4.12027 6.46588 4.21768 6.36812C4.31544 6.27052 4.47365 6.27052 4.57144 6.36812L5.63199 7.42865C5.72978 7.52644 5.72978 7.68465 5.63199 7.78243C5.53418 7.87982 5.37597 7.87982 5.27858 7.78243Z" fill="#E6E9ED"></path><path d="M6.33912 6.72156L5.27857 5.66066C5.18078 5.56306 5.18078 5.40485 5.27857 5.30709C5.37598 5.20949 5.53419 5.20949 5.63195 5.30709L6.69248 6.3678C6.79027 6.46556 6.79027 6.62378 6.69248 6.72156C6.5951 6.81897 6.43651 6.81897 6.33912 6.72156Z" fill="#E6E9ED"></path><path d="M6.33915 4.60011C6.24136 4.50251 6.24136 4.34414 6.33915 4.24654C6.43654 4.14894 6.59512 4.14894 6.69251 4.24654L7.75306 5.30707C7.85085 5.40485 7.85085 5.56306 7.75306 5.66064C7.65565 5.75824 7.49746 5.75824 7.39968 5.66064L6.33915 4.60011Z" fill="#E6E9ED"></path><path d="M0.580098 6.26562C0.406511 6.74354 0.267731 7.23352 0.17032 7.71913C0.134787 7.89562 0.105137 8.06995 0.0805969 8.24096L3.7588 11.9192C3.93018 11.8946 4.10412 11.865 4.28101 11.8295C4.76624 11.7321 5.25622 11.5933 5.73414 11.4197L0.580098 6.26562Z" fill="#E6E9ED"></path><path d="M11.4199 5.73413C11.5939 5.25605 11.7323 4.76607 11.8297 4.28084C11.8652 4.10414 11.8952 3.93001 11.9194 3.759L8.24121 0.0805664C8.0702 0.104919 7.89589 0.134757 7.71935 0.17029C7.23414 0.267701 6.74376 0.406317 6.26587 0.580255L11.4199 5.73413Z" fill="#E6E9ED"></path><path opacity="0.1" d="M10.9519 6.822C11.3525 6.02295 11.6561 5.14421 11.8297 4.28069C12.1626 2.62379 11.9989 1.17413 11.4122 0.587461C11.3554 0.530505 11.2903 0.477581 11.2174 0.428711C11.6722 1.10419 11.777 2.43114 11.4763 3.92712C11.3027 4.79064 10.9992 5.66936 10.5981 6.46822C10.1396 7.3819 9.5603 8.19199 8.87622 8.87604C8.19212 9.56015 7.38208 10.1395 6.46839 10.598C5.6697 10.999 4.79079 11.3026 3.92727 11.4761C2.4313 11.7768 1.10453 11.6724 0.428864 11.2172C0.477944 11.2901 0.531033 11.3553 0.587801 11.4121C1.17447 11.9987 2.62394 12.1624 4.28103 11.8295C5.14455 11.6559 6.02308 11.3524 6.82215 10.9517C7.73549 10.4932 8.54553 9.91388 9.22998 9.2298C9.91406 8.54537 10.4934 7.73533 10.9519 6.822Z" fill="#080808"></path></g><defs><clipPath id="clip0_5584_85"><rect width="12" height="12" fill="white"></rect></clipPath></defs></svg>