<svg xmlns="http://www.w3.org/2000/svg" width="12" height="12" viewBox="0 0 12 12" fill="none" class="sh-img " alt=""><g clip-path="url(#clip0_93_3592)"><path d="M6 7.5C6.82845 7.5 7.5 6.82845 7.5 6C7.5 5.17155 6.82845 4.5 6 4.5C5.17155 4.5 4.5 5.17155 4.5 6C4.5 6.82845 5.17155 7.5 6 7.5Z" stroke="white" stroke-miterlimit="10" stroke-linecap="round" stroke-linejoin="round"></path><path d="M1 6.43995V5.55995C1 5.03995 1.425 4.60997 1.95 4.60997C2.855 4.60997 3.225 3.96997 2.77 3.18497C2.51 2.73497 2.665 2.14997 3.12 1.88997L3.985 1.39497C4.38 1.15997 4.89 1.29997 5.125 1.69497L5.18 1.78997C5.63 2.57497 6.37 2.57497 6.825 1.78997L6.88 1.69497C7.115 1.29997 7.625 1.15997 8.02 1.39497L8.885 1.88997C9.34 2.14997 9.495 2.73497 9.235 3.18497C8.78 3.96997 9.15 4.60997 10.055 4.60997C10.575 4.60997 11.005 5.03495 11.005 5.55995V6.43995C11.005 6.95995 10.58 7.38995 10.055 7.38995C9.15 7.38995 8.78 8.02995 9.235 8.81495C9.495 9.26995 9.34 9.84995 8.885 10.1099L8.02 10.6049C7.625 10.8399 7.115 10.6999 6.88 10.3049L6.825 10.2099C6.375 9.42495 5.635 9.42495 5.18 10.2099L5.125 10.3049C4.89 10.6999 4.38 10.8399 3.985 10.6049L3.12 10.1099C2.665 9.84995 2.51 9.26495 2.77 8.81495C3.225 8.02995 2.855 7.38995 1.95 7.38995C1.425 7.38995 1 6.95995 1 6.43995Z" stroke="white" stroke-miterlimit="10" stroke-linecap="round" stroke-linejoin="round"></path></g><defs><clipPath id="clip0_93_3592"><rect width="12" height="12" fill="white"></rect></clipPath></defs></svg>