<svg xmlns="http://www.w3.org/2000/svg" fill="none" viewBox="4 4 12 12" class="sh-img" alt=""><rect width="20" height="20" rx="10" fill=""></rect><g clip-path="url(#clip0_4576_1405)"><path d="M13.7833 5.21654C12.9985 4.43212 11.9347 4 10.7873 4C10.1721 4 9.56545 4.1223 8.98447 4.36328C8.38425 4.61229 7.84263 4.97594 7.37444 5.44395C6.49056 6.32761 5.97897 7.47899 5.93373 8.68602C5.88814 9.90001 6.31916 11.0246 7.14718 11.8527C7.93179 12.6371 8.99563 13.0692 10.143 13.0692C10.7584 13.0692 11.3648 12.9473 11.946 12.7063C12.5462 12.4573 13.0879 12.0936 13.5559 11.6256C14.4399 10.7416 14.9515 9.59022 14.9966 8.38317C15.0423 7.16918 14.6113 6.04454 13.7833 5.21654Z" fill="#ED5564"></path><path d="M8.92659 6.07306C9.02419 6.17085 9.02419 6.32903 8.92659 6.42682C8.82899 6.52423 8.67062 6.52423 8.57302 6.42682C8.47542 6.32903 8.47542 6.17085 8.57302 6.07306C8.67062 5.97565 8.82899 5.97565 8.92659 6.07306Z" fill="#DA4453"></path><path d="M9.92653 5.07334C10.0241 5.17075 10.0241 5.32894 9.92653 5.42673C9.82893 5.52451 9.67072 5.52451 9.57296 5.42673C9.47536 5.32894 9.47536 5.17075 9.57296 5.07334C9.67072 4.97555 9.82893 4.97555 9.92653 5.07334Z" fill="#DA4453"></path><path d="M10.9268 6.07306C11.0242 6.17085 11.0242 6.32903 10.9268 6.42682C10.829 6.52423 10.6708 6.52423 10.5731 6.42682C10.4756 6.32903 10.4756 6.17085 10.5731 6.07306C10.6708 5.97565 10.829 5.97565 10.9268 6.07306Z" fill="#DA4453"></path><path d="M11.9266 5.07334C12.0244 5.17075 12.0244 5.32894 11.9266 5.42673C11.8292 5.52451 11.6706 5.52451 11.5732 5.42673C11.4754 5.32894 11.4754 5.17075 11.5732 5.07334C11.6706 4.97555 11.8292 4.97555 11.9266 5.07334Z" fill="#DA4453"></path><path d="M12.9267 6.07306C13.0241 6.17085 13.0241 6.32903 12.9267 6.42682C12.8289 6.52423 12.6707 6.52423 12.5729 6.42682C12.4755 6.32903 12.4755 6.17085 12.5729 6.07306C12.6707 5.97565 12.8289 5.97565 12.9267 6.07306Z" fill="#DA4453"></path><path d="M6.92653 8.07334C7.02413 8.17075 7.02413 8.32896 6.92653 8.42673C6.82893 8.52451 6.67072 8.52451 6.57296 8.42673C6.47536 8.32896 6.47536 8.17075 6.57296 8.07334C6.67072 7.97555 6.82891 7.97555 6.92653 8.07334Z" fill="#DA4453"></path><path d="M7.92665 7.07332C8.02425 7.17111 8.02425 7.32932 7.92665 7.42673C7.82886 7.5245 7.67068 7.5245 7.57308 7.42673C7.47548 7.32932 7.47548 7.17111 7.57308 7.07332C7.67068 6.97556 7.82886 6.97556 7.92665 7.07332Z" fill="#DA4453"></path><path d="M8.92659 8.07334C9.02419 8.17075 9.02419 8.32896 8.92659 8.42673C8.82899 8.52451 8.67062 8.52451 8.57302 8.42673C8.47542 8.32896 8.47542 8.17075 8.57302 8.07334C8.67062 7.97555 8.82899 7.97555 8.92659 8.07334Z" fill="#DA4453"></path><path d="M9.92653 7.07332C10.0241 7.17111 10.0241 7.32932 9.92653 7.42673C9.82893 7.5245 9.67072 7.5245 9.57296 7.42673C9.47536 7.32932 9.47536 7.17111 9.57296 7.07332C9.67072 6.97556 9.82893 6.97556 9.92653 7.07332Z" fill="#DA4453"></path><path d="M10.9268 8.07334C11.0243 8.17075 11.0243 8.32896 10.9268 8.42673C10.8291 8.52451 10.6708 8.52451 10.5731 8.42673C10.4753 8.32896 10.4757 8.17075 10.5731 8.07334C10.6708 7.97555 10.8291 7.97555 10.9268 8.07334Z" fill="#DA4453"></path><path d="M11.9266 7.07332C12.0244 7.17111 12.0244 7.32932 11.9266 7.42673C11.8292 7.5245 11.6706 7.5245 11.5732 7.42673C11.4754 7.32932 11.4754 7.17111 11.5732 7.07332C11.6706 6.97556 11.8292 6.97556 11.9266 7.07332Z" fill="#DA4453"></path><path d="M12.9267 8.07334C13.0241 8.17075 13.0241 8.32896 12.9267 8.42673C12.8289 8.52451 12.6707 8.52451 12.5729 8.42673C12.4755 8.32896 12.4755 8.17075 12.5729 8.07334C12.6707 7.97555 12.8289 7.97555 12.9267 8.07334Z" fill="#DA4453"></path><path d="M13.9268 7.07332C14.0242 7.17111 14.0242 7.32932 13.9268 7.42673C13.8291 7.5245 13.6708 7.5245 13.5731 7.42673C13.4756 7.32932 13.4756 7.17111 13.5731 7.07332C13.6708 6.97556 13.8291 6.97556 13.9268 7.07332Z" fill="#DA4453"></path><path d="M7.92665 9.07306C8.02425 9.17085 8.02425 9.32903 7.92665 9.42682C7.82886 9.52423 7.67068 9.52423 7.57308 9.42682C7.47548 9.32903 7.47548 9.17085 7.57308 9.07306C7.67068 8.97565 7.82886 8.97565 7.92665 9.07306Z" fill="#DA4453"></path><path d="M8.92659 10.0733C9.02419 10.1711 9.02419 10.3293 8.92659 10.4267C8.82899 10.5245 8.67062 10.5245 8.57302 10.4267C8.47542 10.3293 8.47542 10.1711 8.57302 10.0733C8.67062 9.97555 8.82899 9.97555 8.92659 10.0733Z" fill="#DA4453"></path><path d="M9.92653 9.07306C10.0241 9.17085 10.0241 9.32903 9.92653 9.42682C9.82893 9.52423 9.67072 9.52423 9.57296 9.42682C9.47536 9.32903 9.47536 9.17085 9.57296 9.07306C9.67072 8.97565 9.82893 8.97565 9.92653 9.07306Z" fill="#DA4453"></path><path d="M10.9268 10.0733C11.0242 10.1711 11.0242 10.3293 10.9268 10.4267C10.829 10.5245 10.6708 10.5245 10.5731 10.4267C10.4753 10.3293 10.4753 10.1711 10.5731 10.0733C10.6708 9.97555 10.829 9.97555 10.9268 10.0733Z" fill="#DA4453"></path><path d="M11.9266 9.07306C12.0244 9.17085 12.0244 9.32903 11.9266 9.42682C11.8292 9.52423 11.6706 9.52423 11.5732 9.42682C11.4754 9.32903 11.4754 9.17085 11.5732 9.07306C11.6706 8.97565 11.8292 8.97565 11.9266 9.07306Z" fill="#DA4453"></path><path d="M12.9267 10.0733C13.0241 10.1711 13.0241 10.3293 12.9267 10.4267C12.8289 10.5245 12.6707 10.5245 12.5729 10.4267C12.4755 10.3293 12.4755 10.1711 12.5729 10.0733C12.6707 9.97555 12.8289 9.97555 12.9267 10.0733Z" fill="#DA4453"></path><path d="M13.9268 9.07306C14.0242 9.17085 14.0242 9.32903 13.9268 9.42682C13.8291 9.52423 13.6708 9.52423 13.5731 9.42682C13.4756 9.32903 13.4756 9.17085 13.5731 9.07306C13.6708 8.97565 13.8291 8.97565 13.9268 9.07306Z" fill="#DA4453"></path><path d="M9.92653 11.0733C10.0241 11.1707 10.0241 11.3293 9.92653 11.4267C9.82893 11.5245 9.67072 11.5245 9.57296 11.4267C9.47536 11.3293 9.47536 11.1707 9.57296 11.0733C9.67072 10.9756 9.82893 10.9756 9.92653 11.0733Z" fill="#DA4453"></path><path d="M10.9268 12.0731C11.0242 12.1708 11.0242 12.329 10.9268 12.4268C10.829 12.5242 10.6708 12.5242 10.5731 12.4268C10.4753 12.329 10.4753 12.1708 10.5731 12.0731C10.6708 11.9756 10.829 11.9756 10.9268 12.0731Z" fill="#DA4453"></path><path d="M11.9266 11.0733C12.0244 11.1707 12.0244 11.3293 11.9266 11.4267C11.8292 11.5245 11.6706 11.5245 11.5732 11.4267C11.4754 11.3293 11.4754 11.1707 11.5732 11.0733C11.6706 10.9756 11.8292 10.9756 11.9266 11.0733Z" fill="#DA4453"></path><path d="M5.9696 9.44678L6.23329 11.2742L4.09443 13.0382C4.04535 13.0789 4.0135 13.1364 4.00543 13.1993C4.00178 13.2279 3.92321 13.901 4.51098 14.4888C4.97242 14.9499 5.48876 14.9997 5.68927 14.9997C5.7508 14.9997 5.7898 14.9956 5.80023 14.9942C5.86321 14.9861 5.9209 14.9543 5.96138 14.9052L7.72524 12.7665L9.55299 13.0302L5.9696 9.44678Z" fill="#F4BE8E"></path><path opacity="0.2" d="M14.9966 8.38318C15.0423 7.16919 14.6113 6.04458 13.7833 5.21656C13.7243 5.15758 13.6635 5.10082 13.6016 5.0459C14.3169 5.85339 14.6853 6.90295 14.6432 8.0298C14.5977 9.23685 14.0862 10.3882 13.2025 11.2719C12.7341 11.7399 12.1925 12.1035 11.5922 12.3525C11.0115 12.5935 10.405 12.7158 9.7894 12.7158C9.58982 12.7158 9.39279 12.7023 9.19926 12.6767L9.19944 12.677L9.18627 12.6748C9.16337 12.6719 9.14068 12.6686 9.11781 12.6649L7.37171 12.413L5.6078 14.552C5.56732 14.6011 5.50964 14.6326 5.44666 14.6406C5.43623 14.6421 5.39723 14.6465 5.3357 14.6465C5.1623 14.6465 4.75252 14.6091 4.34637 14.3004C4.39454 14.3634 4.44873 14.4268 4.51099 14.489C4.97242 14.9501 5.48876 14.9999 5.68928 14.9999C5.7508 14.9999 5.7898 14.9958 5.80024 14.9944C5.86322 14.9863 5.9209 14.9545 5.96138 14.9054L7.72524 12.7668L9.47133 13.0187C9.49423 13.022 9.51692 13.0253 9.53982 13.0286L9.55299 13.0304H9.55281C9.74634 13.056 9.94337 13.0692 10.1429 13.0692C10.7584 13.0692 11.3648 12.9473 11.946 12.7063C12.5462 12.4573 13.0878 12.0936 13.5559 11.6256C14.4399 10.7416 14.9515 9.59023 14.9966 8.38318Z" fill="white"></path><path d="M14.5 13C13.6727 13 13 13.6727 13 14.5C13 15.3273 13.6727 16 14.5 16C15.3269 16 15.9999 15.3273 15.9999 14.5C15.9999 13.6727 15.3269 13 14.5 13Z" fill="#E6E9ED"></path><path opacity="0.3" d="M14.5 13C14.4578 13 14.4161 13.0018 14.3747 13.0051C15.1437 13.0688 15.7498 13.7148 15.7498 14.5C15.7498 15.2852 15.1437 15.9312 14.3747 15.9949C14.4161 15.9982 14.4578 16 14.5 16C15.3268 16 15.9999 15.3273 15.9999 14.5C15.9999 13.6727 15.3269 13 14.5 13Z" fill="white"></path></g><defs><clipPath id="clip0_4576_1405"><rect width="12" height="12" fill="white" transform="translate(4 4)"></rect></clipPath></defs></svg>