<svg
  xmlns="http://www.w3.org/2000/svg"
  width="12"
  height="12"
  viewBox="0 0 12 12"
  fill="none"
>
  <defs>
    <clipPath id="clip0_93_3535">
      <rect width="12" height="12" fill="white" />
    </clipPath>
  </defs>

  <g clip-path="url(#clip0_93_3535)">
    <path
      fill-rule="evenodd"
      clip-rule="evenodd"
      d="M11.5 2C11.5 1.17157 10.8285 0.5 10 0.5H2C1.17158 0.5 0.5 1.17157 0.5 2V7C0.5 7.82845 1.17158 8.5 2 8.5H2.5C2.77614 8.5 3 8.27615 3 8C3 7.72385 2.77614 7.5 2.5 7.5H2C1.72386 7.5 1.5 7.27615 1.5 7V4H10.5V7C10.5 7.27615 10.2761 7.5 10 7.5H9.5C9.22385 7.5 9 7.72385 9 8C9 8.27615 9.22385 8.5 9.5 8.5H10C10.8285 8.5 11.5 7.82845 11.5 7V2ZM10.5 3V2C10.5 1.72386 10.2761 1.5 10 1.5H2C1.72386 1.5 1.5 1.72385 1.5 2V3H10.5Z"
      fill="white"
    />
    <path
      d="M6.49999 11C6.49999 11.2762 6.27614 11.5 5.99999 11.5C5.72384 11.5 5.49999 11.2762 5.49999 11V8.20345L4.85356 8.8498C4.65828 9.04515 4.34172 9.04515 4.14644 8.8498C3.95119 8.65465 3.95119 8.338 4.14644 8.1428L5.64619 6.64615C5.84149 6.4512 6.15779 6.4514 6.35294 6.6465L7.85249 8.1461C8.04779 8.3414 8.04779 8.65795 7.85249 8.85325C7.65724 9.04845 7.34064 9.04845 7.14539 8.85325L6.49999 8.20785V11Z"
      fill="white"
    />
  </g>
</svg>