<svg xmlns="http://www.w3.org/2000/svg" fill="none" viewBox="12 10 59 59"><defs><filter id="a" x="0" y="0" width="87" height="87" filterUnits="userSpaceOnUse" color-interpolation-filters="sRGB"><feFlood flood-opacity="0" result="BackgroundImageFix"/><feColorMatrix in="SourceAlpha" values="0 0 0 0 0 0 0 0 0 0 0 0 0 0 0 0 0 0 127 0" result="hardAlpha"/><feOffset dx="2" dy="4"/><feGaussianBlur stdDeviation="7"/><feComposite in2="hardAlpha" operator="out"/><feColorMatrix values="0 0 0 0 0.219332 0 0 0 0 0.214193 0 0 0 0 0.22352 0 0 0 0.24 0"/><feBlend in2="BackgroundImageFix" result="effect1_dropShadow_496_54"/><feBlend in="SourceGraphic" in2="effect1_dropShadow_496_54" result="shape"/></filter></defs><g filter="url(#a)"><path d="M42 12c15.464 0 28 12.536 28 28S57.464 68 42 68a27.87 27.87 0 0 1-13.693-3.574L14.76 67.094l3.477-12.281A27.87 27.87 0 0 1 14 40c0-15.464 12.536-28 28-28" fill="#2aa81a"/><path d="M41.5 10C57.792 10 71 23.208 71 39.5S57.792 69 41.5 69c-1.927 0-4.952-.234-7.834-.943-1.443-.356-2.896-.84-4.173-1.503a10.3 10.3 0 0 1-1.973-1.31l-12.705 2.723-2.376.509.609-2.352 3.179-12.265c-1.573-1.864-2.558-4.313-3.175-6.607C12.262 44.32 12 41.362 12 39.5 12 23.208 25.208 10 41.5 10m0 3C26.865 13 15 24.865 15 39.5c0 1.638.237 4.33.948 6.973.724 2.69 1.868 5.059 3.49 6.356l-.36.45.374.097-2.89 11.147 11.624-2.49.094.445.468-.31c.41.615 1.118 1.2 2.127 1.723 1 .518 2.21.933 3.509 1.253 2.6.64 5.377.856 7.116.856C56.136 66 68 54.136 68 39.5S56.136 13 41.5 13" fill="#fff"/><path d="M30.931 37.5v-1.12l2.627-2.438q.336-.322.565-.58.227-.262.347-.51.119-.253.119-.546 0-.327-.15-.56a1 1 0 0 0-.4-.361 1.26 1.26 0 0 0-.58-.13q-.338 0-.59.14a.93.93 0 0 0-.392.391q-.133.252-.133.61h-1.487q0-.729.327-1.26.331-.534.922-.827.594-.292 1.367-.292.789 0 1.378.282.59.278.917.773.327.491.327 1.135 0 .417-.163.823-.165.4-.58.902-.417.495-1.18 1.184l-1.08 1.056v.054h3.102V37.5zm5.798-1.298v-1.224l3.078-4.862h1.06v1.705h-.629l-1.943 3.072v.06h4.386v1.249zm3.539 1.298v-1.67l.03-.55v-5.164h1.466V37.5zm6.18 11.841 3.057-6.056v-.05h-3.563v-1.278h5.184v1.298l-3.063 6.086z" fill="#fff"/><path stroke="#fff" stroke-width=".779" d="M49.647 33.183 36.114 46.716"/><path d="M38.706 22.28a2.86 2.86 0 0 1-1.534-.309 2.8 2.8 0 0 1-1.121-1.087q-.43-.73-.495-1.77-.067-1.048.267-1.822.338-.78.975-1.224a2.86 2.86 0 0 1 1.483-.499 3.1 3.1 0 0 1 .98.088q.465.12.842.382.378.263.637.66.263.398.374.914l-.99.063a1.5 1.5 0 0 0-.251-.548 1.5 1.5 0 0 0-.408-.388 1.6 1.6 0 0 0-.52-.222 2 2 0 0 0-.593-.05q-.562.035-.995.348-.43.31-.654.878-.22.566-.17 1.358.051.8.344 1.33.294.528.759.78.465.253 1.022.218.311-.021.582-.12.271-.102.489-.283a1.52 1.52 0 0 0 .54-.998l.991-.063q-.044.491-.246.91a2.5 2.5 0 0 1-.54.73 2.7 2.7 0 0 1-.782.502 3 3 0 0 1-.986.221m10.556-5.472.934.326-1.42 4.066q-.225.649-.708 1.042a2.24 2.24 0 0 1-1.128.486q-.65.09-1.393-.17-.739-.257-1.196-.734a2.27 2.27 0 0 1-.585-1.084 2.3 2.3 0 0 1 .098-1.255l1.42-4.066.933.326-1.393 3.992q-.147.42-.079.81.074.389.35.694.278.307.747.471.473.165.879.097.405-.067.7-.328.301-.262.448-.681zm2.414 8.456q-.55-.484-.807-1.012a1.95 1.95 0 0 1-.193-1.053q.057-.524.422-.993l.746.656q-.211.288-.22.596 0 .309.164.606.166.298.453.55a2 2 0 0 0 .648.394q.336.119.63.062a.9.9 0 0 0 .514-.298.68.68 0 0 0 .187-.467q0-.246-.133-.52a4 4 0 0 0-.334-.58l-.438-.666q-.456-.681-.523-1.296-.066-.618.384-1.13a1.65 1.65 0 0 1 .88-.543 2 2 0 0 1 1.057.056 2.85 2.85 0 0 1 1.044.602q.502.44.726.952.229.512.18 1.013a1.6 1.6 0 0 1-.377.903l-.72-.632a.94.94 0 0 0 .147-.807q-.108-.43-.535-.803a1.8 1.8 0 0 0-.605-.362 1.06 1.06 0 0 0-.57-.044.84.84 0 0 0-.452.275.7.7 0 0 0-.189.501q.017.273.147.538.136.266.28.487l.366.549q.183.265.343.582t.23.664q.075.347-.004.698-.075.35-.367.684-.363.413-.864.55-.5.136-1.07-.033-.57-.17-1.147-.679m8.423-.306.75-.398 2.38 4.478-.75.398-.956-1.8-5.034 2.674-.461-.869 5.032-2.675zm-1.52 11.057a2.86 2.86 0 0 1 .252-1.544q.337-.705 1.046-1.164.715-.46 1.75-.563 1.045-.104 1.831.206a2.8 2.8 0 0 1 1.26.935q.468.624.551 1.464a2.86 2.86 0 0 1-.252 1.549 2.8 2.8 0 0 1-1.05 1.155q-.71.459-1.755.564-1.041.104-1.827-.207a2.8 2.8 0 0 1-1.254-.926 2.86 2.86 0 0 1-.552-1.47m.896-.09q.056.565.38.979.324.413.896.613.572.203 1.364.124.796-.078 1.317-.391.525-.309.761-.778.235-.47.18-1.034a1.86 1.86 0 0 0-.38-.978q-.324-.414-.9-.617-.573-.203-1.369-.124-.791.078-1.312.391-.521.312-.757.782-.235.474-.18 1.034m6.205 6.696-.402 1.135-5.492.268-.025.07 4.103 3.665-.407 1.152-6.174-2.182.322-.912 4.467 1.579.02-.058-3.812-3.403.26-.738 5.101-.229.02-.058-4.47-1.58.315-.891zm-8.727 6.021 4.804 4.45-2.792 3.014-.622-.576 2.12-2.289-1.448-1.34-1.97 2.127-.62-.573 1.971-2.128-1.492-1.383-2.142 2.312-.622-.577zm-4.086 4.753 2.937 5.852-2.09 1.049q-.68.34-1.246.33a1.73 1.73 0 0 1-.997-.312q-.43-.3-.702-.842a2.16 2.16 0 0 1-.25-1.055 1.7 1.7 0 0 1 .359-.971q.335-.45 1.019-.791l1.575-.79.378.753-1.492.75q-.436.218-.64.478a.9.9 0 0 0-.214.554q-.009.295.156.625.168.334.414.51.248.18.584.174.334 0 .77-.219l1.111-.558-2.556-5.094zm-3.33 1.67 2.744 1.933-.978.49-2.772-1.918zm-8.627 1.92q.728.097 1.234.394.502.3.745.767.244.466.202 1.06l-.984-.13q.015-.357-.15-.618a1.2 1.2 0 0 0-.473-.413 2.1 2.1 0 0 0-.682-.205 2 2 0 0 0-.758.034q-.344.087-.558.298a.9.9 0 0 0-.26.533.68.68 0 0 0 .103.493q.137.204.4.358.264.159.6.297l.735.309q.757.312 1.155.786.397.478.31 1.153a1.65 1.65 0 0 1-.43.941 2 2 0 0 1-.91.54q-.554.168-1.203.082a2.7 2.7 0 0 1-1.132-.389 2 2 0 0 1-.713-.741 1.6 1.6 0 0 1-.189-.96l.95.125a.94.94 0 0 0 .327.752q.329.296.89.37.393.052.706-.035a1.06 1.06 0 0 0 .497-.28.84.84 0 0 0 .223-.48.7.7 0 0 0-.122-.522 1.4 1.4 0 0 0-.421-.366 5 5 0 0 0-.504-.248l-.61-.253q-.298-.12-.608-.293a2.6 2.6 0 0 1-.56-.424 1.6 1.6 0 0 1-.384-.583 1.5 1.5 0 0 1-.076-.772q.072-.544.412-.939.34-.39.908-.567.568-.174 1.33-.073m-11.168 3.426-.858-.491 2.14-3.737q.34-.595.887-.895.54-.299 1.199-.271.655.03 1.338.422.68.39 1.041.94.357.554.377 1.174.014.621-.327 1.215l-2.14 3.738-.858-.492 2.101-3.668q.22-.385.225-.783 0-.396-.215-.746a1.8 1.8 0 0 0-.65-.6 1.8 1.8 0 0 0-.845-.256 1.4 1.4 0 0 0-.75.194 1.57 1.57 0 0 0-.564.588zm.428-6.985-5.134 4.064-1.45-1.833q-.473-.596-.563-1.163-.094-.565.13-1.061.22-.494.692-.868t1.006-.477q.532-.1 1.066.12.528.222 1.002.821l.993 1.254-.655.519-.935-1.182q-.303-.383-.62-.513a1 1 0 0 0-.63-.061 1.5 1.5 0 0 0-.608.301 1.5 1.5 0 0 0-.43.52.98.98 0 0 0-.082.625q.06.34.364.722l.772.975 4.469-3.538zm-4.244-4.958-6.253 1.94-.693-2.232q-.225-.727-.105-1.288.116-.56.503-.943.384-.38.958-.56a2.3 2.3 0 0 1 1.111-.082q.532.097.95.496.414.397.64 1.127l.474 1.528-.798.247-.446-1.44q-.145-.465-.393-.701a1 1 0 0 0-.567-.284 1.5 1.5 0 0 0-.675.062 1.5 1.5 0 0 0-.588.33.98.98 0 0 0-.302.553q-.066.339.08.804l.368 1.188 5.443-1.69zm-1.841-8.744a2.86 2.86 0 0 1-.537 1.47q-.46.63-1.244.949-.787.318-1.825.226-1.046-.093-1.76-.544a2.8 2.8 0 0 1-1.063-1.153 2.86 2.86 0 0 1-.269-1.542q.076-.85.537-1.474a2.8 2.8 0 0 1 1.248-.94q.782-.319 1.829-.226 1.041.093 1.756.544.715.448 1.059 1.144.344.697.269 1.546m-.898-.08q.05-.564-.19-1.031-.241-.467-.766-.77-.525-.306-1.317-.377-.795-.07-1.367.14-.573.205-.893.622a1.85 1.85 0 0 0-.37.982q-.049.56.192 1.031.24.468.77.775.524.306 1.32.377.792.07 1.362-.14t.89-.626q.32-.423.37-.982m.943-4.725-5.812-3.016 1.077-2.075q.35-.675.815-.998a1.73 1.73 0 0 1 .99-.333q.525-.01 1.063.27.53.275.82.707.29.433.28.997-.007.56-.36 1.239l-.812 1.564-.749-.389.77-1.482q.224-.433.237-.763a.9.9 0 0 0-.153-.574q-.165-.244-.493-.414a1.36 1.36 0 0 0-.634-.171.93.93 0 0 0-.575.202q-.27.195-.495.629l-.573 1.104 5.06 2.625zm1.716-3.308-3.355.046.503-.971 3.37-.074zm-2.89-6.759-.604-.594 3.554-3.617.605.594-1.429 1.455 4.065 3.995-.69.702-4.065-3.995z" fill="#fff"/></g></svg>