<svg width="20" height="20" viewBox="0 0 20 20" fill="none" xmlns="http://www.w3.org/2000/svg">
<rect width="20" height="20" rx="10" fill="#B73380"/>
<g clip-path="url(#clip0_93_2006)">
<path fill-rule="evenodd" clip-rule="evenodd" d="M12.5608 4.93517C11.8785 4.25289 10.7388 4.38293 10.2278 5.20136L8.80517 7.47963C8.80517 7.47963 8.80443 7.48089 8.80176 7.4828C8.7985 7.48513 8.79154 7.48916 8.77987 7.49245C8.75436 7.49963 8.72103 7.49908 8.69127 7.48805C8.20573 7.30805 7.37228 7.11031 6.50681 7.43631C6.04052 7.61194 5.80784 8.01616 5.78249 8.42627C5.7583 8.81756 5.91633 9.2198 6.20699 9.51045L7.97474 11.2782L4.63473 14.6182C4.43947 14.8135 4.43947 15.1301 4.63473 15.3254C4.82999 15.5206 5.14657 15.5206 5.34183 15.3254L8.68185 11.9853L10.4496 13.7531C10.7403 14.0438 11.1425 14.2018 11.5338 14.1776C11.9439 14.1523 12.3482 13.9196 12.5238 13.4533C12.8498 12.5878 12.652 11.7544 12.4721 11.2688C12.461 11.2391 12.4605 11.2058 12.4676 11.1802C12.4709 11.1686 12.475 11.1616 12.4773 11.1583C12.4792 11.1557 12.4804 11.155 12.4804 11.155L14.7587 9.7323C15.5772 9.22125 15.7072 8.08159 15.0249 7.39932L12.5608 4.93517ZM11.076 5.73101C11.2464 5.4582 11.6263 5.41485 11.8537 5.64228L14.3178 8.10642C14.5452 8.33385 14.5019 8.71374 14.2291 8.88408L11.9508 10.3067C11.4785 10.6017 11.3733 11.1819 11.5344 11.6164C11.6773 12.0019 11.7913 12.5609 11.588 13.1008C11.5741 13.1377 11.5586 13.151 11.5491 13.1575C11.537 13.1659 11.5132 13.177 11.4721 13.1795C11.3834 13.185 11.2566 13.1459 11.1567 13.046L6.91409 8.80335C6.81422 8.70348 6.77509 8.57672 6.78058 8.48797C6.78312 8.4469 6.79425 8.42308 6.8026 8.41096C6.80914 8.40148 6.82244 8.386 6.85929 8.37212C7.39921 8.16876 7.95817 8.28278 8.34367 8.42569C8.7782 8.58678 9.35841 8.48164 9.65341 8.00928L11.076 5.73101Z" fill="white"/>
</g>
<defs>
<clipPath id="clip0_93_2006">
<rect width="12" height="12" fill="white" transform="translate(4 4)"/>
</clipPath>
</defs>
</svg>
