<svg width="20" height="20" viewBox="0 0 20 20" fill="none" xmlns="http://www.w3.org/2000/svg">
<rect width="20" height="20" rx="10" fill="#01FAFE"/>
<g clip-path="url(#clip0_80_17256)">
<path fill-rule="evenodd" clip-rule="evenodd" d="M12.5608 4.93512C11.8785 4.25284 10.7388 4.38288 10.2278 5.20131L8.80517 7.47958C8.80517 7.47958 8.80443 7.48083 8.80176 7.48274C8.7985 7.48508 8.79154 7.48911 8.77987 7.4924C8.75436 7.49958 8.72103 7.49902 8.69127 7.48799C8.20573 7.308 7.37228 7.11026 6.50681 7.43625C6.04052 7.61189 5.80784 8.01611 5.78249 8.42622C5.7583 8.81751 5.91633 9.21975 6.20699 9.5104L7.97474 11.2782L4.63473 14.6181C4.43947 14.8134 4.43947 15.13 4.63473 15.3253C4.82999 15.5205 5.14657 15.5205 5.34183 15.3253L8.68185 11.9852L10.4496 13.753C10.7403 14.0437 11.1425 14.2017 11.5338 14.1775C11.9439 14.1522 12.3482 13.9195 12.5238 13.4532C12.8498 12.5877 12.652 11.7543 12.4721 11.2688C12.461 11.239 12.4605 11.2057 12.4676 11.1802C12.4709 11.1685 12.475 11.1616 12.4773 11.1582C12.4792 11.1556 12.4804 11.1549 12.4804 11.1549L14.7587 9.73225C15.5772 9.2212 15.7072 8.08154 15.0249 7.39927L12.5608 4.93512ZM11.076 5.73096C11.2464 5.45815 11.6263 5.4148 11.8537 5.64223L14.3178 8.10637C14.5452 8.3338 14.5019 8.71369 14.2291 8.88403L11.9508 10.3067C11.4785 10.6016 11.3733 11.1819 11.5344 11.6164C11.6773 12.0019 11.7913 12.5608 11.588 13.1007C11.5741 13.1376 11.5586 13.1509 11.5491 13.1574C11.537 13.1658 11.5132 13.1769 11.4721 13.1794C11.3834 13.1849 11.2566 13.1458 11.1567 13.0459L6.91409 8.8033C6.81422 8.70343 6.77509 8.57666 6.78058 8.48792C6.78312 8.44685 6.79425 8.42302 6.8026 8.4109C6.80914 8.40142 6.82244 8.38595 6.85929 8.37207C7.39921 8.1687 7.95817 8.28273 8.34367 8.42564C8.7782 8.58673 9.35841 8.48159 9.65341 8.00922L11.076 5.73096Z" fill="#071123"/>
</g>
<defs>
<clipPath id="clip0_80_17256">
<rect width="12" height="12" fill="white" transform="translate(4 4)"/>
</clipPath>
</defs>
</svg>
