<svg width="28" height="28" viewBox="0 0 28 28" fill="none" xmlns="http://www.w3.org/2000/svg">
<path d="M14 14.2998V28C6.3682 28 0.163445 21.8934 0.00390625 14.2998H14ZM27.9961 14.2998C27.8401 21.7268 21.901 27.7294 14.5 27.9893V14.2998H27.9961ZM7.50586 16.4541V23H8.49414V16.4541H7.50586ZM16.8574 16.4541V23H17.8447V18.1992H17.9053L21.2324 23H22.1406V16.4541H21.1621V21.2617H21.1016L17.7715 16.4541H16.8574ZM14.5 0.00976562C21.9341 0.270739 27.8923 6.32694 27.9971 13.7998H14.5V0.00976562ZM14 13.7998H0.00292969C0.110021 6.16012 6.33486 0 14 0V13.7998ZM8.06055 4.36523C7.62167 4.36523 7.22733 4.44393 6.87793 4.60156C6.5285 4.7571 6.25142 4.97559 6.04688 5.25684C5.84238 5.53803 5.74027 5.8671 5.74023 6.24414C5.74023 6.70011 5.89258 7.06676 6.19727 7.34375C6.50406 7.62067 6.91931 7.8309 7.44336 7.97363L8.2168 8.18457C8.45117 8.24636 8.66131 8.31747 8.84668 8.39844C9.03413 8.4794 9.18237 8.58152 9.29102 8.70508C9.4018 8.82866 9.45703 8.98775 9.45703 9.18164C9.457 9.39463 9.39423 9.58145 9.26855 9.74121C9.14292 9.8987 8.97018 10.0219 8.75098 10.1113C8.53365 10.1987 8.28498 10.2422 8.00586 10.2422C7.75236 10.2422 7.51869 10.2054 7.30566 10.1309C7.09486 10.0542 6.92146 9.93769 6.78516 9.78223C6.651 9.62463 6.57391 9.42775 6.55469 9.19141H5.56445C5.58581 9.58537 5.69712 9.92634 5.89941 10.2139C6.10178 10.4993 6.3824 10.7195 6.74023 10.875C7.09819 11.0305 7.52264 11.1084 8.0127 11.1084C8.52384 11.1084 8.95936 11.0255 9.31934 10.8594C9.68155 10.6932 9.95783 10.4664 10.1475 10.1787C10.3392 9.89116 10.4345 9.562 10.4346 9.19141C10.4346 8.89737 10.376 8.64453 10.2588 8.43359C10.1438 8.22285 9.99296 8.046 9.80566 7.90332C9.61824 7.76062 9.41468 7.64496 9.19531 7.55762C8.97596 7.4703 8.76144 7.40171 8.55273 7.35059L7.91309 7.18359C7.78533 7.15164 7.65206 7.11147 7.51367 7.0625C7.37527 7.01139 7.2454 6.94854 7.12402 6.87402C7.00479 6.79737 6.90756 6.70267 6.83301 6.58984C6.76056 6.47692 6.72461 6.34206 6.72461 6.18652C6.72466 6.00134 6.7774 5.83618 6.88379 5.69141C6.99236 5.54451 7.14504 5.42976 7.34082 5.34668C7.53684 5.26145 7.76962 5.21875 8.03809 5.21875C8.41303 5.21877 8.72455 5.3024 8.97168 5.4707C9.21865 5.63686 9.35945 5.87143 9.39355 6.17383H10.3457C10.3372 5.82254 10.2348 5.51165 10.0391 5.24121C9.84308 4.96854 9.57421 4.75416 9.2334 4.59863C8.89468 4.44312 8.50364 4.36526 8.06055 4.36523ZM17.7305 4.4541V11H18.7188V8.96387L19.4922 8.0752L21.6074 11H22.7969L20.1475 7.40137L22.7871 4.4541H21.5439L18.7979 7.58008H18.7188V4.4541H17.7305Z" fill="white"/>
</svg>
