<svg xmlns="http://www.w3.org/2000/svg" width="30" height="30" viewBox="0 0 50 30" fill="none"><path d="M49.973 22.711c-.124-2.865-.623-6.04-1.37-9.03-.747-2.865-1.681-5.543-2.802-7.598-4.36-7.66-9.093-6.477-14.76-4.982-1.806.436-3.737.934-5.73 1.121h-.622c-1.993-.187-3.924-.685-5.73-1.121C13.292-.331 8.56-1.577 4.2 6.145c-1.12 2.056-2.117 4.734-2.802 7.598-.747 2.99-1.246 6.166-1.37 9.03-.125 3.177.187 5.48.872 7.1q1.027 2.242 2.99 2.802c1.182.312 2.552.187 3.985-.435 2.429-.997 5.231-3.114 7.971-5.668 1.93-1.868 5.543-2.802 9.155-2.802s7.224.934 9.155 2.802c2.74 2.554 5.542 4.671 7.971 5.668 1.433.56 2.803.747 3.986.435 1.245-.373 2.304-1.245 2.99-2.864.684-1.557.996-3.861.871-7.1m-2.99 6.228c-.373.872-.871 1.37-1.494 1.557-.685.187-1.557.062-2.553-.312-2.18-.872-4.733-2.802-7.224-5.169-2.367-2.366-6.54-3.55-10.712-3.55-4.173 0-8.345 1.184-10.774 3.426-2.553 2.366-5.107 4.36-7.224 5.169-.997.373-1.868.56-2.553.311-.623-.187-1.121-.685-1.495-1.557-.498-1.183-.747-3.113-.623-5.978a43 43 0 0 1 1.308-8.594c.685-2.679 1.557-5.17 2.616-7.038 3.425-6.165 7.41-5.169 12.144-3.923 1.93.498 3.923.996 6.103 1.183h.934c2.242-.187 4.235-.685 6.165-1.183 4.733-1.184 8.72-2.242 12.144 3.923 1.06 1.868 1.931 4.297 2.616 7.038.685 2.864 1.183 5.854 1.308 8.594.124 2.865-.125 4.795-.685 6.103" fill="currentColor"/><path d="M19.27 10.567c-.622-.56-1.37-.996-2.241-1.059a3.54 3.54 0 0 0-.997-2.18l-.062-.062a3.53 3.53 0 0 0-2.554-1.058 3.68 3.68 0 0 0-2.553 1.058c-.56.56-.996 1.37-1.059 2.242-.872.063-1.619.436-2.242.997l-.062.062a3.53 3.53 0 0 0-1.059 2.553c0 .997.436 1.931 1.06 2.554.622.623 1.37.996 2.303 1.059.063.871.436 1.681 1.06 2.241a3.53 3.53 0 0 0 2.552 1.06c.997 0 1.931-.437 2.554-1.06.56-.622.996-1.37 1.059-2.241.871-.063 1.681-.436 2.241-1.06a3.53 3.53 0 0 0 1.06-2.553c0-.996-.437-1.93-1.06-2.553m-1.556 3.488q-.374.373-.935.373h-.871c-.623 0-1.184.498-1.184 1.183v.81q0 .56-.373.934-.374.375-.935.374-.56 0-.934-.374-.373-.373-.373-.934v-.872c0-.623-.499-1.183-1.184-1.183h-.872q-.56 0-.934-.374a1.26 1.26 0 0 1-.373-.872q0-.56.373-.934l.063-.062c.249-.187.56-.311.871-.311h.872c.623 0 1.184-.499 1.184-1.184v-.872q0-.56.373-.934.374-.373.934-.373t.935.373l.062.063c.187.249.311.56.311.871v.872c0 .623.498 1.184 1.184 1.184h.871q.561 0 .935.373.373.374.373.934t-.373.935m18.122-3.177a2.18 2.18 0 1 0 0-4.359 2.18 2.18 0 0 0 0 4.36m0 8.843a2.18 2.18 0 1 0 0-4.36 2.18 2.18 0 0 0 0 4.36M31.415 15.3a2.18 2.18 0 1 0 0-4.36 2.18 2.18 0 0 0 0 4.36m8.843 0a2.18 2.18 0 1 0 0-4.36 2.18 2.18 0 0 0 0 4.36" fill="currentColor"/></svg>