<svg xmlns="http://www.w3.org/2000/svg" width="16" height="16" viewBox="0 0 16 16" fill="none"><g clip-path="url(#a)"><path fill-rule="evenodd" clip-rule="evenodd" d="M12.525 12.525a6.41 6.41 0 0 1-9.05 0 6.41 6.41 0 0 1 0-9.051l.035-.035 9.05 9.05zm1.519.716A8 8 0 0 0 15.3 4.724a7.4 7.4 0 0 0-1.61-2.417A7.4 7.4 0 0 0 11.275.698a8.005 8.005 0 0 0-8.896 1.61l-.035.034a8 8 0 0 0 11.314 11.314l.035-.036q.183-.182.352-.38" fill="#fff"/></g><defs><clipPath id="a"><path fill="#fff" d="M0 0h16v16H0z"/></clipPath></defs></svg>