<svg width="12" height="12" viewBox="0 0 12 12" fill="none" class="report-img"><path d="M3.06956 3.24381C3.33242 3.02098 3.51054 2.71444 3.57398 2.37573C3.63741 2.03703 3.58229 1.6868 3.41788 1.38395C3.25347 1.0811 2.9898 0.844098 2.6712 0.712785C2.3526 0.581472 1.99851 0.56386 1.66845 0.662912C1.3384 0.761963 1.05251 0.971636 0.85886 1.25668C0.665211 1.54172 0.57561 1.88474 0.605123 2.22807C0.634635 2.57141 0.781461 2.89411 1.02091 3.14192C1.26037 3.38973 1.57784 3.54754 1.91996 3.58881L2.39276 5.16321C1.93048 5.40084 1.53086 5.7443 1.22646 6.16563C0.92207 6.58695 0.721505 7.07423 0.641108 7.58775C0.560711 8.10128 0.602756 8.62653 0.763817 9.12073C0.924879 9.61493 1.2004 10.0641 1.56794 10.4316C1.93548 10.7992 2.38465 11.0747 2.87884 11.2358C3.37304 11.3968 3.8983 11.4389 4.41182 11.3585C4.92535 11.2781 5.41262 11.0775 5.83394 10.7731C6.25527 10.4687 6.59874 10.0691 6.83636 9.60681L8.41076 10.079C8.45191 10.4212 8.60963 10.7387 8.85739 10.9783C9.10515 11.2178 9.42784 11.3647 9.77119 11.3943C10.1145 11.4239 10.4576 11.3344 10.7427 11.1408C11.0278 10.9472 11.2376 10.6613 11.3367 10.3313C11.4358 10.0012 11.4182 9.64706 11.2869 9.32842C11.1556 9.00979 10.9186 8.74608 10.6157 8.58164C10.3129 8.41721 9.96262 8.36208 9.62388 8.42552C9.28515 8.48897 8.97859 8.66712 8.75576 8.93001L7.18076 8.45721C7.26801 7.67102 7.0686 6.87975 6.61916 6.22881L9.35156 3.49641C9.67236 3.6223 10.0267 3.63388 10.3551 3.52922C10.6834 3.42455 10.9657 3.21002 11.1545 2.9217C11.3432 2.63338 11.427 2.28885 11.3916 1.94605C11.3562 1.60325 11.2038 1.2831 10.9602 1.03941C10.7165 0.795731 10.3963 0.643388 10.0535 0.608002C9.71072 0.572616 9.3662 0.656346 9.07787 0.845111C8.78955 1.03388 8.57502 1.31616 8.47035 1.6445C8.36569 1.97284 8.37727 2.32721 8.50316 2.64801L5.77076 5.38041C5.1198 4.93103 4.32855 4.73161 3.54236 4.81881L3.06956 3.24381ZM5.99996 8.09961C5.99996 8.37539 5.94564 8.64846 5.84011 8.90325C5.73457 9.15803 5.57989 9.38953 5.38488 9.58454C5.18988 9.77954 4.95838 9.93423 4.70359 10.0398C4.44881 10.1453 4.17574 10.1996 3.89996 10.1996C3.62418 10.1996 3.35111 10.1453 3.09632 10.0398C2.84154 9.93423 2.61004 9.77954 2.41504 9.58454C2.22003 9.38953 2.06535 9.15803 1.95981 8.90325C1.85428 8.64846 1.79996 8.37539 1.79996 8.09961C1.79996 7.54266 2.02121 7.00852 2.41504 6.61469C2.80886 6.22086 3.343 5.99961 3.89996 5.99961C4.45691 5.99961 4.99106 6.22086 5.38488 6.61469C5.77871 7.00852 5.99996 7.54266 5.99996 8.09961Z" fill="currentColor"></path></svg>