<svg width="12" height="12" viewBox="0 0 12 12" fill="none" class="report-img"><path d="M2 8.5V9.5H10V8.5H2ZM2 3H3.1C3.05833 2.925 3.03125 2.84583 3.01875 2.7625C3.00625 2.67917 3 2.59167 3 2.5C3 2.08333 3.14583 1.72917 3.4375 1.4375C3.72917 1.14583 4.08333 1 4.5 1C4.75 1 4.98125 1.06458 5.19375 1.19375C5.40625 1.32292 5.59167 1.48333 5.75 1.675L6 2L6.25 1.675C6.4 1.475 6.58333 1.3125 6.8 1.1875C7.01667 1.0625 7.25 1 7.5 1C7.91667 1 8.27083 1.14583 8.5625 1.4375C8.85417 1.72917 9 2.08333 9 2.5C9 2.59167 8.99375 2.67917 8.98125 2.7625C8.96875 2.84583 8.94167 2.925 8.9 3H10C10.275 3 10.5104 3.09792 10.7063 3.29375C10.9021 3.48958 11 3.725 11 4V9.5C11 9.775 10.9021 10.0104 10.7063 10.2063C10.5104 10.4021 10.275 10.5 10 10.5H2C1.725 10.5 1.48958 10.4021 1.29375 10.2063C1.09792 10.0104 1 9.775 1 9.5V4C1 3.725 1.09792 3.48958 1.29375 3.29375C1.48958 3.09792 1.725 3 2 3ZM2 7H10V4H7.45L8.5 5.425L7.7 6L6 3.7L4.3 6L3.5 5.425L4.525 4H2V7ZM4.5 3C4.64167 3 4.76042 2.95208 4.85625 2.85625C4.95208 2.76042 5 2.64167 5 2.5C5 2.35833 4.95208 2.23958 4.85625 2.14375C4.76042 2.04792 4.64167 2 4.5 2C4.35833 2 4.23958 2.04792 4.14375 2.14375C4.04792 2.23958 4 2.35833 4 2.5C4 2.64167 4.04792 2.76042 4.14375 2.85625C4.23958 2.95208 4.35833 3 4.5 3ZM7.5 3C7.64167 3 7.76042 2.95208 7.85625 2.85625C7.95208 2.76042 8 2.64167 8 2.5C8 2.35833 7.95208 2.23958 7.85625 2.14375C7.76042 2.04792 7.64167 2 7.5 2C7.35833 2 7.23958 2.04792 7.14375 2.14375C7.04792 2.23958 7 2.35833 7 2.5C7 2.64167 7.04792 2.76042 7.14375 2.85625C7.23958 2.95208 7.35833 3 7.5 3Z" fill="currentColor"></path></svg>