<svg width="25" height="25" viewBox="0 0 25 25" fill="none" class="mh-img"><g clip-path="url(#clip0_124_3880)"><path d="M12.5 19C16.366 19 19.5 15.866 19.5 12C19.5 8.13401 16.366 5 12.5 5C8.63401 5 5.5 8.13401 5.5 12C5.5 15.866 8.63401 19 12.5 19Z" stroke="currentColor" stroke-width="1.70455" stroke-miterlimit="10" stroke-linecap="round" stroke-linejoin="round"></path><path d="M12.5 23.4375C18.5406 23.4375 23.4375 18.5406 23.4375 12.5C23.4375 6.45939 18.5406 1.5625 12.5 1.5625C6.45939 1.5625 1.5625 6.45939 1.5625 12.5C1.5625 18.5406 6.45939 23.4375 12.5 23.4375Z" stroke="currentColor" stroke-width="1.70455" stroke-miterlimit="10" stroke-linecap="round" stroke-linejoin="round"></path><path d="M12.5 1.5625V4.6875" stroke="currentColor" stroke-width="1.70455" stroke-miterlimit="10" stroke-linecap="round" stroke-linejoin="round"></path><path d="M4.76575 4.76562L6.95325 6.95312" stroke="currentColor" stroke-width="1.70455" stroke-miterlimit="10" stroke-linecap="round" stroke-linejoin="round"></path><path d="M1.5625 12.5H4.6875" stroke="currentColor" stroke-width="1.70455" stroke-miterlimit="10" stroke-linecap="round" stroke-linejoin="round"></path><path d="M4.76575 20.2344L6.95325 18.0469" stroke="currentColor" stroke-width="1.70455" stroke-miterlimit="10" stroke-linecap="round" stroke-linejoin="round"></path><path d="M12.5 23.4375V20.3125" stroke="currentColor" stroke-width="1.70455" stroke-miterlimit="10" stroke-linecap="round" stroke-linejoin="round"></path><path d="M20.2345 20.2344L18.047 18.0469" stroke="currentColor" stroke-width="1.70455" stroke-miterlimit="10" stroke-linecap="round" stroke-linejoin="round"></path><path d="M23.4375 12.5H20.3125" stroke="currentColor" stroke-width="1.70455" stroke-miterlimit="10" stroke-linecap="round" stroke-linejoin="round"></path><path d="M20.2345 4.76562L18.047 6.95312" stroke="currentColor" stroke-width="1.70455" stroke-miterlimit="10" stroke-linecap="round" stroke-linejoin="round"></path><path d="M12.5 8.59375L9.375 12.5L12.5 16.4062L15.625 12.5L12.5 8.59375Z" stroke="currentColor" stroke-width="1.70455" stroke-miterlimit="10" stroke-linecap="round" stroke-linejoin="round"></path></g><defs><clipPath id="clip0_124_3880"><rect width="25" height="25" fill="currentColor"></rect></clipPath></defs></svg>