<svg width="28" height="28" viewBox="0 0 28 28" fill="none" class="mh-img"><path d="M1.97852 10.1687C1.40565 10.5589 1.22827 11.3871 1.58228 12.0186C1.93631 12.6499 2.6877 12.8454 3.26054 12.4553L1.97852 10.1687ZM6.51211 10.2403C7.08497 9.85011 7.26236 9.02191 6.90835 8.39049C6.55431 7.75907 5.80293 7.56354 5.23008 7.95375L6.51211 10.2403ZM7.09043 9.09704C7.09043 8.35478 6.54451 7.75304 5.8711 7.75304C5.19768 7.75304 4.65176 8.35478 4.65176 9.09704H7.09043ZM10.7484 25.2C11.4218 25.2 11.9678 24.5982 11.9678 23.856C11.9678 23.1137 11.4218 22.512 10.7484 22.512V25.2ZM5.23008 7.95375C4.65729 8.34406 4.47983 9.17241 4.83394 9.80377C5.18806 10.4351 5.93931 10.6307 6.51211 10.2403L5.23008 7.95375ZM12.6376 4.48623L12.1092 3.27494C12.0705 3.29544 12.033 3.31817 11.9964 3.34304L12.6376 4.48623ZM15.3624 4.48623L16.0036 3.34304C15.967 3.31817 15.9295 3.29544 15.8908 3.27494L15.3624 4.48623ZM21.4877 10.2402C22.0605 10.6305 22.8119 10.4351 23.166 9.80377C23.5201 9.17241 23.3429 8.34417 22.7701 7.95386L21.4877 10.2402ZM9.52911 23.856C9.52911 24.5982 10.075 25.2 10.7484 25.2C11.4218 25.2 11.9678 24.5982 11.9678 23.856H9.52911ZM16.0322 23.856C16.0322 24.5982 16.5782 25.2 17.2516 25.2C17.925 25.2 18.4709 24.5982 18.4709 23.856H16.0322ZM10.7484 22.512C10.075 22.512 9.52911 23.1137 9.52911 23.856C9.52911 24.5982 10.075 25.2 10.7484 25.2V22.512ZM17.2516 25.2C17.925 25.2 18.4709 24.5982 18.4709 23.856C18.4709 23.1137 17.925 22.512 17.2516 22.512V25.2ZM17.2516 22.512C16.5782 22.512 16.0322 23.1137 16.0322 23.856C16.0322 24.5982 16.5782 25.2 17.2516 25.2V22.512ZM23.3483 9.09704C23.3483 8.35478 22.8023 7.75304 22.1289 7.75304C21.4555 7.75304 20.9096 8.35478 20.9096 9.09704H23.3483ZM22.7701 7.95386C22.1972 7.56365 21.4458 7.75907 21.0917 8.39049C20.7376 9.02191 20.915 9.85001 21.4877 10.2402L22.7701 7.95386ZM24.7395 12.4553C25.3124 12.8454 26.0637 12.6499 26.4177 12.0186C26.7718 11.3871 26.5943 10.5589 26.0215 10.1687L24.7395 12.4553ZM3.26054 12.4553L6.51211 10.2403L5.23008 7.95375L1.97852 10.1687L3.26054 12.4553ZM4.65176 9.09704V21.168H7.09043V9.09704H4.65176ZM4.65176 21.168C4.65176 22.2747 4.90662 23.4055 5.76162 24.2076C6.56813 24.9642 7.67609 25.2 8.8788 25.2V22.512C7.88669 22.512 7.4908 22.3 7.34217 22.1604C7.24202 22.0665 7.09043 21.8533 7.09043 21.168H4.65176ZM8.8788 25.2H10.7484V22.512H8.8788V25.2ZM6.51211 10.2403L13.2788 5.62942L11.9964 3.34304L5.23008 7.95375L6.51211 10.2403ZM13.166 5.69751C13.6931 5.41816 14.307 5.41816 14.834 5.69751L15.8908 3.27494C14.6957 2.64167 13.3043 2.64167 12.1092 3.27494L13.166 5.69751ZM14.7212 5.62942L21.4877 10.2402L22.7701 7.95386L16.0036 3.34304L14.7212 5.62942ZM11.9678 23.856V22.064H9.52911V23.856H11.9678ZM11.9678 22.064C11.9678 20.8268 12.8776 19.824 14 19.824V17.136C11.5308 17.136 9.52911 19.3423 9.52911 22.064H11.9678ZM14 19.824C15.1225 19.824 16.0322 20.8268 16.0322 22.064H18.4709C18.4709 19.3423 16.4693 17.136 14 17.136V19.824ZM16.0322 22.064V23.856H18.4709V22.064H16.0322ZM10.7484 25.2H17.2516V22.512H10.7484V25.2ZM17.2516 25.2H19.1212V22.512H17.2516V25.2ZM19.1212 25.2C20.324 25.2 21.432 24.9642 22.2383 24.2076C23.0933 23.4055 23.3483 22.2747 23.3483 21.168H20.9096C20.9096 21.8533 20.7581 22.0665 20.6579 22.1604C20.5092 22.3 20.1133 22.512 19.1212 22.512V25.2ZM23.3483 21.168V9.09704H20.9096V21.168H23.3483ZM21.4877 10.2402L24.7395 12.4553L26.0215 10.1687L22.7701 7.95386L21.4877 10.2402Z" fill="currentColor"></path></svg>