<svg width="28" height="28" viewBox="0 0 28 28" fill="none" class="mh-img"><path d="M22.3318 5.83336C24.3948 7.93774 25.6668 10.8203 25.6668 14C25.6668 17.2174 24.3644 20.1307 22.2581 22.2413M5.8335 22.3317C3.67358 20.2142 2.3335 17.2636 2.3335 14C2.3335 10.7742 3.64275 7.85409 5.75886 5.74219" stroke="currentColor" stroke-width="2" stroke-linecap="round" stroke-linejoin="round"></path><path d="M18.9991 9.38455C20.2368 10.5685 21 12.1902 21 13.9792C21 15.7894 20.2186 17.4283 18.9547 18.6157M9.1 18.6666C7.80404 17.4753 7 15.8153 7 13.9792C7 12.1643 7.78555 10.5214 9.05522 9.33325" stroke="currentColor" stroke-width="2" stroke-linecap="round" stroke-linejoin="round"></path><path d="M15.9322 12.193C16.9773 12.9603 17.4998 13.3439 17.4998 14C17.4998 14.6561 16.9773 15.0397 15.9322 15.8071C15.6438 16.0188 15.3576 16.2183 15.0946 16.3844C14.864 16.5303 14.6028 16.681 14.3322 16.8291C13.2897 17.3997 12.7683 17.685 12.3008 17.3691C11.8332 17.0532 11.7908 16.3919 11.7058 15.0694C11.6818 14.6953 11.6665 14.3287 11.6665 14C11.6665 13.6714 11.6818 13.3047 11.7058 12.9306C11.7908 11.6081 11.8332 10.9468 12.3008 10.6309C12.7683 10.315 13.2897 10.6003 14.3322 11.1709C14.6028 11.319 14.864 11.4698 15.0946 11.6156C15.3576 11.7817 15.6438 11.9812 15.9322 12.193Z" stroke="currentColor" stroke-width="2"></path></svg>