<svg xmlns="http://www.w3.org/2000/svg" width="12" height="12" viewBox="0 0 12 12" fill="none"><path d="M7.75 3.083v8.167M9.5 5.417h.006M9.5 7.167h.006M9.5 8.917h.006M8.916.75 6 3.083 3.083.75m.467 10.5h4.9c.98 0 1.47 0 1.845-.19.329-.168.597-.436.764-.766.191-.374.191-.864.191-1.844V5.883c0-.98 0-1.47-.19-1.844a1.75 1.75 0 0 0-.766-.765c-.374-.19-.864-.19-1.844-.19h-4.9c-.98 0-1.47 0-1.844.19a1.75 1.75 0 0 0-.765.765C.75 4.413.75 4.903.75 5.883V8.45c0 .98 0 1.47.19 1.845.169.329.436.597.766.764.374.191.864.191 1.844.191" stroke="#fff" stroke-linecap="round" stroke-linejoin="round"/></svg>