<svg xmlns="http://www.w3.org/2000/svg" width="120" height="120" viewBox="0 0 120 120" fill="none" class="notification-icon" style="position:absolute;left:5px;z-index:11111;height:30px;width:30px;background:var(--notification-bg);border-radius:20px"><path d="M60 25.833A23.916 23.916 0 0 0 36.083 49.75v12.054c0 .53-.122 1.053-.358 1.527l-5.867 11.73A3.758 3.758 0 0 0 33.22 80.5h53.56a3.76 3.76 0 0 0 3.362-5.44l-5.863-11.729a3.4 3.4 0 0 1-.362-1.527V49.75A23.916 23.916 0 0 0 60 25.833m0 64.917a10.25 10.25 0 0 1-9.67-6.833h19.34A10.25 10.25 0 0 1 60 90.75" fill="#000"/></svg>