<svg width="18" height="18" viewBox="0 0 18 18" fill="none" class="report-img"><g clip-path="url(#clip0_5391_128)"><path d="M10.8317 2.52006C10.3627 2.79086 10.1514 3.33861 10.2844 3.83863L4.91217 9.43863C4.54943 9.18235 4.05578 9.14319 3.64661 9.37943C3.08603 9.70308 2.89328 10.4224 3.21693 10.983L4.39084 13.0163C4.71449 13.5769 5.43386 13.7696 5.99444 13.446C6.40361 13.2097 6.61651 12.7626 6.57595 12.3204L7.47602 12.0991L7.82813 12.709C8.08933 13.1614 8.60641 13.3847 9.11485 13.2645L11.5003 12.7006C11.6148 12.6735 11.7223 12.6307 11.8206 12.5739C12.0355 12.4498 12.2061 12.2595 12.308 12.0234C12.4565 11.6793 12.4343 11.2958 12.2469 10.9712L12.2242 10.9319L14.1118 10.4679C14.4784 10.8331 15.0584 10.924 15.5274 10.6532C16.088 10.3295 16.2807 9.61018 15.9571 9.0496L12.4353 2.94974C12.1117 2.38917 11.3923 2.19641 10.8317 2.52006ZM5.74637 12.2337C5.85425 12.4205 5.78999 12.6603 5.60314 12.7682C5.41628 12.8761 5.17648 12.8119 5.06859 12.625L3.89468 10.5917C3.7868 10.4049 3.85105 10.1651 4.03791 10.0572C4.22477 9.9493 4.46457 10.0136 4.57245 10.2004L5.74637 12.2337ZM11.5691 11.3624C11.6316 11.4706 11.639 11.5985 11.5895 11.7132C11.54 11.8279 11.4418 11.9101 11.3202 11.9389L8.9348 12.5028C8.76531 12.5429 8.59296 12.4685 8.50589 12.3177L8.26739 11.9046L11.4328 11.1264L11.5691 11.3624ZM13.6632 9.77224L11.539 10.2944C11.5387 10.2945 11.5383 10.2946 11.538 10.2947L6.27719 11.5879L5.39715 10.0636L10.6626 4.57495L13.6632 9.77224ZM15.2793 9.44088C15.3872 9.62774 15.3229 9.86754 15.1361 9.97542C14.9492 10.0833 14.7094 10.0191 14.6015 9.83219L11.0798 3.73236C10.9719 3.5455 11.0362 3.3057 11.223 3.19782C11.4099 3.08993 11.6497 3.15419 11.7576 3.34105L15.2793 9.44088Z" fill="#6800A8"></path></g><defs><clipPath id="clip0_5391_128"><rect width="12" height="12" fill="currentColor" transform="translate(0.803955 6.80371) rotate(-30)"></rect></clipPath></defs></svg>