<svg width="26" height="26" viewBox="0 0 26 26" fill="none" class="mh-img"><path d="M12.9999 2.70831C10.9644 2.70831 8.97464 3.31191 7.28218 4.44277C5.58972 5.57363 4.27061 7.18097 3.49166 9.06153C2.71271 10.9421 2.5089 13.0114 2.90601 15.0078C3.30311 17.0042 4.2833 18.838 5.72262 20.2773C7.16193 21.7166 8.99573 22.6968 10.9921 23.0939C12.9885 23.491 15.0578 23.2872 16.9384 22.5082C18.8189 21.7293 20.4263 20.4102 21.5571 18.7177C22.688 17.0253 23.2916 15.0355 23.2916 13C23.2916 10.2705 22.2073 7.65273 20.2772 5.72267C18.3472 3.79261 15.7294 2.70831 12.9999 2.70831ZM12.9999 4.87498C14.8756 4.88066 16.6924 5.53087 18.1458 6.71665L6.71659 18.1458C5.74267 16.9558 5.12646 15.5138 4.93958 13.9874C4.7527 12.461 5.00282 10.9129 5.66088 9.52307C6.31893 8.1332 7.3579 6.95863 8.65704 6.13583C9.95618 5.31304 11.4621 4.87582 12.9999 4.87498ZM12.9999 21.125C11.1242 21.1193 9.30745 20.4691 7.85409 19.2833L19.2833 7.85415C20.2572 9.0442 20.8734 10.4862 21.0603 12.0126C21.2471 13.539 20.997 15.087 20.339 16.4769C19.6809 17.8668 18.6419 19.0413 17.3428 19.8641C16.0437 20.6869 14.5377 21.1241 12.9999 21.125Z" fill="currentColor"></path><path d="M10.1291 13.4333C10.2301 13.4419 10.3316 13.4268 10.4256 13.3892C10.5197 13.3516 10.6036 13.2925 10.6708 13.2167C10.7861 13.1037 10.8651 12.9589 10.8977 12.8009C10.9304 12.6429 10.9153 12.4787 10.8542 12.3292C10.7932 12.1798 10.6891 12.052 10.5551 11.962C10.4212 11.872 10.2634 11.8239 10.1021 11.8239C9.94066 11.8239 9.78293 11.872 9.64896 11.962C9.515 12.052 9.41087 12.1798 9.34985 12.3292C9.28884 12.4787 9.2737 12.6429 9.30637 12.8009C9.33905 12.9589 9.41805 13.1037 9.5333 13.2167C9.61302 13.2909 9.70685 13.3483 9.80921 13.3855C9.91157 13.4227 10.0204 13.439 10.1291 13.4333Z" fill="currentColor"></path><path d="M7.0416 15.7083C7.11311 15.7784 7.1978 15.8336 7.29077 15.8708C7.38373 15.908 7.48315 15.9264 7.58327 15.925C7.69204 15.9306 7.80083 15.9144 7.90319 15.8771C8.00555 15.8399 8.09938 15.7825 8.1791 15.7083C8.29436 15.5953 8.37336 15.4506 8.40603 15.2925C8.4387 15.1345 8.42356 14.9703 8.36255 14.8209C8.30153 14.6715 8.19741 14.5436 8.06344 14.4536C7.92947 14.3636 7.77174 14.3156 7.61035 14.3156C7.44896 14.3156 7.29123 14.3636 7.15726 14.4536C7.0233 14.5436 6.91917 14.6715 6.85815 14.8209C6.79714 14.9703 6.782 15.1345 6.81468 15.2925C6.84735 15.4506 6.92635 15.5953 7.0416 15.7083Z" fill="currentColor"></path><path d="M12.6208 10.9417C12.8472 10.9327 13.0611 10.8355 13.2167 10.6708C13.2974 10.5997 13.362 10.5121 13.4063 10.4141C13.4505 10.316 13.4734 10.2097 13.4734 10.1021C13.4734 9.99449 13.4505 9.88813 13.4063 9.79007C13.362 9.69201 13.2974 9.60449 13.2167 9.53333C13.0557 9.38094 12.8425 9.29602 12.6208 9.29602C12.3992 9.29602 12.186 9.38094 12.025 9.53333C11.8976 9.69554 11.8284 9.89582 11.8284 10.1021C11.8284 10.3083 11.8976 10.5086 12.025 10.6708C12.1806 10.8355 12.3945 10.9327 12.6208 10.9417Z" fill="currentColor"></path><path d="M15.1665 8.39578C15.2666 8.39722 15.366 8.37881 15.459 8.34162C15.552 8.30444 15.6366 8.24921 15.7082 8.17912C15.8234 8.06615 15.9024 7.92141 15.9351 7.76336C15.9678 7.60531 15.9526 7.44112 15.8916 7.2917C15.8306 7.14229 15.7265 7.01444 15.5925 6.92444C15.4585 6.83444 15.3008 6.78638 15.1394 6.78638C14.978 6.78638 14.8203 6.83444 14.6863 6.92444C14.5524 7.01444 14.4482 7.14229 14.3872 7.2917C14.3262 7.44112 14.3111 7.60531 14.3437 7.76336C14.3764 7.92141 14.4554 8.06615 14.5707 8.17912C14.6504 8.25332 14.7442 8.31075 14.8466 8.34797C14.9489 8.38519 15.0577 8.40145 15.1665 8.39578Z" fill="currentColor"></path><path d="M10.2916 17.8208C10.1427 17.9727 10.0593 18.1769 10.0593 18.3896C10.0593 18.6023 10.1427 18.8064 10.2916 18.9583C10.3631 19.0284 10.4478 19.0836 10.5407 19.1208C10.6337 19.158 10.7331 19.1764 10.8333 19.175C10.942 19.1807 11.0508 19.1644 11.1532 19.1272C11.2555 19.09 11.3494 19.0325 11.4291 18.9583C11.5464 18.8019 11.6034 18.6083 11.5895 18.4132C11.5757 18.2181 11.4919 18.0346 11.3536 17.8963C11.2153 17.758 11.0318 17.6742 10.8367 17.6604C10.6416 17.6465 10.448 17.7035 10.2916 17.8208Z" fill="currentColor"></path><path d="M18.9582 10.2917C18.8017 10.1743 18.6082 10.1173 18.4131 10.1312C18.218 10.1451 18.0345 10.2288 17.8962 10.3671C17.7579 10.5054 17.6741 10.689 17.6602 10.8841C17.6464 11.0791 17.7034 11.2727 17.8207 11.4292C17.9004 11.5034 17.9943 11.5608 18.0966 11.598C18.199 11.6352 18.3078 11.6515 18.4165 11.6458C18.5167 11.6473 18.6161 11.6288 18.709 11.5917C18.802 11.5545 18.8867 11.4992 18.9582 11.4292C19.0389 11.358 19.1035 11.2705 19.1478 11.1724C19.1921 11.0743 19.2149 10.968 19.2149 10.8604C19.2149 10.7528 19.1921 10.6465 19.1478 10.5484C19.1035 10.4503 19.0389 10.3628 18.9582 10.2917Z" fill="currentColor"></path><path d="M15.275 12.7833C15.1476 12.9455 15.0784 13.1458 15.0784 13.3521C15.0784 13.5583 15.1476 13.7586 15.275 13.9208C15.3511 14.0029 15.4432 14.0683 15.5458 14.1131C15.6483 14.1578 15.759 14.1809 15.8708 14.1809C15.9827 14.1809 16.0934 14.1578 16.1959 14.1131C16.2984 14.0683 16.3906 14.0029 16.4667 13.9208C16.5474 13.8497 16.612 13.7621 16.6563 13.6641C16.7005 13.566 16.7234 13.4597 16.7234 13.3521C16.7234 13.2445 16.7005 13.1381 16.6563 13.0401C16.612 12.942 16.5474 12.8545 16.4667 12.7833C16.3057 12.6309 16.0925 12.546 15.8708 12.546C15.6492 12.546 15.436 12.6309 15.275 12.7833Z" fill="currentColor"></path><path d="M12.7834 15.3291C12.7027 15.4003 12.638 15.4878 12.5938 15.5859C12.5495 15.6839 12.5266 15.7903 12.5266 15.8979C12.5266 16.0055 12.5495 16.1118 12.5938 16.2099C12.638 16.3079 12.7027 16.3955 12.7834 16.4666C12.8631 16.5408 12.9569 16.5983 13.0593 16.6355C13.1616 16.6727 13.2704 16.689 13.3792 16.6833C13.4801 16.6919 13.5816 16.6768 13.6757 16.6391C13.7697 16.6015 13.8537 16.5424 13.9209 16.4666C14.0382 16.3102 14.0952 16.1166 14.0813 15.9215C14.0674 15.7264 13.9837 15.5429 13.8454 15.4046C13.7071 15.2663 13.5235 15.1825 13.3285 15.1687C13.1334 15.1548 12.9398 15.2118 12.7834 15.3291Z" fill="currentColor"></path></svg>