<svg width="25" height="25" viewBox="0 0 25 25" fill="none" class="mh-img"><g clip-path="url(#clip0_124_3895)"><path d="M16.2905 13.2942C17.7832 12.1521 18.7499 10.3578 18.7499 8.33331C18.7499 4.88175 15.9515 2.08331 12.4999 2.08331C9.04834 2.08331 6.2499 4.88175 6.2499 8.33331C6.2499 10.3578 7.21656 12.1521 8.70927 13.2942C5.1249 14.8599 2.60406 18.5755 2.60406 22.9166H22.3957C22.3957 18.5755 19.8749 14.8599 16.2905 13.2942ZM8.33323 8.33331C8.33323 6.03592 10.2025 4.16665 12.4999 4.16665C14.7973 4.16665 16.6666 6.03592 16.6666 8.33331C16.6666 10.6307 14.7973 12.5 12.4999 12.5C10.2025 12.5 8.33323 10.6307 8.33323 8.33331ZM12.4999 14.5833C16.1338 14.5833 19.1957 17.2432 20.065 20.8333H4.93479C5.80406 17.2432 8.86604 14.5833 12.4999 14.5833Z" fill="currentColor"></path></g><defs><clipPath id="clip0_124_3895"><rect width="25" height="25" fill="white"></rect></clipPath></defs></svg>