<svg width="27" height="27" viewBox="0 0 27 27" fill="none" xmlns="http://www.w3.org/2000/svg">
<g clip-path="url(#clip0_1061_19130)">
<path d="M22.0803 15.3686V13.6353C22.0803 12.678 21.3043 11.902 20.3469 11.902H3.01361C2.05631 11.902 1.28027 12.678 1.28027 13.6353V24.0353C1.28027 24.9926 2.05631 25.7686 3.01361 25.7686H20.3469C21.3043 25.7686 22.0803 24.9926 22.0803 24.0353V22.302M22.0803 15.3686H15.1469C13.2324 15.3686 11.6803 16.9207 11.6803 18.8353C11.6803 20.7499 13.2324 22.302 15.1469 22.302H22.0803M22.0803 15.3686C23.9949 15.3686 25.5469 16.9207 25.5469 18.8353C25.5469 20.7499 23.9949 22.302 22.0803 22.302M6.48027 11.902V6.70195C6.48027 3.83008 8.8084 1.50195 11.6803 1.50195C14.5521 1.50195 16.8803 3.83008 16.8803 6.70195V11.902M21.2136 18.8353H22.9469M17.7469 18.8353H19.4803M14.2803 18.8353H16.0136" stroke="black" stroke-width="2"/>
</g>
<defs>
<clipPath id="clip0_1061_19130">
<rect width="26" height="26" fill="white" transform="translate(0.413086 0.636719)"/>
</clipPath>
</defs>
</svg>
