<svg width="16" height="16" viewBox="0 0 16 16" fill="none" xmlns="http://www.w3.org/2000/svg">
<g clip-path="url(#clip0_1061_17883)">
<path d="M13.3332 9.06654V7.99987C13.3332 7.41077 12.8557 6.9332 12.2665 6.9332H1.59987C1.01077 6.9332 0.533203 7.41077 0.533203 7.99987V14.3999C0.533203 14.989 1.01077 15.4665 1.59987 15.4665H12.2665C12.8557 15.4665 13.3332 14.989 13.3332 14.3999V13.3332M13.3332 9.06654H9.06654C7.88833 9.06654 6.9332 10.0217 6.9332 11.1999C6.9332 12.3781 7.88833 13.3332 9.06654 13.3332H13.3332M13.3332 9.06654C14.5114 9.06654 15.4665 10.0217 15.4665 11.1999C15.4665 12.3781 14.5114 13.3332 13.3332 13.3332M3.7332 6.9332V3.7332C3.7332 1.9659 5.1659 0.533203 6.9332 0.533203C8.70051 0.533203 10.1332 1.9659 10.1332 3.7332V6.9332M12.7999 11.1999H13.8665M10.6665 11.1999H11.7332M8.5332 11.1999H9.59987" stroke="white" stroke-width="1.25"/>
</g>
<defs>
<clipPath id="clip0_1061_17883">
<rect width="16" height="16" fill="white"/>
</clipPath>
</defs>
</svg>
