<svg width="16" height="16" viewBox="0 0 16 16" fill="none" xmlns="http://www.w3.org/2000/svg">
<path d="M3.33366 14.6673C3.92314 14.6651 4.49527 14.4676 4.96061 14.1057C5.42596 13.7439 5.75829 13.238 5.90566 12.6673H10.095C10.2225 13.1904 10.5038 13.6633 10.9026 14.025C11.3014 14.3868 11.7993 14.6208 12.3323 14.697C12.8653 14.7732 13.4089 14.688 13.8931 14.4524C14.3772 14.2168 14.7797 13.8416 15.0486 13.3751C15.3175 12.9087 15.4406 12.3724 15.402 11.8354C15.3634 11.2984 15.1648 10.7852 14.8318 10.3621C14.4989 9.93894 14.0469 9.62521 13.534 9.46133C13.0211 9.29745 12.4709 9.29093 11.9543 9.4426L9.87766 5.89127C10.2531 5.51934 10.5096 5.04424 10.6146 4.52627C10.7195 4.0083 10.6682 3.47083 10.4671 2.98209C10.266 2.49335 9.92422 2.07538 9.48514 1.78125C9.04606 1.48711 8.52949 1.33008 8.00099 1.33008C7.4725 1.33008 6.95593 1.48711 6.51685 1.78125C6.07777 2.07538 5.73599 2.49335 5.5349 2.98209C5.33382 3.47083 5.28249 4.0083 5.38743 4.52627C5.49237 5.04424 5.74886 5.51934 6.12433 5.89127L4.05233 9.4446C3.81902 9.37475 3.57717 9.33751 3.33366 9.33394C2.62641 9.33394 1.94814 9.61489 1.44804 10.115C0.947944 10.6151 0.666992 11.2934 0.666992 12.0006C0.666992 12.7078 0.947944 13.3861 1.44804 13.8862C1.94814 14.3863 2.62641 14.6673 3.33366 14.6673ZM12.667 10.6673C12.9307 10.6673 13.1885 10.7455 13.4078 10.892C13.627 11.0385 13.7979 11.2467 13.8988 11.4904C13.9997 11.734 14.0262 12.0021 13.9747 12.2607C13.9233 12.5194 13.7963 12.7569 13.6098 12.9434C13.4233 13.1299 13.1858 13.2569 12.9271 13.3083C12.6685 13.3598 12.4004 13.3334 12.1567 13.2324C11.9131 13.1315 11.7049 12.9606 11.5584 12.7414C11.4119 12.5221 11.3337 12.2643 11.3337 12.0006C11.3337 11.647 11.4741 11.3078 11.7242 11.0578C11.9742 10.8077 12.3134 10.6673 12.667 10.6673ZM8.00033 2.66727C8.26403 2.66727 8.52182 2.74547 8.74109 2.89198C8.96035 3.03849 9.13125 3.24673 9.23217 3.49036C9.33308 3.73399 9.35949 4.00208 9.30804 4.26073C9.25659 4.51937 9.1296 4.75694 8.94313 4.94341C8.75666 5.12988 8.51909 5.25687 8.26045 5.30832C8.0018 5.35977 7.73372 5.33336 7.49008 5.23244C7.24645 5.13153 7.03821 4.96063 6.8917 4.74136C6.74519 4.5221 6.66699 4.26431 6.66699 4.0006C6.66699 3.64698 6.80747 3.30784 7.05752 3.0578C7.30757 2.80775 7.6467 2.66727 8.00033 2.66727ZM7.28166 6.5566C7.51497 6.62646 7.75681 6.6637 8.00033 6.66727C8.24483 6.66397 8.48766 6.62626 8.72166 6.55527L10.7963 10.1039C10.456 10.4432 10.2137 10.8682 10.095 11.3339H5.90566C5.78791 10.8704 5.54749 10.4471 5.20966 10.1086L7.28166 6.5566ZM3.33366 10.6673C3.59737 10.6673 3.85515 10.7455 4.07442 10.892C4.29368 11.0385 4.46458 11.2467 4.5655 11.4904C4.66642 11.734 4.69282 12.0021 4.64137 12.2607C4.58993 12.5194 4.46294 12.7569 4.27647 12.9434C4.09 13.1299 3.85242 13.2569 3.59378 13.3083C3.33514 13.3598 3.06705 13.3334 2.82341 13.2324C2.57978 13.1315 2.37154 12.9606 2.22503 12.7414C2.07852 12.5221 2.00033 12.2643 2.00033 12.0006C2.00033 11.647 2.1408 11.3078 2.39085 11.0578C2.6409 10.8077 2.98004 10.6673 3.33366 10.6673Z" fill="white"/>
</svg>
