<svg width="27" height="27" viewBox="0 0 27 27" fill="none" xmlns="http://www.w3.org/2000/svg">
<path d="M5.81917 24.4679C6.77707 24.4643 7.70679 24.1434 8.46297 23.5554C9.21916 22.9674 9.7592 22.1453 9.99867 21.2179H16.8063C17.0136 22.0679 17.4707 22.8363 18.1187 23.4242C18.7667 24.0121 19.5759 24.3924 20.442 24.5162C21.3081 24.64 22.1915 24.5015 22.9782 24.1186C23.7649 23.7358 24.4189 23.1261 24.8559 22.3681C25.293 21.6102 25.493 20.7387 25.4302 19.866C25.3674 18.9934 25.0447 18.1595 24.5037 17.4719C23.9627 16.7843 23.2281 16.2745 22.3947 16.0082C21.5613 15.7419 20.6672 15.7313 19.8278 15.9778L16.4532 10.2069C17.0633 9.60248 17.4801 8.83043 17.6506 7.98874C17.8212 7.14704 17.7378 6.27365 17.411 5.47944C17.0842 4.68524 16.5288 4.00604 15.8153 3.52807C15.1018 3.0501 14.2624 2.79492 13.4036 2.79492C12.5448 2.79492 11.7054 3.0501 10.9919 3.52807C10.2784 4.00604 9.72296 4.68524 9.3962 5.47944C9.06943 6.27365 8.98601 7.14704 9.15655 7.98874C9.32708 8.83043 9.74387 9.60248 10.354 10.2069L6.98701 15.981C6.60788 15.8675 6.21488 15.807 5.81917 15.8012C4.6699 15.8012 3.5677 16.2577 2.75504 17.0704C1.94239 17.8831 1.48584 18.9853 1.48584 20.1345C1.48584 21.2838 1.94239 22.386 2.75504 23.1987C3.5677 24.0113 4.6699 24.4679 5.81917 24.4679ZM20.9858 17.9679C21.4144 17.9679 21.8333 18.0949 22.1896 18.333C22.5459 18.5711 22.8236 18.9095 22.9876 19.3054C23.1516 19.7013 23.1945 20.1369 23.1109 20.5572C23.0273 20.9775 22.8209 21.3636 22.5179 21.6666C22.2149 21.9696 21.8288 22.176 21.4085 22.2596C20.9882 22.3432 20.5526 22.3003 20.1567 22.1363C19.7608 21.9723 19.4224 21.6946 19.1843 21.3383C18.9462 20.982 18.8192 20.5631 18.8192 20.1345C18.8192 19.5599 19.0474 19.0088 19.4538 18.6025C19.8601 18.1961 20.4112 17.9679 20.9858 17.9679ZM13.4025 4.96786C13.831 4.96786 14.2499 5.09493 14.6062 5.33301C14.9625 5.57109 15.2403 5.90947 15.4042 6.30538C15.5682 6.70129 15.6111 7.13693 15.5275 7.55722C15.4439 7.97752 15.2376 8.36358 14.9346 8.66659C14.6316 8.96961 14.2455 9.17596 13.8252 9.25956C13.4049 9.34316 12.9693 9.30026 12.5734 9.13627C12.1775 8.97228 11.8391 8.69457 11.601 8.33826C11.3629 7.98196 11.2358 7.56305 11.2358 7.13453C11.2358 6.55989 11.4641 6.00879 11.8704 5.60246C12.2768 5.19613 12.8279 4.96786 13.4025 4.96786ZM12.2347 11.288C12.6138 11.4015 13.0068 11.4621 13.4025 11.4679C13.7998 11.4625 14.1944 11.4012 14.5747 11.2859L17.946 17.0524C17.3929 17.6038 16.9992 18.2944 16.8063 19.0512H9.99867C9.80734 18.2979 9.41665 17.6101 8.86767 17.06L12.2347 11.288ZM5.81917 17.9679C6.2477 17.9679 6.6666 18.0949 7.02291 18.333C7.37921 18.5711 7.65692 18.9095 7.82091 19.3054C7.9849 19.7013 8.02781 20.1369 7.94421 20.5572C7.86061 20.9775 7.65425 21.3636 7.35124 21.6666C7.04822 21.9696 6.66216 22.176 6.24187 22.2596C5.82158 22.3432 5.38593 22.3003 4.99003 22.1363C4.59412 21.9723 4.25573 21.6946 4.01766 21.3383C3.77958 20.982 3.65251 20.5631 3.65251 20.1345C3.65251 19.5599 3.88078 19.0088 4.28711 18.6025C4.69344 18.1961 5.24454 17.9679 5.81917 17.9679Z" fill="black"/>
</svg>
