<svg width="10" height="10" viewBox="0 0 10 10" fill="none" class="report-img"><g clip-path="url(#clip0_1061_17864)"><path fill-rule="evenodd" clip-rule="evenodd" d="M8.28127 8.99999H1.71909C1.36589 8.99999 1.10508 8.65149 1.23829 8.33099C1.85638 6.84899 3.30847 5.99999 4.99993 5.99999C6.6919 5.99999 8.14398 6.84899 8.76207 8.33099C8.89529 8.65149 8.63447 8.99999 8.28127 8.99999ZM2.95833 2.99999C2.95833 1.89699 3.8745 0.999992 4.99993 0.999992C6.12586 0.999992 7.04152 1.89699 7.04152 2.99999C7.04152 4.10299 6.12586 4.99999 4.99993 4.99999C3.8745 4.99999 2.95833 4.10299 2.95833 2.99999ZM9.97784 8.81799C9.60678 7.13849 8.44613 5.89898 6.91851 5.33648C7.728 4.69798 8.20012 3.66547 8.02659 2.53497C7.82549 1.22347 6.7118 0.173988 5.36741 0.0209884C3.51161 -0.190512 1.93754 1.22449 1.93754 2.99999C1.93754 3.94499 2.38465 4.78698 3.08185 5.33648C1.55372 5.89898 0.393582 7.13849 0.022012 8.81799C-0.112733 9.42849 0.389499 9.99999 1.02699 9.99999H8.97286C9.61086 9.99999 10.1131 9.42849 9.97784 8.81799Z" fill="currentColor"></path></g><defs><clipPath id="clip0_1061_17864"><rect width="10" height="10" fill="white"></rect></clipPath></defs></svg>