<svg width="14" height="14" viewBox="0 0 14 14" fill="none" xmlns="http://www.w3.org/2000/svg">
<g clip-path="url(#clip0_1061_18565)">
<path fill-rule="evenodd" clip-rule="evenodd" d="M11.5938 12.6H2.40672C1.91225 12.6 1.54711 12.1121 1.73361 11.6634C2.59894 9.58858 4.63185 8.39999 6.9999 8.39999C9.36865 8.39999 11.4016 9.58858 12.2669 11.6634C12.4534 12.1121 12.0883 12.6 11.5938 12.6ZM4.14167 4.19999C4.14167 2.65579 5.4243 1.39999 6.9999 1.39999C8.57621 1.39999 9.85812 2.65579 9.85812 4.19999C9.85812 5.74419 8.57621 6.99999 6.9999 6.99999C5.4243 6.99999 4.14167 5.74419 4.14167 4.19999ZM13.969 12.3452C13.4495 9.99388 11.8246 8.25857 9.68592 7.47107C10.8192 6.57717 11.4802 5.13165 11.2372 3.54895C10.9557 1.71285 9.39652 0.243584 7.51438 0.0293838C4.91625 -0.266716 2.71255 1.71429 2.71255 4.19999C2.71255 5.52299 3.3385 6.70177 4.31459 7.47107C2.1752 8.25857 0.551015 9.99388 0.0308168 12.3452C-0.157826 13.1999 0.545299 14 1.43778 14H12.562C13.4552 14 14.1583 13.1999 13.969 12.3452Z" fill="white"/>
</g>
<defs>
<clipPath id="clip0_1061_18565">
<rect width="14" height="14" fill="white"/>
</clipPath>
</defs>
</svg>
