<svg width="25" height="25" viewBox="0 0 25 25" fill="none" xmlns="http://www.w3.org/2000/svg">
<g clip-path="url(#clip0_1061_18450)">
<path fill-rule="evenodd" clip-rule="evenodd" d="M19.9747 21.8558H4.22542C3.37775 21.8558 2.75179 21.0194 3.07151 20.2502C4.55493 16.6934 8.03993 14.6558 12.0994 14.6558C16.1602 14.6558 19.6452 16.6934 21.1286 20.2502C21.4483 21.0194 20.8223 21.8558 19.9747 21.8558ZM7.19961 7.45584C7.19961 4.80864 9.3984 2.65584 12.0994 2.65584C14.8017 2.65584 16.9993 4.80864 16.9993 7.45584C16.9993 10.103 14.8017 12.2558 12.0994 12.2558C9.3984 12.2558 7.19961 10.103 7.19961 7.45584ZM24.0464 21.419C23.1559 17.3882 20.3703 14.4134 16.704 13.0634C18.6468 11.531 19.7799 9.05298 19.3634 6.33978C18.8808 3.19218 16.2079 0.673432 12.9814 0.306232C8.52747 -0.201368 4.74969 3.19464 4.74969 7.45584C4.74969 9.72384 5.82276 11.7446 7.49605 13.0634C3.82853 14.4134 1.04421 17.3882 0.152438 21.419C-0.17095 22.8842 1.03441 24.2558 2.56438 24.2558H21.6345C23.1657 24.2558 24.371 22.8842 24.0464 21.419Z" fill="black"/>
</g>
<defs>
<clipPath id="clip0_1061_18450">
<rect width="24" height="24" fill="white" transform="translate(0.0996094 0.255859)"/>
</clipPath>
</defs>
</svg>
