<svg width="18" height="18" viewBox="0 0 18 18" fill="none" xmlns="http://www.w3.org/2000/svg">
<path d="M7.5 9.12503L8.4231 10.125L10.5 7.875M6.9 15.75H11.1C11.9401 15.75 12.3602 15.75 12.681 15.5865C12.9632 15.4427 13.1927 15.2132 13.3365 14.931C13.5 14.6102 13.5 14.1901 13.5 13.35V4.65C13.5 3.80992 13.5 3.38988 13.3365 3.06902C13.1927 2.78677 12.9632 2.5573 12.681 2.41349C12.3602 2.25 11.9401 2.25 11.1 2.25H6.9C6.05992 2.25 5.63988 2.25 5.31902 2.41349C5.03677 2.5573 4.8073 2.78677 4.66349 3.06902C4.5 3.38988 4.5 3.80992 4.5 4.65V13.35C4.5 14.1901 4.5 14.6102 4.66349 14.931C4.8073 15.2132 5.03677 15.4427 5.31902 15.5865C5.63988 15.75 6.05992 15.75 6.9 15.75Z" stroke="white" stroke-width="1.25" stroke-linecap="round" stroke-linejoin="round"/>
</svg>
