<svg width="16" height="16" viewBox="0 0 16 16" fill="none" xmlns="http://www.w3.org/2000/svg">
<g clip-path="url(#clip0_1061_17893)">
<path fill-rule="evenodd" clip-rule="evenodd" d="M15.3337 2.66602C15.3337 1.56145 14.4383 0.666016 13.3337 0.666016H2.66699C1.56243 0.666016 0.666992 1.56145 0.666992 2.66602V9.33268C0.666992 10.4373 1.56243 11.3327 2.66699 11.3327H3.33366C3.70185 11.3327 4.00033 11.0342 4.00033 10.666C4.00033 10.2978 3.70185 9.99935 3.33366 9.99935H2.66699C2.29881 9.99935 2.00033 9.70088 2.00033 9.33268V5.33268H14.0003V9.33268C14.0003 9.70088 13.7019 9.99935 13.3337 9.99935H12.667C12.2988 9.99935 12.0003 10.2978 12.0003 10.666C12.0003 11.0342 12.2988 11.3327 12.667 11.3327H13.3337C14.4383 11.3327 15.3337 10.4373 15.3337 9.33268V2.66602ZM14.0003 3.99935V2.66602C14.0003 2.29783 13.7019 1.99935 13.3337 1.99935H2.66699C2.29881 1.99935 2.00033 2.29782 2.00033 2.66602V3.99935H14.0003Z" fill="white"/>
<path d="M8.66633 14.6659C8.66633 15.0341 8.36786 15.3326 7.99966 15.3326C7.63146 15.3326 7.333 15.0341 7.333 14.6659V10.9372L6.47109 11.799C6.21071 12.0595 5.78864 12.0595 5.52826 11.799C5.26792 11.5388 5.26792 11.1166 5.52826 10.8563L7.52793 8.86081C7.78833 8.60087 8.21006 8.60114 8.47026 8.86127L10.4697 10.8607C10.7301 11.1211 10.7301 11.5432 10.4697 11.8036C10.2093 12.0639 9.7872 12.0639 9.52687 11.8036L8.66633 10.9431V14.6659Z" fill="white"/>
</g>
<defs>
<clipPath id="clip0_1061_17893">
<rect width="16" height="16" fill="white"/>
</clipPath>
</defs>
</svg>
