<svg width="27" height="27" viewBox="0 0 27 27" fill="none" xmlns="http://www.w3.org/2000/svg">
<path fill-rule="evenodd" clip-rule="evenodd" d="M25.1322 4.91016C25.1322 3.11524 23.6771 1.66016 21.8822 1.66016H4.54883C2.75391 1.66016 1.29883 3.11524 1.29883 4.91016V15.7435C1.29883 17.5385 2.75391 18.9935 4.54883 18.9935H5.63216C6.23047 18.9935 6.7155 18.5085 6.7155 17.9102C6.7155 17.3118 6.23047 16.8268 5.63216 16.8268H4.54883C3.95053 16.8268 3.4655 16.3418 3.4655 15.7435V9.24349H22.9655V15.7435C22.9655 16.3418 22.4805 16.8268 21.8822 16.8268H20.7988C20.2005 16.8268 19.7155 17.3118 19.7155 17.9102C19.7155 18.5085 20.2005 18.9935 20.7988 18.9935H21.8822C23.6771 18.9935 25.1322 17.5385 25.1322 15.7435V4.91016ZM22.9655 7.07682V4.91016C22.9655 4.31185 22.4805 3.82682 21.8822 3.82682H4.54883C3.95053 3.82682 3.4655 4.31184 3.4655 4.91016V7.07682H22.9655Z" fill="black"/>
<path d="M14.2995 24.41C14.2995 25.0084 13.8145 25.4934 13.2161 25.4934C12.6178 25.4934 12.1328 25.0084 12.1328 24.41V18.3508L10.7322 19.7513C10.3091 20.1745 9.62321 20.1745 9.20009 19.7513C8.77705 19.3284 8.77705 18.6424 9.20009 18.2194L12.4496 14.9767C12.8727 14.5543 13.558 14.5547 13.9809 14.9775L17.2299 18.2266C17.653 18.6497 17.653 19.3356 17.2299 19.7587C16.8068 20.1817 16.1209 20.1817 15.6978 19.7587L14.2995 18.3604V24.41Z" fill="black"/>
</svg>
