<svg width="23" height="22" viewBox="0 0 23 22" fill="none" xmlns="http://www.w3.org/2000/svg">
<path d="M12.0123 1.1001C6.5673 1.1001 2.1123 5.56305 2.1123 11.0597C2.1123 16.0296 5.7357 20.1546 10.4679 20.9001V13.9423H7.9533V11.0597H10.4679V8.86304C10.4679 6.36817 11.943 4.99648 14.2101 4.99648C15.2892 4.99648 16.4178 5.18533 16.4178 5.18533V7.64045H15.1704C13.9428 7.64045 13.5567 8.40581 13.5567 9.19107V11.0597H16.3089L15.8634 13.9423H13.5567V20.9001C15.8895 20.5301 18.0139 19.3351 19.5461 17.5305C21.0783 15.7261 21.9176 13.431 21.9123 11.0597C21.9123 5.56305 17.4573 1.1001 12.0123 1.1001Z" fill="white"/>
</svg>
