<svg width="20" height="20" viewBox="0 0 32 33" fill="none" xmlns="http://www.w3.org/2000/svg">
<g clip-path="url(#clip0_845_257)">
<path fill-rule="evenodd" clip-rule="evenodd" d="M25.3136 22.6387C24.928 23.7302 23.3952 24.6332 22.1728 24.8973C21.336 25.0749 20.2448 25.2155 16.568 23.6918C12.4384 21.9809 6.704 15.8865 6.704 11.8309C6.704 9.76624 7.8944 7.36211 9.976 7.36211C10.9776 7.36211 11.1984 7.38164 11.528 8.17227C11.9136 9.10375 12.8544 11.3987 12.9664 11.634C13.4288 12.5991 12.496 13.164 11.8192 14.0043C11.6032 14.2572 11.3584 14.5306 11.632 15.0012C11.904 15.4621 12.8448 16.9954 14.2272 18.2262C16.0128 19.8171 17.4608 20.325 17.9792 20.541C18.3648 20.7011 18.8256 20.6638 19.1072 20.3629C19.464 19.9772 19.9072 19.3372 20.3584 18.7066C20.6768 18.2553 21.0816 18.1989 21.5056 18.359C21.792 18.4582 25.432 20.1487 25.5856 20.4191C25.6992 20.616 25.6992 21.5471 25.3136 22.6387ZM16.0032 0.0449219H15.9952C7.17439 0.0449219 0 7.22148 0 16.0449C0 19.5436 1.12801 22.7895 3.04641 25.4223L1.05281 31.3676L7.20161 29.4027C9.73121 31.0768 12.7504 32.0449 16.0032 32.0449C24.824 32.0449 32 24.8684 32 16.0449C32 7.22148 24.824 0.0449219 16.0032 0.0449219Z" fill="white"/>
</g>
<defs>
<clipPath id="clip0_845_257">
<rect width="32" height="32" fill="white" transform="translate(0 0.0449219)"/>
</clipPath>
</defs>
</svg>
