<svg width="12" height="12" viewBox="0 0 12 12" fill="none" class="report-img"><g clip-path="url(#clip0_900_5518)"><path d="M6 7.5C6.82845 7.5 7.5 6.82845 7.5 6C7.5 5.17155 6.82845 4.5 6 4.5C5.17155 4.5 4.5 5.17155 4.5 6C4.5 6.82845 5.17155 7.5 6 7.5Z" stroke="currentColor" stroke-miterlimit="10" stroke-linecap="round" stroke-linejoin="round"></path><path d="M1 6.44068V5.56068C1 5.04068 1.425 4.6107 1.95 4.6107C2.855 4.6107 3.225 3.9707 2.77 3.1857C2.51 2.7357 2.665 2.1507 3.12 1.8907L3.985 1.3957C4.38 1.1607 4.89 1.3007 5.125 1.6957L5.18 1.7907C5.63 2.5757 6.37 2.5757 6.825 1.7907L6.88 1.6957C7.115 1.3007 7.625 1.1607 8.02 1.3957L8.885 1.8907C9.34 2.1507 9.495 2.7357 9.235 3.1857C8.78 3.9707 9.15 4.6107 10.055 4.6107C10.575 4.6107 11.005 5.03568 11.005 5.56068V6.44068C11.005 6.96068 10.58 7.39068 10.055 7.39068C9.15 7.39068 8.78 8.03068 9.235 8.81568C9.495 9.27068 9.34 9.85068 8.885 10.1107L8.02 10.6057C7.625 10.8407 7.115 10.7007 6.88 10.3057L6.825 10.2107C6.375 9.42568 5.635 9.42568 5.18 10.2107L5.125 10.3057C4.89 10.7007 4.38 10.8407 3.985 10.6057L3.12 10.1107C2.665 9.85068 2.51 9.26568 2.77 8.81568C3.225 8.03068 2.855 7.39068 1.95 7.39068C1.425 7.39068 1 6.96068 1 6.44068Z" stroke="currentColor" stroke-miterlimit="10" stroke-linecap="round" stroke-linejoin="round"></path></g><defs><clipPath id="clip0_900_5518"><rect width="12" height="12" fill="white"></rect></clipPath></defs></svg>