<svg xmlns="http://www.w3.org/2000/svg" width="18" height="18" viewBox="0 0 18 18" fill="none"><path d="M4.085 13.045q0-1.065.147-2.1a.306.306 0 0 1 .426-.238l.112.048q.663.28 1.342.496a.307.307 0 0 1 .208.352 9 9 0 0 0-.166 1.732c0 1.562.396 3.063 1.139 4.39.045.08.124.136.215.151l.016.003a.307.307 0 0 0 .316-.453 8.4 8.4 0 0 1-.93-5.607.31.31 0 0 1 .373-.246 15.6 15.6 0 0 0 3.533.403 15.4 15.4 0 0 0 6.949-1.638.31.31 0 0 0 .168-.24.307.307 0 0 0-.444-.31 14.84 14.84 0 0 1-6.673 1.57c-1.144 0-2.268-.129-3.356-.378a.31.31 0 0 1-.221-.403c1.143-3.275 4.262-5.63 7.922-5.63q.879.001 1.708.175a.141.141 0 0 0 .154-.202 9 9 0 0 0-.171-.32.3.3 0 0 0-.215-.151 9 9 0 0 0-1.476-.12 8.95 8.95 0 0 0-6.369 2.637 9 9 0 0 0-2.167 3.481.31.31 0 0 1-.386.198 15 15 0 0 1-1.6-.619.31.31 0 0 1-.173-.35A14.8 14.8 0 0 1 8.453 2.5 15 15 0 0 1 11.086.398a.098.098 0 0 0-.035-.18l-.531-.09a.3.3 0 0 0-.22.047 15.6 15.6 0 0 0-2.284 1.887 15.5 15.5 0 0 0-4.082 7.184.308.308 0 0 1-.449.192q-.372-.21-.733-.443a.31.31 0 0 1-.134-.328 9 9 0 0 0 .232-2.045 9 9 0 0 0-.59-3.22.163.163 0 0 0-.282-.038l-.164.217a.31.31 0 0 0-.046.287 8.35 8.35 0 0 1 .35 4.134.305.305 0 0 1-.489.192c-.307-.242-.8-.69-1.11-.976a.22.22 0 0 0-.366.12l-.032.18a.31.31 0 0 0 .093.276q.694.65 1.455 1.205c.108.08.152.22.108.348A8.4 8.4 0 0 1 .54 11.668a.3.3 0 0 0-.044.286q.054.157.115.311c.036.094.16.113.224.035a9 9 0 0 0 1.423-2.454.308.308 0 0 1 .449-.152q.399.245.813.465c.115.061.178.19.157.32q-.21 1.264-.21 2.566 0 1.63.328 3.196a.3.3 0 0 0 .126.19q.162.11.327.213a.155.155 0 0 0 .233-.167 15 15 0 0 1-.396-3.432" fill="url(#a)"/><path d="M4.565 9.992a15 15 0 0 0 1.766.682.21.21 0 0 0 .264-.135 9 9 0 0 1 2.198-3.573 8.95 8.95 0 0 1 6.368-2.638q.654.001 1.291.092a.155.155 0 0 0 .152-.236A9.02 9.02 0 0 0 11.354.31a.2.2 0 0 0-.166.024A15 15 0 0 0 8.453 2.5a14.8 14.8 0 0 0-4.005 7.256.21.21 0 0 0 .117.236" fill="url(#b)"/><path d="M7.202 10.684a.21.21 0 0 0 .153.272c1.12.265 2.28.401 3.46.401 2.4 0 4.713-.564 6.789-1.628a.72.72 0 0 0 .395-.636V9c0-1.31-.28-2.555-.784-3.679a.3.3 0 0 0-.21-.17 8.4 8.4 0 0 0-1.844-.204c-3.7 0-6.847 2.407-7.959 5.737" fill="url(#c)"/><path d="M3.597 9.501a.21.21 0 0 0 .307-.134q.294-1.21.784-2.368a15.5 15.5 0 0 1 3.328-4.936A15.6 15.6 0 0 1 10.155.275a.114.114 0 0 0-.05-.208 8.98 8.98 0 0 0-7.86 2.986.21.21 0 0 0-.036.218 9 9 0 0 1 .641 3.351q-.002 1.082-.246 2.107a.21.21 0 0 0 .088.227q.444.29.905.545" fill="url(#d)"/><path d="M9 18a9 9 0 0 0 8.844-7.325.21.21 0 0 0-.298-.23q-.338.165-.684.31a15.4 15.4 0 0 1-6.045 1.22 15.6 15.6 0 0 1-3.631-.425.21.21 0 0 0-.255.164 8.4 8.4 0 0 0 .968 5.814c.16.277.452.454.772.466Q8.836 18 9 18" fill="url(#e)"/><path d="M.25 7.827a.109.109 0 0 0-.182.067A9.1 9.1 0 0 0 .37 11.56c.03.1.16.122.221.04a8.4 8.4 0 0 0 1.21-2.322.21.21 0 0 0-.076-.24 16 16 0 0 1-1.476-1.21" fill="url(#f)"/><path d="M6.155 13.335q0-.929.183-1.817a.21.21 0 0 0-.145-.242q-.72-.225-1.422-.521l-.228-.097a.213.213 0 0 0-.293.165 15.1 15.1 0 0 0 .298 5.924.2.2 0 0 0 .102.133c.742.41 1.549.72 2.4.907a.147.147 0 0 0 .161-.212 8.96 8.96 0 0 1-1.056-4.24" fill="url(#g)"/><path d="M3.467 13.045q0-1.337.221-2.633a.21.21 0 0 0-.11-.222q-.496-.262-.971-.558a.21.21 0 0 0-.309.107 9 9 0 0 1-1.33 2.393.73.73 0 0 0-.086.758 9.04 9.04 0 0 0 2.682 3.283c.09.068.215-.01.193-.119q-.29-1.478-.29-3.01" fill="url(#h)"/><path d="M2.233 6.622c0-.943-.157-1.85-.445-2.696a.114.114 0 0 0-.201-.029C1.025 4.702.56 5.73.286 6.732a.38.38 0 0 0 .112.384c.308.282.962.872 1.358 1.176a.21.21 0 0 0 .335-.13q.14-.75.142-1.54" fill="url(#i)"/><defs><radialGradient id="b" cx="0" cy="0" r="1" gradientUnits="userSpaceOnUse" gradientTransform="translate(3.973 4.268)scale(13.6716)"><stop stop-color="#ff931e"/><stop offset=".325" stop-color="#ff901c"/><stop offset=".567" stop-color="#ff8717"/><stop offset=".781" stop-color="#ff770e"/><stop offset=".978" stop-color="#ff6002"/><stop offset="1" stop-color="#ff5d00"/></radialGradient><radialGradient id="c" cx="0" cy="0" r="1" gradientUnits="userSpaceOnUse" gradientTransform="translate(3.972 4.268)scale(13.6716)"><stop stop-color="#ff931e"/><stop offset=".325" stop-color="#ff901c"/><stop offset=".567" stop-color="#ff8717"/><stop offset=".781" stop-color="#ff770e"/><stop offset=".978" stop-color="#ff6002"/><stop offset="1" stop-color="#ff5d00"/></radialGradient><radialGradient id="d" cx="0" cy="0" r="1" gradientUnits="userSpaceOnUse" gradientTransform="translate(3.973 4.268)scale(13.6716)"><stop stop-color="#ff931e"/><stop offset=".325" stop-color="#ff901c"/><stop offset=".567" stop-color="#ff8717"/><stop offset=".781" stop-color="#ff770e"/><stop offset=".978" stop-color="#ff6002"/><stop offset="1" stop-color="#ff5d00"/></radialGradient><radialGradient id="e" cx="0" cy="0" r="1" gradientUnits="userSpaceOnUse" gradientTransform="translate(3.973 4.268)scale(13.6716)"><stop stop-color="#ff931e"/><stop offset=".325" stop-color="#ff901c"/><stop offset=".567" stop-color="#ff8717"/><stop offset=".781" stop-color="#ff770e"/><stop offset=".978" stop-color="#ff6002"/><stop offset="1" stop-color="#ff5d00"/></radialGradient><radialGradient id="f" cx="0" cy="0" r="1" gradientUnits="userSpaceOnUse" gradientTransform="translate(3.973 4.268)scale(13.6716)"><stop stop-color="#ff931e"/><stop offset=".325" stop-color="#ff901c"/><stop offset=".567" stop-color="#ff8717"/><stop offset=".781" stop-color="#ff770e"/><stop offset=".978" stop-color="#ff6002"/><stop offset="1" stop-color="#ff5d00"/></radialGradient><radialGradient id="g" cx="0" cy="0" r="1" gradientUnits="userSpaceOnUse" gradientTransform="translate(3.973 4.268)scale(13.6716)"><stop stop-color="#ff931e"/><stop offset=".325" stop-color="#ff901c"/><stop offset=".567" stop-color="#ff8717"/><stop offset=".781" stop-color="#ff770e"/><stop offset=".978" stop-color="#ff6002"/><stop offset="1" stop-color="#ff5d00"/></radialGradient><radialGradient id="h" cx="0" cy="0" r="1" gradientUnits="userSpaceOnUse" gradientTransform="translate(3.973 4.268)scale(13.6716)"><stop stop-color="#ff931e"/><stop offset=".325" stop-color="#ff901c"/><stop offset=".567" stop-color="#ff8717"/><stop offset=".781" stop-color="#ff770e"/><stop offset=".978" stop-color="#ff6002"/><stop offset="1" stop-color="#ff5d00"/></radialGradient><radialGradient id="i" cx="0" cy="0" r="1" gradientUnits="userSpaceOnUse" gradientTransform="translate(3.973 4.268)scale(13.6716)"><stop stop-color="#ff931e"/><stop offset=".325" stop-color="#ff901c"/><stop offset=".567" stop-color="#ff8717"/><stop offset=".781" stop-color="#ff770e"/><stop offset=".978" stop-color="#ff6002"/><stop offset="1" stop-color="#ff5d00"/></radialGradient><linearGradient id="a" x1=".117" y1="9.004" x2="17.934" y2="9.004" gradientUnits="userSpaceOnUse"><stop stop-color="#654e48"/><stop offset=".445" stop-color="#5f4843"/><stop offset="1" stop-color="#503837"/></linearGradient></defs></svg>