<svg xmlns="http://www.w3.org/2000/svg" width="18" height="18" viewBox="0 0 18 18" fill="none"><path d="M17.993 9.359a8.97 8.97 0 0 1-2.63 6.005 8.97 8.97 0 0 1-6.555 2.634 8.97 8.97 0 0 1-6.172-2.634A8.97 8.97 0 0 1 .007 8.64a8.97 8.97 0 0 1 2.629-6.005A8.97 8.97 0 0 1 9.192.002a8.97 8.97 0 0 1 6.172 2.634 8.97 8.97 0 0 1 2.629 6.723" fill="#fcf6d6"/><path d="M6.438 15.364A9 9 0 0 1 10.9.202a9 9 0 1 0 0 17.596 8.96 8.96 0 0 1-4.463-2.434" fill="#eae3c5"/><path d="M9.192.002v.001a9.22 9.22 0 0 1-2.716 6.473A9.22 9.22 0 0 1 .003 9.192a9 9 0 0 1 .004-.551 8.68 8.68 0 0 0 6.08-2.555A8.67 8.67 0 0 0 8.64.007q.275-.01.55-.005m8.802 9.357a8.67 8.67 0 0 0-6.078 2.555 8.67 8.67 0 0 0-2.555 6.079 9 9 0 0 1-.551.005 9.22 9.22 0 0 1 2.716-6.474 9.22 9.22 0 0 1 6.473-2.716q.007.275-.005.55" fill="#c1bba0"/><path d="M16.58 10.248a.276.276 0 0 1-.217-.445.787.787 0 0 0-.138-1.103.275.275 0 1 1 .338-.435c.582.453.687 1.294.234 1.876a.28.28 0 0 1-.217.107m-1.391.312a.275.275 0 0 1-.241-.41.68.68 0 0 0 .06-.519.68.68 0 0 0-.325-.409.276.276 0 1 1 .267-.482c.289.16.497.423.588.74s.052.65-.108.938a.28.28 0 0 1-.241.142m-1.329.576a.277.277 0 0 1-.262-.363.604.604 0 0 0-.384-.768.276.276 0 1 1 .174-.523 1.155 1.155 0 0 1 .733 1.465.28.28 0 0 1-.261.189m-1.236.843-.03-.002a.276.276 0 0 1-.244-.305.57.57 0 0 0-.501-.626.276.276 0 0 1 .06-.548 1.12 1.12 0 0 1 .989 1.235.276.276 0 0 1-.274.245m-1.052 1.052a.276.276 0 0 1-.273-.245.57.57 0 0 0-.627-.501.275.275 0 1 1-.06-.548 1.12 1.12 0 0 1 1.234.988.276.276 0 0 1-.274.306m-.777 1.171a.28.28 0 0 1-.261-.188.6.6 0 0 0-.305-.351.6.6 0 0 0-.464-.033.275.275 0 1 1-.174-.523 1.15 1.15 0 0 1 .884.063c.277.138.483.376.581.67a.275.275 0 0 1-.261.362m-.536 1.289a.28.28 0 0 1-.242-.141.68.68 0 0 0-.409-.325.68.68 0 0 0-.519.06.275.275 0 1 1-.268-.482 1.23 1.23 0 0 1 1.679.48.275.275 0 0 1-.241.409m-.293 1.37a.28.28 0 0 1-.217-.106.787.787 0 0 0-1.103-.138.276.276 0 1 1-.338-.435 1.34 1.34 0 0 1 1.875.235.276.276 0 0 1-.217.444M9.518 1.883a.28.28 0 0 1-.218-.107.78.78 0 0 0-.523-.297.78.78 0 0 0-.58.16.275.275 0 1 1-.338-.436c.282-.219.633-.315.987-.27.354.043.67.223.89.505a.276.276 0 0 1-.218.445M9.02 3.46a.28.28 0 0 1-.24-.142.684.684 0 0 0-.93-.265.275.275 0 1 1-.267-.482 1.235 1.235 0 0 1 1.678.48.275.275 0 0 1-.24.409m-.763 1.515a.28.28 0 0 1-.262-.188.603.603 0 0 0-.768-.385.276.276 0 1 1-.174-.522 1.15 1.15 0 0 1 .884.063c.277.138.483.376.581.67a.276.276 0 0 1-.261.362m-1.03 1.422a.276.276 0 0 1-.273-.245.57.57 0 0 0-.627-.501.275.275 0 1 1-.06-.548 1.12 1.12 0 0 1 1.235.988.275.275 0 0 1-.275.306M5.991 7.635a.276.276 0 0 1-.274-.306.564.564 0 0 0-.501-.627.276.276 0 0 1 .06-.547c.298.033.564.18.75.412.187.234.272.526.239.823a.276.276 0 0 1-.274.245m-1.357.964a.276.276 0 0 1-.261-.363.603.603 0 0 0-.385-.768.276.276 0 0 1 .175-.523 1.154 1.154 0 0 1 .732 1.465.28.28 0 0 1-.261.189m-1.477.722a.275.275 0 0 1-.24-.409.68.68 0 0 0 .06-.52.68.68 0 0 0-.325-.408.275.275 0 1 1 .267-.482c.288.16.497.423.587.74.09.316.053.65-.108.938a.28.28 0 0 1-.24.141M1.601 9.8a.275.275 0 0 1-.217-.445.78.78 0 0 0 .16-.58.78.78 0 0 0-.298-.523.275.275 0 1 1 .338-.435c.282.22.462.535.506.89a1.33 1.33 0 0 1-.271.986.28.28 0 0 1-.218.106" fill="#ea5149"/></svg>