<svg width="18" height="18" viewBox="0 0 18 18" fill="none" xmlns="http://www.w3.org/2000/svg"><path d="M18 9a8.93 8.93 0 0 1-1.512 4.993q-.195.3-.422.578a8.6 8.6 0 0 1-1.585 1.567q-.216.17-.441.323-.348.232-.714.437h-.006a9 9 0 0 1-1.288.578q-.491.179-1.002.291a8 8 0 0 1-1.09.18A9 9 0 0 1 9 18a9 9 0 0 1-9-9 9.1 9.1 0 0 1 .403-2.678 9.2 9.2 0 0 1 .916-2.017l.006-.01q.39-.638.885-1.2a7 7 0 0 1 .577-.603l.006-.006q.428-.416.913-.763.298-.218.61-.413.328-.196.668-.363.3-.158.618-.283h.003q.311-.13.636-.232.305-.1.618-.174A9.003 9.003 0 0 1 17.999 9" fill="#c03a2b"/><path d="M15.055 15.66a8 8 0 0 1-.574.478A12.55 12.55 0 0 1 3.554 3.662q-.002-.976.152-1.94.298-.217.611-.412a.3.3 0 0 1 .047.223 11.974 11.974 0 0 0 10.49 14.025.33.33 0 0 1 .201.102m1.012-1.09a9 9 0 0 1-.438.519 16 16 0 0 1-.422-.069.31.31 0 1 1 .109-.61c.195.036.391.064.59.092q.091.01.161.068" fill="#e6e7e8"/><path d="M7.55 9.351a.31.31 0 1 0-.514.349c.233.343.486.679.753.998a.31.31 0 1 0 .476-.397 12 12 0 0 1-.715-.95M5.844 7.505c.16.382.342.761.541 1.127a.31.31 0 0 0 .546-.296 12 12 0 0 1-.514-1.071.31.31 0 0 0-.573.24m-.606-3.347h.031a.31.31 0 0 0 .28-.338 12 12 0 0 1-.057-1.189.305.305 0 0 0-.31-.305.315.315 0 0 0-.31.316c0 .413.02.83.06 1.238a.31.31 0 0 0 .306.278m-.125.958q.123.615.306 1.213a.31.31 0 1 0 .594-.182 12 12 0 0 1-.29-1.153.31.31 0 1 0-.61.122m5.38 7.637a.31.31 0 0 0 .09.43c.349.226.712.439 1.08.63a.31.31 0 0 0 .286-.55c-.35-.182-.695-.384-1.025-.601a.31.31 0 0 0-.431.09m-1.86-1.574a.31.31 0 0 0 .004.439c.296.29.61.57.934.831a.31.31 0 1 0 .391-.484 12 12 0 0 1-.889-.79.31.31 0 0 0-.44.004m3.996 2.752a.31.31 0 0 0 .173.404q.582.231 1.185.404a.31.31 0 1 0 .17-.597 12 12 0 0 1-1.125-.384.31.31 0 0 0-.403.174M5.627.835q-.045.3-.077.599a.307.307 0 0 1-.308.28h-.03a.315.315 0 0 1-.28-.342c.016-.143.031-.286.053-.425q.301-.158.617-.283h.003q.034.083.022.171m-4.302 3.46a.31.31 0 0 1 .156.292q-.024.298-.028.602a.31.31 0 0 1-.31.304h-.007a.31.31 0 0 1-.301-.28zm1.125 5.918a12 12 0 0 1-.453-1.208.31.31 0 1 0-.592.186q.204.65.477 1.273a.31.31 0 1 0 .568-.249zm-.772-2.459a12 12 0 0 1-.182-1.276.31.31 0 1 0-.618.054q.06.677.19 1.343a.31.31 0 1 0 .61-.12m5.881 8.097a12 12 0 0 1-1.089-.692.31.31 0 0 0-.36.505q.553.395 1.144.728a.31.31 0 0 0 .305-.541m-3.013-2.404a.31.31 0 0 0-.46.416q.456.504.963.955a.31.31 0 1 0 .412-.464q-.48-.43-.915-.907m5.379 3.414a12 12 0 0 1-1.21-.441.31.31 0 0 0-.244.57q.624.267 1.274.466.045.013.09.013a.31.31 0 0 0 .09-.607zM3.03 11.365a.31.31 0 1 0-.537.31q.338.588.738 1.138a.311.311 0 0 0 .502-.365q-.381-.523-.702-1.084m9.001 6.112a8 8 0 0 1-1.002.291.308.308 0 0 1 .155-.595q.297.055.596.096a.3.3 0 0 1 .25.208M2.794 2.486a.3.3 0 0 1 .084.26c-.028.2-.05.398-.069.603a.31.31 0 0 1-.31.282q-.015 0-.028-.003a.307.307 0 0 1-.28-.335l.02-.199zM9.428 15.81a.31.31 0 1 0 .261-.564 12 12 0 0 1-1.077-.57.31.31 0 0 0-.318.534q.552.33 1.134.6m-2.771-2.585a.31.31 0 0 0-.42.458q.476.432.99.816.083.061.185.062a.31.31 0 0 0 .186-.559 12 12 0 0 1-.941-.777m5.333 2.815a12 12 0 0 1-1.17-.337.31.31 0 1 0-.203.587q.607.209 1.232.355a.31.31 0 0 0 .142-.604m-7.736-5.232a.31.31 0 0 0 .113-.425 12 12 0 0 1-.557-1.086.31.31 0 0 0-.566.255q.264.585.586 1.142a.31.31 0 0 0 .424.112zm.778.598a.31.31 0 0 0-.502.364q.377.52.805 1a.31.31 0 0 0 .463-.414q-.407-.455-.766-.95m-2.5-5.277.036-.003a.31.31 0 0 0 .273-.343q-.07-.606-.08-1.218a.314.314 0 0 0-.314-.305.31.31 0 0 0-.306.314q.009.642.082 1.28a.31.31 0 0 0 .31.275m.14.62a.31.31 0 0 0-.236.37q.14.627.341 1.238a.31.31 0 0 0 .59-.196 12 12 0 0 1-.325-1.176.31.31 0 0 0-.37-.236m11.366 9.71q-.348.234-.714.438h-.006l-.199-.024a.31.31 0 0 1 .081-.615q.297.037.602.06a.29.29 0 0 1 .236.142M6.869.366c-.019.202-.034.4-.047.606a.307.307 0 0 1-.307.291h-.019a.31.31 0 0 1-.291-.325 9 9 0 0 1 .037-.506c.201-.066.41-.124.617-.174q.015.053.01.108m3.214 10.357a.31.31 0 0 0 .429-.45 12 12 0 0 1-.885-.94.31.31 0 1 0-.474.401q.439.52.93.989m3.343 2.29q.615.288 1.256.509a.31.31 0 0 0 .201-.587 12 12 0 0 1-1.194-.484.31.31 0 1 0-.263.562m-1.196-.642a.31.31 0 0 0 .323-.53 12 12 0 0 1-1.063-.729.31.31 0 0 0-.378.493q.54.412 1.119.766M7.637 7.49q.317.6.698 1.163a.31.31 0 0 0 .514-.348q-.362-.534-.663-1.105a.31.31 0 1 0-.55.29M6.497 1.968a.31.31 0 0 0-.293.326q.035.678.144 1.349a.31.31 0 0 0 .613-.1 12 12 0 0 1-.138-1.282.31.31 0 0 0-.326-.293m.14 3.001q.18.656.431 1.287a.31.31 0 1 0 .577-.228q-.237-.6-.41-1.224a.31.31 0 0 0-.598.165m10.19 8.475q-.157.28-.338.55a8 8 0 0 1-.493-.1.31.31 0 1 1 .136-.605q.294.064.593.114.056.01.102.04" fill="#e6e7e8"/><path d="M15.297 5.076c-.699-.868-1.698-1.223-2.232-.793s-.401 1.482.297 2.35c.699.867 1.698 1.222 2.232.793.534-.43.401-1.482-.297-2.35m-4.075-2.954c-.504-.104-.98.138-1.063.54-.083.403.257.814.76.919.504.104.98-.138 1.063-.541.084-.403-.257-.814-.76-.918" fill="#e64c3c"/></svg>