<svg width="19" height="18" viewBox="0 0 19 18" fill="none" xmlns="http://www.w3.org/2000/svg"><path d="M0 8.999q.001.399.034.791c.077.882.283 1.729.595 2.516a9 9 0 0 0 1.245 2.19 8.98 8.98 0 0 0 5.904 3.423q.063.005.128.017.539.064 1.095.064a8.97 8.97 0 0 0 5.288-1.715 9.1 9.1 0 0 0 2.143-2.204 8.8 8.8 0 0 0 1.027-1.993 9.04 9.04 0 0 0-.192-6.661l-.026-.056A9.05 9.05 0 0 0 12.514.712 9 9 0 0 0 9 .002q-.73 0-1.429.111a8.9 8.9 0 0 0-3.208 1.172q-.065.038-.129.082a9 9 0 0 0-2.451 2.258A8.94 8.94 0 0 0 0 9" fill="#d4d6d6"/><path d="M18.005 8.997a9.1 9.1 0 0 1-.694 3.476c-.24.57-.533 1.11-.878 1.61a9 9 0 0 1-5.861 1.293l-.127-.015a9.01 9.01 0 0 1-7.152-5.614 8.9 8.9 0 0 1-.626-3.304 8.96 8.96 0 0 1 1.567-5.077q.066-.045.132-.079A8.8 8.8 0 0 1 7.572.113 9.5 9.5 0 0 1 9.001.001a8.99 8.99 0 0 1 8.239 5.37q.015.028.026.056a9 9 0 0 1 .739 3.57" fill="#e0e2e2"/><path d="M18.004 8.997a9.1 9.1 0 0 1-.693 3.476 9 9 0 0 1-2.738.428c-.367 0-.735-.023-1.095-.064-.045-.004-.086-.015-.131-.019a9 9 0 0 1-5.903-3.424A8.8 8.8 0 0 1 6.2 7.204a9.2 9.2 0 0 1-.63-3.3c0-1.233.248-2.41.702-3.483q.631-.202 1.3-.308a9.5 9.5 0 0 1 1.43-.112 8.99 8.99 0 0 1 8.238 5.37q.017.027.027.056a9 9 0 0 1 .738 3.57M4.223 8.203a45 45 0 0 0 1.758 4.133q-.264.313-.483.658a9 9 0 0 1-2.204-3.247 8.8 8.8 0 0 1-.5-1.784c.453.12.933.201 1.429.24" fill="#ecf0f1"/><path d="m17.28 5.49-.608.159-.017-.064-.012-.06.598-.154c.01.013.013.03.022.043l.004.012z" fill="#ecf0f1"/><path opacity=".5" d="M9.357 5.787q0 .13.012.259a2.9 2.9 0 0 0 .6 1.538 2.936 2.936 0 0 0 4.059.584c.272-.198.508-.442.7-.72a2.94 2.94 0 0 0 .273-2.829l-.009-.018a2.93 2.93 0 0 0-3.16-1.718 2.9 2.9 0 0 0-1.048.383l-.042.027a2.9 2.9 0 0 0-.802.738 2.92 2.92 0 0 0-.583 1.756" fill="#fff"/><path opacity=".5" d="M9.357 5.787a2.942 2.942 0 1 0 4.09-2.708c-1.924-.817-4.09.594-4.09 2.708" fill="#fff"/><path d="M1.846 14.125c.648.438 1.54.761 2.79 1.012.686.897 1.78 1.577 3.113 2.128 0 .206.013.451.028.653l.13.017a9 9 0 0 1-.03-.654 8.1 8.1 0 0 0 3.398-1.224v.01q.28.022.573.021c.836 0 1.736-.124 2.599-.36l-.157.555a9.03 9.03 0 0 0 3.167-4.194l-.442.262c-.185-1.473-.402-2.485-.66-3.091a7.4 7.4 0 0 0 .301-3.673l.016.062.609-.158-.032-.125-.61.159.017.062Q15.47 4.003 13.82 3.148l.013-.007c-.526-.931-1.128-1.725-1.789-2.362l.468-.068A9.06 9.06 0 0 0 7.57.113l.333.153a13.7 13.7 0 0 0-2.491 1.848c-1.17.308-2.219.834-3.122 1.625a2.4 2.4 0 0 0-.427-.222l-.081.108a2 2 0 0 1 .426.214c-.546 1.108-.849 2.276-.788 3.534a9.8 9.8 0 0 0-1.129 2.806 1.6 1.6 0 0 1-.257-.39 8.95 8.95 0 0 0 1.838 4.707 1.2 1.2 0 0 1-.026-.371m2.499-5.962 2.65-3.403c1.57.115 3.066.299 4.445.548l1.63 3.875c-.707 1.126-1.57 2.304-2.706 3.69L6.1 12.29a45 45 0 0 1-1.754-4.126m9.329-5.042c-.88.542-1.64 1.208-2.22 2.06a43 43 0 0 0-4.441-.548 9.2 9.2 0 0 0-1.443-2.49A13.2 13.2 0 0 1 8.097.304c1.182-.06 2.436.108 3.743.447l-.006.005c.68.629 1.299 1.424 1.84 2.364M11.35 15.944c-.16-1.096-.452-2.092-.904-2.967 1.142-1.394 2.011-2.578 2.723-3.71.925.265 1.968.265 3.087.09.252.615.463 1.637.645 3.118a13.2 13.2 0 0 1-2.34 3.09l-.001-.002c-1.071.31-2.208.445-3.21.38m-6.734-.942c-1.26-.256-2.143-.586-2.775-1.037-.765-1.241-1.263-2.45-1.467-3.621l.013.002c.186-.935.61-2.02 1.12-2.869q1.218.608 2.717.728a45 45 0 0 0 1.755 4.131 6.76 6.76 0 0 0-1.363 2.666" fill="#5b5e71"/><path d="M15.436 14.616q-.399.488-.873.95l-.005-.005c-1.069.313-2.207.445-3.208.381a16 16 0 0 0-.086-.513 7 7 0 0 1-.693-.052l-.128-.017a8.95 8.95 0 0 1-4.946-2.365A6.7 6.7 0 0 0 4.617 15c-1.259-.257-2.144-.586-2.777-1.035-.762-1.241-1.262-2.452-1.468-3.624l.013.004a9.7 9.7 0 0 1 1.12-2.87q.61.308 1.289.487a8 8 0 0 1-.095-.731 8.9 8.9 0 0 1 .667-4.274 7.3 7.3 0 0 0-1.077.779 2.4 2.4 0 0 0-.424-.219 1 1 0 0 0-.081.107c.167.056.35.167.423.214-.5 1.014-.795 2.08-.795 3.217q.001.159.008.317A9.7 9.7 0 0 0 .29 10.18a1.7 1.7 0 0 1-.256-.39 8.97 8.97 0 0 0 1.84 4.706 1.2 1.2 0 0 1-.026-.372c.646.44 1.536.761 2.79 1.014.684.898 1.78 1.574 3.11 2.126 0 .206.013.454.03.655q.063.005.128.017c-.013-.201-.03-.45-.03-.655 1.28-.167 2.404-.581 3.401-1.223l-.004.008q.282.024.577.022c.835 0 1.733-.124 2.597-.36l-.158.557a9.1 9.1 0 0 0 2.143-2.204 8 8 0 0 1-.996.535m1.83-9.19-.004-.012-.012-.047-.01.004-.598.154.013.06.017.064.607-.158z" fill="#525566"/></svg>