<svg width="38" height="18" viewBox="0 0 38 18" fill="none" xmlns="http://www.w3.org/2000/svg"><path d="M31.37.121c.794-.022 1.824-.204 2.157-.075s.709.29.892.332c.182.043.31.301.246.473s.419.386 1.16.515 1.406.526 1.406.526l-.279.72s-.205.18-.555.157c-.422.004-.91.028-1.212-.028l-.101-.004-.463-.065-.353-.024-.23-.028-.334.028s-.318.06-.37.097c-.053.037-.242.145-.262.306s.185.278.35.282.455-.036.7-.088c.247-.053.383-.105.524-.04.14.064.6.217.6.217s.48.077.628.044.177-.1.177-.1c.004.14-.12.305-.302.394-.181.089-.35-.016-.825-.06-.476-.044-.504.092-.934.12-.431.029-.604-.152-1.071.057-.467.21-2.158.805-2.61 1.136-.45.331-.62.395-1.247.773-.629.379-2.148 2.378-2.148 2.378s-1.782-1.404-1.782-1.428-.281-3.14-.281-3.14l.217-.156c.185.019 3.316-.377 3.981-1.186-.172-.011-.11-.065-.288-.043-.177.021-.445.112-.598.097-.154-.015-.412-.01-.495-.369.38-.143.594-.205 1.13-.753C29.337.64 30.28-.104 31.37.121" fill="#ebbd7a"/><path d="M34.665.851C34.73.68 34.6.421 34.418.38l-.09-.026c.137.212-.16.705.146.992.324.309-.037 1.015-1.196.816-1.16-.2-1.958.924.018 1.577l.116.038c.176.01.336.06.577.044.43-.029.459-.166.934-.121.474.044.644.149.825.06.181-.088.306-.253.302-.394 0 0-.029.067-.177.1-.149.033-.628-.044-.628-.044s-.459-.153-.6-.217c-.141-.065-.278-.012-.524.04a3.6 3.6 0 0 1-.7.088c-.165-.004-.37-.12-.35-.281s.21-.27.261-.306c.053-.037.37-.098.37-.098l.335-.028.23.028.354.024.463.065.1.004c.303.057.79.033 1.212.028.35.024.556-.157.556-.157l.279-.72s-.666-.396-1.406-.525c-.741-.13-1.224-.343-1.16-.515" fill="#fff8dd"/><path d="M34.789 3.226c.174-.182.536-.241.493-.137-.043.105-.078.215-.005.195s.107.067.107.067c.17-.083.473.024.338.13 0-.002-.544.003-.934-.255m.33-.47c.03.129.241.161.284.097-.04.448.312.211.365.099.11.118.413-.175.413-.175s-.918.023-1.062-.022m-1.67.576c.238-.137.475-.43.592-.422s-.036.222.117.178.29.024.29.1c-.178.036-.298.049-.31.065-.012.017-.653.1-.689.08" fill="#fff4e5"/><path d="M17.94 7.776c2.06.816 2.834 1.804 2.834 1.804l4.294.43c.945-.43 1.847-1.848 1.847-1.848-2.147-2.018-1.847-4.724-1.847-4.724s-1.803-.171-3.822-.858c-2.018-.688-3.222-1.545-3.952-1.138-.73.406-3.092 3.37-3.092 3.757s.086 2.32.214 2.448c.13.129 3.524.129 3.524.129" fill="#ebbd7a"/><path d="M24.208 5.543c1.804 1.116 1.16 3.908.859 4.466s-2.706 1.718-4.38 1.847c-1.675.129-5.927 1.846-6.485 2.834-.559.987-2.706 1.632-2.922 1.76-.429-.772.43-1.932 1.202-1.803 1.2-1.03 1.717-1.288 1.674-1.632-.042-.343.043-.473.43-.43.386.044 2.748-1.245 3.522-1.545s1.803-1.289 2.147-2.32 1.42-3.65 3.953-3.177M8.318 3.739c-.386.494-.837 1.546-1.9 2.609C5.28 7.486 3.294 8.764 2.006 8.635.93 8.527-.314 7.132.717 6.359c-.43-.13-.901.816-.644 1.546.258.73 1.03 1.546 2.534 1.546s3.8-1.697 4.68-2.276c.726-.478 1.858-.956 1.901-1.128s-.87-2.308-.87-2.308" fill="#ebbd7a"/><path d="M37.231 1.892c-.354-.021-.709.183-.74.228.02.194.31.194.31.194-.042-.097.119-.13.15-.053.033.076-.053.097-.053.097.13.086.033.269.033.269.107-.08.558-.498.3-.735" fill="#2e0b06"/><path d="M17.294 1.441c-.88 1.246-1.675 4.638-1.675 4.96.945.323 1.783.323 1.997.709s1.053.15 1.31 2.061.195 4.488 1.74 5.862c1.544 1.375 4.358 1.783 5.067 1.591.408.15.537.923.537.988s-.28.13-.28.13c-.15.257-.794.472-1.803-.13-1.01-.602-3.178-1.396-3.758-1.461s-1.503.107-1.417-.601c-.408-1.804-1.201-3.264-2.77-3.93-1.569-.665-5.068-.58-7.129-2.512-2.06-1.933-.878-5.219-.794-5.37.6-.708 2.448-2.447 4.831-2.512s4.144.215 4.144.215" fill="#ebbd7a"/><path d="M11.845 3.6c-2.58.632-4.712 4.349-1.595 4.711s6.04 1.619 6.742 2.464c.7.846 1.642-3.527-1.644-3.89-3.286-.362-.845-3.939-3.503-3.286m11.84 2.512c-1.532-.228-.459 2.077-1.546 3.408-1.088 1.33-.145 1.377 1.136.459s2.198-3.602.41-3.867" fill="#ffe4bd" style="mix-blend-mode:screen"/></svg>