<svg width="27" height="18" viewBox="0 0 27 18" fill="none" xmlns="http://www.w3.org/2000/svg"><path d="M6 8.77v2.307l-2.77 1.385-2.769 3.23.924.923 2.769-2.307 3.692-1.846L9.692 9.23zm11.077 1.384 2.308 5.077L21.692 18h.924l-2.308-5.078-.923-3.23z" fill="#966342"/><path d="m26.77 6.923-1.155 1.154-1-.846-1.351-1.144-.649-.549-2.307 2.308v2.77L18 11.537l-1.251.228-1.976.36a4.13 4.13 0 0 1-3.318-.84 4.1 4.1 0 0 0-1.9-.847l-1.709-.285-1.384-1.846-.727.181q-.286.072-.543.214A2.25 2.25 0 0 0 4.187 9.84a2.26 2.26 0 0 1-1.816 1.4L0 11.539 2.135 9.76c.415-.346.725-.8.896-1.313a2.9 2.9 0 0 1 2.754-1.986h.677l1.153-.384a4.48 4.48 0 0 1 3.181.132 4.48 4.48 0 0 0 3.359.069l1.537-.586 6.225-2.371.237-.09h.692l-.23-.923 1.846.923.354.568 1.243 1.988z" fill="#ad7d4d"/><path d="M23.077 4.154a.923.923 0 0 1-1.12-.672l-.04-.161.237-.09h.692zM10.413 10.68a4 4 0 0 0-.858-.241l-1.709-.285-1.384-1.846-.727.181q-.286.072-.543.214c.134-.518.382-1 .727-1.409l3.874.646.215.428c.356.715.497 1.518.405 2.312" fill="#966342"/><path d="M6.462 7.385a3.15 3.15 0 0 0-.923 2.228v.158A3.15 3.15 0 0 0 6.462 12l-1.385 1.384L6.462 18h.923l-.462-3.23 1.99-1.99a3.64 3.64 0 0 0 .682-4.206l-.364-.728z" fill="#ad7d4d"/><path d="M20.308 8.55v2.065L18 11.538l-1.251.228a4 4 0 0 1-.68-1.432l-.329-1.317 3.18-1.908a3.8 3.8 0 0 1 1.388 1.44" fill="#966342"/><path d="m16.154 8.77.363 1.453a3.58 3.58 0 0 0 2.83 2.651l2.807.51 2.769 2.308 1.846-.461-3.692-3.693-2.77-.923v-.243a3.34 3.34 0 0 0-1.845-2.987z" fill="#ad7d4d"/><path d="m26.059 5.787-1.444 1.444-1.351-1.144L24 4.615l.816-.816zm-10.367-.095v3.539h-5.077V6.137q.09.034.18.072a4.48 4.48 0 0 0 3.36.069z" fill="#e44b4d"/><path d="M17.539 1.846H15.23v.923h2.077z" fill="#f2c194"/><path d="M18.462 1.385v-.231a1.154 1.154 0 0 0-2.308 0v.23z" fill="#e44b4d"/><path d="M16.154 1.385v.23a1.154 1.154 0 0 0 2.308 0v-.23z" fill="#f4ceaf"/><path d="m15.424 5.883-.193.578-3.71-1.685a1.168 1.168 0 0 1-.428-1.795c.271-.34.603-.628.979-.848l.39 1.56 2.45 1.05a.92.92 0 0 1 .512 1.14" fill="#d3e1e9"/><path d="m19.043 4.75-.194.032-1.772.295-1.661-1.385h-2.954l-.39-1.56s.882-.405 1.37-.466l1.482-.185a1.38 1.38 0 0 1 1.253.509l1.362 1.702.977-.244.244-.06a.696.696 0 1 1 .283 1.362" fill="#8acce7"/><path d="M18.923 1.846h-2.77a.461.461 0 1 1 0-.923h2.77a.461.461 0 1 1 0 .923" fill="#d14547"/><path d="M13.52 5.684 12 9.23h2.77l-.924-.923 1.385-1.847z" fill="#395166"/><path d="M15.415 3.692h-1.441l-.257-.214.59-.709z" fill="#379ec3"/><path d="m19.042 4.75-.193.031-.333-1.333.243-.061a.696.696 0 1 1 .283 1.362" fill="#f4ceaf"/></svg>