<svg width="18" height="18" viewBox="0 0 18 18" fill="none" xmlns="http://www.w3.org/2000/svg"><path d="M9 18A9 9 0 1 0 9 0a9 9 0 0 0 0 18" fill="#d6e826"/><path d="M9 15.158c-4.486 0-8.194-3.286-8.877-7.58A9 9 0 0 0 0 9a9 9 0 0 0 18 0c0-.485-.05-.957-.123-1.421-.683 4.293-4.391 7.579-8.877 7.579" fill="#c8d924"/><path d="M16.3 14.25A5.69 5.69 0 0 1 12.79 9a5.69 5.69 0 0 1 3.51-5.25 9 9 0 0 0-.613-.759c-2.266 1.056-3.845 3.35-3.845 6.01s1.579 4.953 3.845 6.009a9 9 0 0 0 .613-.76M2.314 2.991a9 9 0 0 0-.614.76A5.69 5.69 0 0 1 5.21 9a5.69 5.69 0 0 1-3.51 5.25q.286.397.614.759C4.58 13.954 6.158 11.66 6.158 9S4.58 4.048 2.314 2.992" fill="#eceff1"/><path d="M16.3 14.25a5.7 5.7 0 0 1-1.679-1.08q-.373.3-.778.561a6.7 6.7 0 0 0 1.844 1.277q.326-.362.613-.758M3.38 13.17a5.7 5.7 0 0 1-1.68 1.08q.287.395.614.758a6.7 6.7 0 0 0 1.844-1.277q-.405-.26-.779-.56" fill="#e1e4e6"/></svg>