<svg width="24" height="24" viewBox="0 0 24 24" fill="none" xmlns="http://www.w3.org/2000/svg">
<g clip-path="url(#clip0_826_2)">
<path d="M23.2499 6C23.2499 5.93036 23.2305 5.86209 23.1939 5.80285C23.1573 5.74361 23.1049 5.69573 23.0426 5.66459C22.9803 5.63344 22.9106 5.62026 22.8412 5.62652C22.7719 5.63277 22.7056 5.65821 22.6499 5.7L19.9499 7.725C18.845 8.54989 17.5038 8.99697 16.1249 9H14.8026C13.5059 8.99585 12.241 8.59816 11.1752 7.85952C10.1094 7.12088 9.29291 6.0761 8.83377 4.86337L8.77339 4.70363C8.72776 4.58282 8.6731 4.46561 8.60989 4.353C9.31264 3.49837 9.45514 2.49675 8.91664 1.95825C8.53752 1.57913 7.92177 1.52925 7.27489 1.8C7.00752 1.14975 6.53652 0.75 5.99989 0.75C5.46327 0.75 4.99227 1.14975 4.72677 1.8C4.07952 1.52813 3.46264 1.57725 3.08314 1.95675C2.55814 2.48175 2.68489 3.46537 3.35577 4.30988C3.12255 4.70891 2.99972 5.16281 2.99989 5.625V5.6625C2.54923 5.73108 2.1242 5.91583 1.76663 6.19857C1.40906 6.48131 1.13128 6.85229 0.960644 7.275L0.776519 7.73587C0.753784 7.79278 0.745341 7.85439 0.75193 7.91532C0.758519 7.97625 0.779938 8.03463 0.814314 8.08536C0.848689 8.13609 0.894974 8.17762 0.949117 8.20632C1.00326 8.23503 1.06361 8.25002 1.12489 8.25C1.16519 8.24999 1.20522 8.24341 1.24339 8.2305L1.90639 8.00962C2.17436 7.92038 2.45496 7.87492 2.73739 7.875H3.19114C3.23267 7.99698 3.281 8.11654 3.33589 8.23312C3.13116 8.71366 3.01724 9.22796 2.99989 9.75C2.99989 10.7839 3.67264 11.625 4.49989 11.625C4.71775 11.623 4.93126 11.5638 5.11902 11.4532C5.08418 12.9209 5.50355 14.3635 6.31978 15.5837C7.136 16.804 8.30923 17.7423 9.67902 18.2704C9.79727 18.5267 9.94706 18.7674 10.1249 18.9866V21.0679L8.54989 21.3825L8.69689 22.1175L10.4744 21.762L11.5049 22.1055L11.7419 21.393L10.8749 21.105V19.68C11.3239 19.9789 11.8385 20.1649 12.3749 20.2222V22.1921L10.7999 22.5068L10.9469 23.2418L12.7244 22.8862L13.7549 23.2297L13.9919 22.5173L13.1249 22.23V20.2249C13.6612 20.1675 14.1756 19.9813 14.6243 19.682C15.0729 19.3827 15.4425 18.9793 15.7015 18.5062C17.16 18.1244 18.4589 17.2879 19.4099 16.118C20.361 14.9481 20.9146 13.5057 20.9905 12H22.1249C22.1949 12.0004 22.2636 11.9812 22.3233 11.9445C22.3829 11.9079 22.4311 11.8552 22.4624 11.7926C22.5631 11.5897 22.6101 11.3644 22.5991 11.1381C22.5881 10.9119 22.5193 10.6922 22.3994 10.5H22.8749C22.9743 10.5 23.0697 10.4605 23.1401 10.3902C23.2104 10.3198 23.2499 10.2245 23.2499 10.125V10.0811C23.2502 9.78114 23.1784 9.48547 23.0405 9.21902C22.9027 8.95257 22.7029 8.72312 22.4579 8.55C22.7088 8.30562 22.9082 8.01341 23.0442 7.69065C23.1802 7.36789 23.2502 7.02113 23.2499 6.67087V6ZM3.61339 2.4885C3.80802 2.2935 4.28614 2.3655 4.75039 2.658C4.80114 2.69002 4.85884 2.7094 4.91863 2.7145C4.97843 2.71961 5.03857 2.71028 5.09401 2.68732C5.14945 2.66436 5.19858 2.62842 5.23725 2.58254C5.27593 2.53665 5.30302 2.48216 5.31627 2.42362C5.43739 1.8885 5.72502 1.5 5.99989 1.5C6.27477 1.5 6.56239 1.8885 6.68352 2.42362C6.69676 2.48216 6.72386 2.53665 6.76254 2.58254C6.80121 2.62842 6.85033 2.66436 6.90578 2.68732C6.96122 2.71028 7.02136 2.71961 7.08116 2.7145C7.14095 2.7094 7.19864 2.69002 7.24939 2.658C7.71364 2.3655 8.19177 2.29313 8.38639 2.4885C8.58102 2.68388 8.51577 3.21638 8.13927 3.74325C7.65055 3.26874 6.99682 3.0023 6.31564 3H5.62489C4.96051 3.00023 4.32116 3.25353 3.83689 3.70837C3.48289 3.19312 3.41989 2.682 3.61339 2.4885ZM2.73739 7.125C2.42358 7.12481 2.11129 7.16861 1.80964 7.25513C1.9427 7.04402 2.11648 6.86154 2.32084 6.71834C2.5252 6.57515 2.75605 6.47411 2.99989 6.42112V6.771C3.00195 6.88934 3.01009 7.0075 3.02427 7.125H2.73739ZM4.49989 10.875C4.09339 10.875 3.74989 10.3598 3.74989 9.75C3.75675 9.50178 3.7939 9.25533 3.86052 9.01612C4.14365 9.33506 4.48467 9.59744 4.86552 9.78937L5.22927 9.97162L5.22552 10.0144C5.14377 10.5 4.84564 10.875 4.49989 10.875ZM21.6648 8.23087L21.5418 8.313C21.4833 8.35198 21.437 8.40658 21.4081 8.47058C21.3792 8.53459 21.3689 8.60543 21.3782 8.67504C21.3876 8.74464 21.4163 8.81022 21.4612 8.86429C21.506 8.91836 21.5651 8.95875 21.6318 8.98087L21.7304 9.0135C21.9004 9.07007 22.0544 9.16641 22.1796 9.29451C22.3049 9.42262 22.3977 9.57878 22.4504 9.75H21.3749C21.2944 9.74998 21.216 9.77586 21.1514 9.82381C21.0868 9.87176 21.0393 9.93924 21.0159 10.0163C20.9926 10.0933 20.9946 10.1758 21.0218 10.2516C21.049 10.3273 21.0998 10.3923 21.1668 10.437L21.5943 10.722C21.6799 10.7793 21.7486 10.8585 21.7933 10.9513C21.8379 11.0442 21.8569 11.1473 21.8481 11.25H20.6249C20.5254 11.25 20.4301 11.2895 20.3597 11.3598C20.2894 11.4302 20.2499 11.5255 20.2499 11.625C20.2533 13.0578 19.7719 14.4497 18.8839 15.5743C17.996 16.6988 16.7537 17.4899 15.3591 17.8189C15.3052 17.8317 15.2548 17.8564 15.2116 17.8911C15.1683 17.9258 15.1333 17.9696 15.109 18.0195C14.8872 18.4785 14.5365 18.8628 14.0996 19.1255C13.6627 19.3882 13.1588 19.5178 12.6494 19.4984C12.14 19.4791 11.6473 19.3116 11.2317 19.0166C10.816 18.7216 10.4954 18.3117 10.309 17.8373C10.2894 17.7877 10.2595 17.7428 10.2212 17.7057C10.183 17.6686 10.1372 17.64 10.087 17.622C8.76245 17.1467 7.6323 16.2466 6.87268 15.062C6.11306 13.8773 5.76663 12.4747 5.88739 11.0726L5.99652 9.75C5.99712 9.68061 5.97835 9.61243 5.94231 9.55314C5.90627 9.49384 5.85439 9.44579 5.79252 9.41437L5.20077 9.1185C4.76373 8.90188 4.39614 8.56712 4.1397 8.15219C3.88325 7.73726 3.74821 7.25878 3.74989 6.771V5.625C3.75049 5.1279 3.94822 4.65133 4.29973 4.29983C4.65123 3.94833 5.1278 3.7506 5.62489 3.75H6.31564C6.69705 3.75117 7.06912 3.86815 7.38258 4.08545C7.69603 4.30275 7.93611 4.61012 8.07102 4.96687L8.13139 5.127C8.64465 6.48235 9.55723 7.64998 10.7484 8.47545C11.9396 9.30093 13.3534 9.74537 14.8026 9.75H16.1249C17.666 9.7468 19.1651 9.24711 20.3999 8.325L22.4999 6.75C22.4875 7.04525 22.4054 7.33338 22.2603 7.59078C22.1151 7.84818 21.911 8.06753 21.6648 8.23087Z" fill="black"/>
<path d="M5.25 5.25H4.5V6H5.25V5.25Z" fill="black"/>
<path d="M18.375 10.5H12V11.25H18C17.9994 11.7471 17.8017 12.2237 17.4502 12.5752C17.0987 12.9267 16.6221 13.1244 16.125 13.125H13.5V13.875H15C14.9991 14.5709 14.7223 15.2381 14.2302 15.7302C13.7381 16.2223 13.0709 16.4991 12.375 16.5H11.625C10.9291 16.4991 10.2619 16.2223 9.76983 15.7302C9.27774 15.2381 9.00089 14.5709 9 13.875H8.25C8.25099 14.7698 8.60689 15.6277 9.23961 16.2604C9.87233 16.8931 10.7302 17.249 11.625 17.25H12.375C13.2698 17.249 14.1277 16.8931 14.7604 16.2604C15.3931 15.6277 15.749 14.7698 15.75 13.875H16.125C16.8209 13.8741 17.4881 13.5973 17.9802 13.1052C18.4723 12.6131 18.7491 11.9459 18.75 11.25V10.875C18.75 10.7755 18.7105 10.6802 18.6402 10.6098C18.5698 10.5395 18.4745 10.5 18.375 10.5Z" fill="black"/>
</g>
<defs>
<clipPath id="clip0_826_2">
<rect width="24" height="24" fill="white"/>
</clipPath>
</defs>
</svg>
