<svg width="24" height="24" viewBox="0 0 24 24" fill="none" xmlns="http://www.w3.org/2000/svg">
<path d="M22.5976 5.76588L21.3856 4.55408L22.5976 3.34177C23.1329 2.80626 23.1329 1.93812 22.5976 1.40261C22.0551 0.884345 21.2008 0.884345 20.6584 1.40261L19.4461 2.61425L18.234 1.40228L17.2837 2.35261C12.4837 -0.276235 6.48105 1.02362 3.19851 5.40262C-0.084024 9.78179 0.352219 15.9079 4.22199 19.7779C8.09193 23.6477 14.2181 24.0839 18.5973 20.8014C22.9763 17.5188 24.2761 11.5162 21.6473 6.71621L22.5976 5.76588ZM18.234 2.37186L19.4458 3.58383L21.1429 1.88707C21.4141 1.62793 21.8411 1.62793 22.1125 1.88707C22.3801 2.15491 22.3801 2.58897 22.1125 2.85665L20.4157 4.55374L21.628 5.76588L20.6581 6.73613L17.2641 3.3421L18.234 2.37186ZM17.0963 15.3825C17.199 15.6255 17.3568 15.8413 17.5572 16.0129C17.4168 16.2044 17.2664 16.3887 17.1071 16.5648L15.4093 14.8672C16.0255 14.1509 16.3965 13.2562 16.4679 12.314H18.8678C18.8559 12.5514 18.8318 12.788 18.7955 13.0226C18.2044 12.9801 17.6334 13.2471 17.287 13.7282C16.9407 14.2092 16.8684 14.8352 17.096 15.3825H17.0963ZM16.6246 17.0521C15.4542 18.1153 13.9509 18.7393 12.3715 18.8173V16.4106C13.3136 16.339 14.2082 15.968 14.9245 15.3518L16.6246 17.0521ZM17.73 14.3331C17.9472 13.8081 18.549 13.5588 19.0738 13.7763C19.5986 13.9937 19.8479 14.5954 19.6304 15.1202C19.413 15.645 18.8112 15.8941 18.2864 15.6766C17.7618 15.4591 17.5127 14.8577 17.73 14.3331ZM16.4663 11.6284C16.4303 11.1655 16.3211 10.7114 16.1427 10.2828L17.9337 8.49215C18.4975 9.44549 18.8197 10.522 18.8726 11.6284H16.4663ZM14.3555 11.0991L13.6283 10.3719L13.1432 10.8567L13.8217 11.5351L12.7317 11.7529L11.6888 12.7958L11.2059 12.311L12.2488 11.2681L12.4912 10.0558L17.7495 4.79614L19.2039 6.25067L14.3555 11.0991ZM12.3715 1.69757C13.9086 1.7493 15.4143 2.1462 16.7773 2.85899L16.2948 3.34143L17.2648 4.31135L16.0056 5.57086C14.9118 4.88754 13.66 4.4985 12.3715 4.44158V1.69757ZM12.3715 5.12591C13.4778 5.17948 14.5546 5.50239 15.5077 6.06653L13.7167 7.85754C13.2883 7.67909 12.8342 7.56961 12.3715 7.53362V5.12591ZM11.6858 1.69473V4.44644C11.386 4.4595 11.0872 4.49063 10.7911 4.53968C10.3888 3.74252 9.44 3.39065 8.61539 3.73265C7.79078 4.07448 7.36944 4.99467 7.64933 5.84238C7.40526 6.01715 7.17157 6.20597 6.9496 6.40803L5.00743 4.46552C6.82271 2.76089 9.19694 1.77591 11.6858 1.69473ZM6.96081 14.0711C6.68293 13.3891 5.99559 12.9654 5.26138 13.0233C5.22505 12.7883 5.20094 12.5516 5.18906 12.314H7.5889C7.66054 13.2562 8.0315 14.1509 8.6477 14.8672L6.95027 16.5652C6.7909 16.3889 6.64058 16.2047 6.4998 16.0132C7.06008 15.5353 7.24657 14.7495 6.96081 14.0707V14.0711ZM6.32738 15.1202C6.13922 15.5733 5.65744 15.8304 5.17634 15.7345C4.69523 15.6388 4.34888 15.2164 4.34888 14.7259C4.34888 14.2353 4.69523 13.8131 5.17634 13.7172C5.65744 13.6214 6.13922 13.8786 6.32738 14.3317C6.43267 14.584 6.43267 14.8679 6.32738 15.1202ZM5.18253 11.6284C5.26071 10.0491 5.88444 8.54588 6.94759 7.37526L8.64803 9.07537C8.03184 9.79167 7.66088 10.6863 7.58923 11.6284H5.18253ZM7.43472 6.89281C7.61083 6.73328 7.79497 6.58296 7.98664 6.44234C8.46657 6.99911 9.24967 7.18526 9.92881 6.90386C10.6079 6.62263 11.03 5.93747 10.9759 5.20442C11.2111 5.16793 11.4481 5.14366 11.6858 5.13211V7.53195C10.7437 7.60342 9.84912 7.97438 9.13265 8.59058L7.43472 6.89281ZM8.32294 4.92604C8.51093 4.47289 8.99288 4.21576 9.47381 4.31151C9.95492 4.40743 10.3014 4.82978 10.3014 5.32026C10.3014 5.81074 9.95492 6.23309 9.47381 6.32885C8.99288 6.42477 8.51093 6.16764 8.32294 5.71449C8.21765 5.46222 8.21765 5.17814 8.32328 4.92604H8.32294ZM4.52231 4.95031L6.46163 6.88947C5.27092 8.18949 4.57537 9.86717 4.49686 11.6284H1.75218C1.83337 9.13965 2.81835 6.76576 4.52264 4.95031H4.52231ZM1.75218 12.314H4.50373C4.51695 12.6142 4.54825 12.9132 4.5973 13.2096C3.79228 13.6069 3.43371 14.5609 3.77771 15.3902C4.12155 16.2195 5.05012 16.6396 5.90017 16.3505C6.07477 16.5948 6.2636 16.8283 6.46581 17.0499L4.52365 18.9921C2.81902 17.177 1.8337 14.8029 1.75218 12.314ZM11.6858 22.2477C9.19694 22.1665 6.82271 21.1815 5.00743 19.4769L6.94675 17.5379C8.24678 18.729 9.92445 19.4247 11.6858 19.503V22.2477ZM11.6858 18.8173C10.1064 18.7393 8.60317 18.1153 7.43255 17.0521L9.13265 15.3518C9.84912 15.968 10.7437 16.339 11.6858 16.4106V18.8173ZM8.25749 11.9712C8.26 9.88943 9.94689 8.20255 12.0287 8.20004C12.4222 8.20104 12.8129 8.26482 13.1864 8.38903L11.8572 9.71785L11.6149 10.93L10.234 12.311L11.6885 13.7652L13.0696 12.3844L14.2817 12.142L15.6105 10.8131C15.7351 11.1866 15.7988 11.5777 15.7998 11.9712C15.7998 14.054 14.1114 15.7424 12.0287 15.7424C9.94588 15.7424 8.25749 14.054 8.25749 11.9712ZM12.3715 22.2477V19.503C14.1329 19.4247 15.8106 18.729 17.1104 17.5379L19.0499 19.4769C17.2345 21.1815 14.8604 22.1665 12.3715 22.2477ZM19.5347 18.9908L17.5925 17.0486C17.7946 16.8268 17.9836 16.5933 18.1582 16.3492C19.0059 16.6293 19.9259 16.2083 20.2679 15.3836C20.6099 14.559 20.258 13.6102 19.461 13.2081C19.5097 12.9123 19.5407 12.6137 19.5534 12.314H22.3052C22.2238 14.8028 21.239 17.1768 19.5347 18.9921V18.9908ZM22.3023 11.6284H19.5596C19.5024 10.3399 19.113 9.08809 18.4294 7.9943L19.6885 6.73512L20.6581 7.70504L21.1412 7.22192C21.8538 8.58506 22.2506 10.0911 22.3023 11.6284Z" fill="black"/>
</svg>
