<svg width="100" height="100" viewBox="0 0 100 100" fill="none" xmlns="http://www.w3.org/2000/svg">
<path d="M25.7671 64.0787C23.3452 64.0787 21.1265 65.0631 19.5327 66.6568C19.1265 67.0631 18.7671 67.5006 18.4546 67.9693C17.6578 69.1412 17.1421 70.5162 16.9858 72.0005C16.9546 72.2974 16.939 72.5943 16.939 72.9068C16.939 73.2662 16.9546 73.5943 17.0015 73.9224C17.5327 78.4068 21.2984 81.7505 25.7671 81.7505C30.2358 81.7505 34.0015 78.4067 34.5327 73.9536C34.5639 73.7973 34.5795 73.6411 34.5952 73.4848C34.6108 73.2973 34.6108 73.1098 34.6108 72.9067C34.6108 68.0317 30.6421 64.0787 25.7671 64.0787Z" fill="black"/>
<path d="M6.00118 46.9684H22.9232L10.1572 34.1875C9.06338 33.0781 7.54778 32.4374 6.00098 32.4062L6.00118 46.9684Z" fill="black"/>
<path d="M45.954 54.9067L27.563 50.3911C27.313 50.3286 27.0005 50.2349 26.688 50.0942H6V72.5782H13.8281C13.8281 72.172 13.8593 71.7814 13.9218 71.3907C13.9531 71.0001 14.0312 70.6095 14.125 70.2345C14.2031 69.8439 14.3125 69.4689 14.4375 69.1095C14.5468 68.7502 14.6875 68.3908 14.8594 68.047C15.1719 67.3439 15.5468 66.6876 15.9688 66.0626C16.1875 65.7658 16.4062 65.4533 16.6719 65.172C16.7969 65.0158 16.9219 64.8751 17.0469 64.7501C17.0781 64.7033 17.1094 64.672 17.1406 64.6408C17.2344 64.5314 17.3281 64.4376 17.4375 64.3439C17.7031 64.0783 17.9844 63.8283 18.2812 63.5939C18.5469 63.3751 18.8125 63.1876 19.0938 63.0001L19.2344 62.9064C19.5 62.7189 19.7812 62.547 20.0781 62.3908C20.7656 62.0314 21.5 61.7033 22.2812 61.4689C22.5937 61.3751 22.9218 61.297 23.25 61.2345C23.3593 61.2032 23.4844 61.172 23.6094 61.1564C23.9219 61.0939 24.2344 61.047 24.5469 61.0158H24.5625C24.9531 60.9689 25.3594 60.9533 25.7656 60.9533C26.1718 60.9533 26.5781 60.9689 26.9687 61.0158H26.9843C27.2968 61.047 27.6249 61.0939 27.9218 61.1564C28.0624 61.172 28.1874 61.2032 28.3124 61.2345C28.6405 61.297 28.953 61.3751 29.2655 61.4689C30.0312 61.7189 30.7811 62.0314 31.4686 62.3908C31.7655 62.5626 32.0624 62.7345 32.3436 62.9376C32.6249 63.1095 32.9061 63.3126 33.1718 63.5314C33.2499 63.5783 33.3124 63.6408 33.3749 63.6876C33.6093 63.8751 33.828 64.0783 34.0468 64.297C34.3436 64.5783 34.6249 64.8751 34.8749 65.172C35.0468 65.3595 35.203 65.5626 35.3436 65.7501C35.4374 65.8751 35.5155 65.9845 35.6092 66.1095C35.8124 66.4064 35.9999 66.7189 36.1717 67.0314C36.3749 67.3595 36.5468 67.7033 36.6874 68.047C36.8436 68.3751 36.9686 68.7032 37.078 69.0314C37.1249 69.1408 37.1561 69.2501 37.1874 69.3595C37.2655 69.5939 37.3436 69.8439 37.3905 70.0939C37.4374 70.2189 37.4686 70.3595 37.4842 70.5001C37.6249 71.1251 37.703 71.7657 37.7186 72.422C37.7342 72.4689 37.7342 72.5314 37.7342 72.5783H45.2498C46.8748 72.5783 48.1873 71.2658 48.1873 69.6408V57.7498C48.1873 56.406 47.2655 55.2342 45.9529 54.906L45.954 54.9067Z" fill="black"/>
<path d="M82.439 71.4536C82.4078 71.2661 82.3765 71.0942 82.3297 70.9067C82.2984 70.7348 82.2515 70.563 82.189 70.3755C82.1422 70.2036 82.0797 70.0317 82.0172 69.8755C81.9547 69.7036 81.8922 69.5317 81.8297 69.3755C81.7515 69.188 81.6578 69.0161 81.5797 68.8598C81.5015 68.7192 81.4234 68.5786 81.3453 68.4536C81.2515 68.2817 81.1578 68.1255 81.0484 67.9692C80.7359 67.5005 80.3765 67.063 79.9703 66.6567C78.3765 65.0629 76.1578 64.0786 73.7359 64.0786C68.8609 64.0786 64.8921 68.0317 64.8921 72.9067C64.8921 73.2661 64.9077 73.5942 64.9546 73.9223C65.5015 78.4067 69.2671 81.7504 73.7358 81.7504C78.2045 81.7504 81.9546 78.4223 82.5014 73.9692V73.9223C82.5483 73.5942 82.5639 73.2661 82.5639 72.9067C82.5639 72.5942 82.5483 72.2974 82.517 72.0005C82.5014 71.813 82.4703 71.6255 82.439 71.4536Z" fill="black"/>
<path d="M71.9389 50.3903L53.5479 54.9059C52.2354 55.234 51.3135 56.4059 51.3135 57.7497V69.6407C51.3135 71.2657 52.626 72.5782 54.251 72.5782H61.7666C61.7666 72.547 61.7666 72.5001 61.7822 72.4688C61.7666 72.4532 61.7822 72.4376 61.7822 72.422C61.7822 72.172 61.7978 71.922 61.8291 71.6876C61.8447 71.5001 61.876 71.3126 61.9072 71.1407C61.9228 70.9219 61.9697 70.7032 62.0166 70.5001C62.0322 70.3595 62.0635 70.2345 62.1103 70.0938C62.126 69.9688 62.1572 69.8438 62.2041 69.7188C62.2353 69.5938 62.2822 69.4688 62.3135 69.3594C62.3447 69.2501 62.376 69.1407 62.4228 69.0313C62.4853 68.8438 62.5478 68.6563 62.626 68.4688L62.8135 68.0469C62.9697 67.7032 63.1416 67.3594 63.3291 67.0313C63.4853 66.7501 63.6416 66.4845 63.8135 66.2188C63.8447 66.1876 63.8603 66.1407 63.8916 66.1095C63.9853 65.9845 64.0635 65.8751 64.1572 65.7501C64.3135 65.547 64.4697 65.3595 64.626 65.172C64.7666 65.0001 64.9385 64.8282 65.0947 64.672C65.2197 64.5313 65.3291 64.4063 65.4541 64.297C65.6728 64.0782 65.8916 63.8751 66.126 63.6876C66.1885 63.6407 66.251 63.5782 66.3291 63.5313C66.5947 63.3126 66.8603 63.1251 67.1572 62.9376C67.4385 62.7501 67.7353 62.5626 68.0322 62.3907C68.2041 62.297 68.376 62.2188 68.5478 62.1407C68.8916 61.9688 69.251 61.8126 69.6259 61.6876C69.8291 61.6095 70.0322 61.5313 70.2353 61.4688C70.5478 61.3751 70.8603 61.297 71.1884 61.2345C71.3134 61.2032 71.4384 61.172 71.579 61.1563H71.6103C71.9072 61.0938 72.2197 61.047 72.5165 61.0157H72.5322C72.9384 60.9688 73.3291 60.9532 73.7353 60.9532C74.1415 60.9532 74.5321 60.9688 74.9384 61.0157H74.954C75.2509 61.047 75.5634 61.0938 75.8602 61.1563H75.8915C76.0165 61.172 76.1415 61.2032 76.2509 61.2345C76.579 61.297 76.9071 61.3751 77.2196 61.4688C77.2821 61.4845 77.3446 61.5001 77.4071 61.5313C77.7352 61.6407 78.0477 61.7501 78.3602 61.8751C78.7196 62.0313 79.079 62.2188 79.4227 62.3907C79.7196 62.5626 79.9852 62.7188 80.2665 62.9063L80.4071 63.0001C80.6884 63.1876 80.954 63.3907 81.2196 63.5938C81.5165 63.8282 81.7977 64.0782 82.0634 64.3438C82.1884 64.4688 82.329 64.6094 82.454 64.7501C82.5946 64.8907 82.7196 65.0313 82.829 65.172C82.954 65.3126 83.079 65.4688 83.1884 65.6095C83.3134 65.7657 83.4227 65.9063 83.5321 66.0626C83.954 66.6876 84.329 67.3438 84.6415 68.047C84.7978 68.3907 84.9384 68.7501 85.0634 69.1095C85.1259 69.297 85.1884 69.4845 85.2353 69.672C85.2822 69.8439 85.3447 70.0314 85.3759 70.2345C85.4228 70.4532 85.4696 70.672 85.5165 70.9064C85.5321 71.0626 85.5634 71.2345 85.579 71.3907C85.6259 71.7814 85.6571 72.172 85.6728 72.5782H93.5009V50.0942H72.8129C72.5004 50.2349 72.1879 50.3286 71.9379 50.3911L71.9389 50.3903Z" fill="black"/>
<path d="M76.5791 46.9687H93.5011V32.4067C91.9542 32.438 90.4386 33.0786 89.3449 34.1879L76.5791 46.9687Z" fill="black"/>
<path d="M52.9071 33.1134C53.3251 33.2853 53.7938 33.2696 54.2001 33.0704L60.5634 29.9181L57.4111 36.2814C57.2119 36.6877 57.1963 37.1564 57.3681 37.5744C57.54 37.9924 57.8838 38.3127 58.3135 38.4572L65.04 40.7306L58.3135 43.004C57.497 43.2775 57.0556 44.1681 57.333 44.9845C57.5517 45.6369 58.1611 46.047 58.8135 46.047C58.9775 46.047 59.1494 46.0197 59.3135 45.965L70.4265 42.215C71.0632 42.0001 71.489 41.4064 71.489 40.7345C71.489 40.0626 71.0632 39.4689 70.4265 39.254L61.0085 36.0743L65.4187 27.1641C65.7156 26.5625 65.5984 25.8399 65.1218 25.3672C64.6491 24.8945 63.9226 24.7734 63.3249 25.0703L54.4147 29.4805L51.235 20.0625C51.0202 19.4258 50.4264 19 49.7545 19C49.0826 19 48.4889 19.4258 48.274 20.0625L45.0943 29.4805L36.1841 25.0703C35.5825 24.7734 34.8599 24.8906 34.3872 25.3672C33.9145 25.8398 33.7934 26.5625 34.0903 27.1641L38.5005 36.0743L29.0825 39.254C28.4458 39.4688 28.02 40.0626 28.02 40.7345C28.02 41.4064 28.4458 42.0001 29.0825 42.215L40.1955 45.965C41.0119 46.2423 41.8986 45.8009 42.176 44.9845C42.4534 44.1681 42.012 43.2814 41.1956 43.004L34.469 40.7306L41.1956 38.4572C41.6213 38.3127 41.969 37.9924 42.1409 37.5744C42.3127 37.1603 42.2971 36.6877 42.0979 36.2814L38.9456 29.9181L45.3089 33.0704C45.7151 33.2735 46.1839 33.2891 46.6019 33.1134C47.0199 32.9415 47.3402 32.5977 47.4847 32.1681L49.7581 25.4415L52.0315 32.1681C52.176 32.5938 52.4963 32.9415 52.9143 33.1134L52.9071 33.1134Z" fill="black"/>
</svg>
