<svg width="12" height="12" viewBox="0 0 12 12" fill="none" xmlns="http://www.w3.org/2000/svg">
<g clip-path="url(#clip0_795_1966)">
<path d="M11.9834 4.12734C11.9834 3.81328 11.8615 3.52031 11.6412 3.29766C11.1842 2.84062 10.4412 2.84062 9.98418 3.29766L8.82402 4.45781L8.65762 4.29141C8.57559 4.20937 8.44902 4.2 8.35527 4.26562L7.19512 5.09531C7.13887 5.13516 7.10371 5.19844 7.09668 5.26641C7.08965 5.33437 7.11543 5.40234 7.16465 5.45156L7.57949 5.86641L3.60215 9.84609C3.57637 9.87187 3.55762 9.90234 3.5459 9.9375L2.96699 11.6766C2.93887 11.7609 2.95996 11.8547 3.02324 11.9156C3.06777 11.9602 3.12871 11.9836 3.18965 11.9836C3.21543 11.9836 3.23887 11.9789 3.26465 11.9719L5.00371 11.3906C5.03887 11.3789 5.06934 11.3602 5.09512 11.3344L7.7459 8.68359L9.07246 7.35703L9.4873 7.77187C9.53184 7.81641 9.59043 7.83984 9.65371 7.83984C9.66074 7.83984 9.66543 7.83984 9.67246 7.83984C9.74043 7.83516 9.80371 7.79766 9.84356 7.74141L10.6732 6.58125C10.7389 6.4875 10.7295 6.36094 10.6475 6.27891L10.4811 6.1125L11.6412 4.95234C11.8615 4.73437 11.9834 4.44141 11.9834 4.12734ZM4.80215 10.9664L3.55996 11.3812L3.9748 10.1391L6.42168 7.69219L7.25137 8.52187L4.80215 10.9664ZM7.57949 8.18906L6.7498 7.35937L7.90996 6.19922L8.73965 7.02891L7.57949 8.18906ZM9.6209 7.24687L9.23652 6.8625L8.07637 5.70234L7.69199 5.31797L8.46543 4.76484L8.65762 4.95703L9.98418 6.28359L10.1764 6.47578L9.6209 7.24687ZM11.3084 4.62422L10.1482 5.78437L9.65137 5.2875L9.15449 4.79062L10.3146 3.63047C10.5889 3.35625 11.0342 3.35625 11.3084 3.63047C11.442 3.76406 11.5146 3.93984 11.5146 4.12734C11.5146 4.31484 11.442 4.49297 11.3084 4.62422ZM0.932617 5.23359C1.46934 5.76094 2.19824 6.09141 3.00449 6.10781C3.02559 6.11484 3.04902 6.11719 3.07246 6.11719C3.0959 6.11719 3.11934 6.1125 3.14043 6.10781C3.94199 6.08906 4.66621 5.75859 5.20059 5.23359C5.20762 5.22891 5.21465 5.22187 5.22168 5.21484C5.22871 5.20781 5.2334 5.20078 5.24043 5.19375C5.76777 4.65703 6.09824 3.92812 6.11465 3.12422C6.11934 3.10781 6.12168 3.08906 6.12168 3.07031C6.12168 3.05156 6.11934 3.03516 6.11465 3.01641C6.10293 2.20312 5.77246 1.46719 5.24043 0.925781C5.23574 0.91875 5.22871 0.911719 5.22168 0.904687C5.21465 0.897656 5.20762 0.892969 5.20059 0.885938C4.64981 0.344531 3.89746 0.0117188 3.06777 0.0117188C2.23809 0.0117188 1.4834 0.344531 0.934961 0.885938C0.92793 0.890625 0.920898 0.897656 0.913867 0.904687C0.906836 0.911719 0.902148 0.91875 0.895117 0.925781C0.351367 1.47891 0.0185547 2.23125 0.0185547 3.06094C0.0185547 3.89062 0.351367 4.64531 0.892774 5.19375C0.897461 5.20078 0.904492 5.20781 0.911523 5.21484C0.918555 5.22187 0.925586 5.22891 0.932617 5.23359ZM0.499023 3.29062H1.20684C1.25137 3.64219 1.38496 3.94687 1.58418 4.20234L1.08496 4.69922C0.761523 4.31016 0.548242 3.82969 0.499023 3.29062ZM1.08496 1.40625L1.58418 1.90312C1.38262 2.16328 1.24668 2.47031 1.20449 2.82187H0.49668C0.543555 2.28281 0.756836 1.79766 1.08496 1.40625ZM5.63418 2.82187H4.92637C4.88418 2.47031 4.74824 2.16797 4.54668 1.90547L5.0459 1.40156C5.37402 1.79531 5.58731 2.28281 5.63418 2.82187ZM5.0459 4.70391L4.54668 4.2C4.7459 3.94219 4.88184 3.64219 4.92402 3.29062H5.63184C5.58262 3.82969 5.36934 4.31484 5.0459 4.70391ZM3.01152 1.65703C3.03027 1.66172 3.04902 1.66406 3.07012 1.66406C3.09121 1.66406 3.10996 1.66172 3.12871 1.65703C3.87402 1.68984 4.47168 2.30625 4.47168 3.06094C4.47168 3.83672 3.84121 4.46719 3.06543 4.46719C2.3084 4.46719 1.68965 3.86484 1.66152 3.11484C1.66387 3.10078 1.66621 3.08437 1.66621 3.07031C1.66621 3.05391 1.66387 3.0375 1.66152 3.02344C1.68027 2.28281 2.27324 1.68516 3.01152 1.65703ZM1.91465 4.54219C2.1748 4.74375 2.50293 4.87969 2.83105 4.92187V5.62969C2.29199 5.58281 1.80449 5.36953 1.41309 5.04141L1.91465 4.54219ZM3.2998 4.91953C3.65137 4.875 3.95371 4.74141 4.21152 4.53984L4.71074 5.03906C4.32168 5.36484 3.83887 5.57578 3.2998 5.625V4.91953ZM4.21152 1.58203C3.95371 1.38047 3.65137 1.24687 3.2998 1.20234V0.494531C3.83887 0.54375 4.32168 0.757031 4.71074 1.08047L4.21152 1.58203ZM2.83105 1.2C2.50293 1.24219 2.1748 1.37812 1.91465 1.57969L1.41309 1.08047C1.80449 0.752344 2.29199 0.541406 2.83105 0.492187V1.2Z" fill="black"/>
</g>
<defs>
<clipPath id="clip0_795_1966">
<rect width="12" height="12" fill="black"/>
</clipPath>
</defs>
</svg>
