<svg width="100" height="100" viewBox="0 0 100 100" fill="none" xmlns="http://www.w3.org/2000/svg">
<path d="M87.3693 37.2887C86.9748 32.3473 84.7482 27.7301 81.1232 24.3477C77.5021 20.9649 72.7443 19.0547 67.7872 19H31.9512C26.9942 19.0547 22.2364 20.9648 18.6152 24.3477C14.9902 27.7305 12.7636 32.3477 12.3691 37.2887L10.0371 65.8747C9.76759 69.3669 10.9746 72.8122 13.3691 75.3747C16.2832 78.5427 20.623 79.9919 24.8571 79.2028C29.0915 78.4176 32.6227 75.5036 34.2009 71.4997L38.1618 61.7067C38.947 59.7223 40.861 58.4176 42.9938 58.4137H56.7438C58.8766 58.4176 60.7907 59.7223 61.5758 61.7067L65.4078 71.3317H65.4117C67.3922 77.484 73.7398 81.1129 80.0487 79.695C86.3573 78.277 90.5447 72.2848 89.701 65.875L87.3693 37.2887ZM39.4513 41.9137H36.3263V45.0387C36.3263 46.7653 34.9279 48.1637 33.2013 48.1637C31.4786 48.1637 30.0763 46.7653 30.0763 45.0387V41.9137H26.9513C25.2286 41.9137 23.8263 40.5153 23.8263 38.7887C23.8263 37.066 25.2286 35.6637 26.9513 35.6637H30.0763V32.5387C30.0763 30.816 31.4786 29.4137 33.2013 29.4137C34.9279 29.4137 36.3263 30.816 36.3263 32.5387V35.6637H39.4513C41.1779 35.6637 42.5763 37.066 42.5763 38.7887C42.5763 40.5153 41.1779 41.9137 39.4513 41.9137ZM66.5372 29.4137C67.7989 29.4137 68.9395 30.1754 69.4239 31.3434C69.9083 32.5114 69.6388 33.8551 68.7442 34.7496C67.8536 35.6441 66.5059 35.9098 65.3419 35.4254C64.1739 34.9449 63.4122 33.8043 63.4122 32.5387C63.4318 30.8239 64.8184 29.4371 66.5372 29.4137ZM60.2872 41.9137C59.0216 41.9137 57.881 41.152 57.4005 39.984C56.9162 38.8199 57.1818 37.4723 58.0763 36.5817C58.9708 35.6872 60.3146 35.4176 61.4825 35.902C62.6505 36.3864 63.4122 37.527 63.4122 38.7887C63.3888 40.5075 62.002 41.8942 60.2872 41.9137ZM66.5372 48.1637C65.2716 48.1637 64.131 47.402 63.6505 46.234C63.1662 45.0699 63.4318 43.7223 64.3263 42.8317C65.2208 41.9372 66.5646 41.6676 67.7325 42.152C68.9005 42.6364 69.6622 43.777 69.6622 45.0387C69.6388 46.7575 68.252 48.1442 66.5372 48.1637ZM72.7872 41.9137C71.5216 41.9137 70.381 41.152 69.9005 39.984C69.4161 38.8199 69.6818 37.4723 70.5763 36.5817C71.4708 35.6872 72.8146 35.4176 73.9825 35.902C75.1505 36.3864 75.9122 37.527 75.9122 38.7887C75.8888 40.5075 74.502 41.8942 72.7872 41.9137Z" fill="black"/>
</svg>
