<svg width="12" height="12" viewBox="0 0 12 12" fill="none" xmlns="http://www.w3.org/2000/svg">
<g clip-path="url(#clip0_795_1970)">
<path d="M8.99113 1.51594L8.82763 1.68283L8.76139 1.61593C8.59461 1.44574 8.37686 1.33736 8.14279 1.30803C7.90871 1.2787 7.67175 1.33011 7.46959 1.45408L6.29902 2.17342C5.31749 1.77149 4.23009 1.72785 3.22068 2.04989C2.21127 2.37192 1.34177 3.03987 0.759198 3.9408C0.176626 4.84173 -0.0832768 5.92036 0.0234318 6.99432C0.13014 8.06829 0.596914 9.0717 1.34483 9.83489C2.09275 10.5981 3.07593 11.0743 4.12813 11.1829C5.18033 11.2915 6.237 11.0259 7.11949 10.431C8.00198 9.83614 8.65613 8.94845 8.97135 7.91804C9.28657 6.88764 9.24352 5.77773 8.84948 4.77598L9.55422 3.5826C9.67532 3.37573 9.72508 3.13343 9.69558 2.89433C9.66607 2.65523 9.559 2.4331 9.39143 2.26333L9.32518 2.1914L9.48868 2.02451C9.63759 1.8764 9.82577 1.77609 10.0299 1.73599C10.2341 1.69589 10.4453 1.71776 10.6374 1.7989C10.8296 1.88003 10.9942 2.01687 11.1109 2.19249C11.2276 2.36811 11.2914 2.57481 11.2942 2.78701V3.22509C11.2858 4.45769 10.8755 5.65232 10.1279 6.62037C9.73947 7.17304 9.53114 7.83638 9.53238 8.51654C9.53172 8.72515 9.57162 8.93181 9.64977 9.12456C9.72792 9.3173 9.84276 9.49231 9.98764 9.63943C10.0538 9.70697 10.1435 9.74491 10.2371 9.74491C10.3307 9.74491 10.4204 9.70697 10.4866 9.63943C10.5528 9.5719 10.5899 9.4803 10.5899 9.38479C10.5899 9.28928 10.5528 9.19768 10.4866 9.13014C10.4074 9.04975 10.3445 8.95414 10.3017 8.84882C10.2589 8.7435 10.2369 8.63057 10.2371 8.51654C10.2362 7.98628 10.3987 7.46915 10.7015 7.0383C11.5647 5.96525 12.0247 4.61323 11.999 3.22509V2.78701C11.9953 2.43301 11.8897 2.08793 11.6955 1.79464C11.5012 1.50135 11.2268 1.2728 10.9064 1.13737C10.5859 1.00195 10.2335 0.965639 9.89304 1.03294C9.55253 1.10025 9.2389 1.26821 8.99113 1.51594ZM4.59918 10.4638C3.83256 10.4638 3.08316 10.2318 2.44574 9.79703C1.80832 9.3623 1.31151 8.7444 1.01814 8.02147C0.724772 7.29854 0.648012 6.50304 0.797572 5.73558C0.947131 4.96812 1.31629 4.26317 1.85837 3.70986C2.40045 3.15655 3.0911 2.77975 3.84299 2.62709C4.59488 2.47443 5.37423 2.55278 6.08249 2.85223C6.79075 3.15168 7.39612 3.65877 7.82202 4.30939C8.24793 4.96001 8.47526 5.72494 8.47526 6.50743C8.47414 7.55637 8.06541 8.56203 7.33875 9.30374C6.61208 10.0455 5.62684 10.4627 4.59918 10.4638ZM8.94674 3.20782L8.47033 4.01852C8.1049 3.42864 7.6155 2.9291 7.03759 2.5561L7.83183 2.06911C7.89898 2.02697 7.97804 2.00904 8.05635 2.01816C8.13467 2.02729 8.20772 2.06296 8.26384 2.11946L8.89811 2.76687C8.95336 2.82423 8.98817 2.89885 8.99698 2.97878C9.0058 3.05872 8.98811 3.13936 8.94674 3.20782ZM11.6466 9.02512H11.2942C11.2008 9.02512 11.1112 9.06301 11.0451 9.13046C10.979 9.19791 10.9419 9.2894 10.9419 9.38479C10.9419 9.48018 10.979 9.57166 11.0451 9.63911C11.1112 9.70656 11.2008 9.74446 11.2942 9.74446H11.6466C11.7401 9.74446 11.8297 9.70656 11.8958 9.63911C11.9619 9.57166 11.999 9.48018 11.999 9.38479C11.999 9.2894 11.9619 9.19791 11.8958 9.13046C11.8297 9.06301 11.7401 9.02512 11.6466 9.02512ZM11.2336 9.89336C11.1672 9.82784 11.0782 9.79159 10.9858 9.79241C10.8934 9.79323 10.805 9.83106 10.7397 9.89774C10.6743 9.96443 10.6373 10.0546 10.6365 10.1489C10.6357 10.2432 10.6712 10.3341 10.7354 10.4019L10.9849 10.6566C11.0513 10.7221 11.1403 10.7583 11.2327 10.7575C11.3251 10.7567 11.4135 10.7189 11.4788 10.6522C11.5441 10.5855 11.5812 10.4953 11.582 10.401C11.5828 10.3067 11.5473 10.2158 11.4831 10.148L11.2336 9.89336ZM10.2371 10.1041C10.1437 10.1041 10.054 10.142 9.98796 10.2095C9.92187 10.2769 9.88475 10.3684 9.88475 10.4638V10.8235C9.88475 10.9189 9.92187 11.0103 9.98796 11.0778C10.054 11.1452 10.1437 11.1831 10.2371 11.1831C10.3306 11.1831 10.4202 11.1452 10.4863 11.0778C10.5524 11.0103 10.5895 10.9189 10.5895 10.8235V10.4638C10.5895 10.3684 10.5524 10.2769 10.4863 10.2095C10.4202 10.142 10.3306 10.1041 10.2371 10.1041Z" fill="black"/>
<path d="M9.2399 9.8933L8.99042 10.1479C8.92623 10.2158 8.89072 10.3066 8.89152 10.4009C8.89232 10.4952 8.92938 10.5855 8.99471 10.6521C9.06005 10.7188 9.14843 10.7567 9.24082 10.7575C9.33321 10.7583 9.42222 10.722 9.48867 10.6565L9.73815 10.4019C9.80234 10.334 9.83786 10.2432 9.83705 10.1489C9.83625 10.0546 9.79919 9.96437 9.73386 9.89768C9.66853 9.831 9.58015 9.79317 9.48776 9.79235C9.39537 9.79153 9.30636 9.82779 9.2399 9.8933ZM11.2329 8.87616L11.4824 8.62151C11.5466 8.55368 11.5821 8.46282 11.5813 8.36852C11.5805 8.27421 11.5434 8.18401 11.4781 8.11732C11.4128 8.05063 11.3244 8.01281 11.232 8.01199C11.1396 8.01117 11.0506 8.04742 10.9841 8.11294L10.7347 8.36758C10.6705 8.43542 10.635 8.52627 10.6358 8.62058C10.6366 8.71488 10.6736 8.80509 10.739 8.87178C10.8043 8.93846 10.8927 8.97629 10.9851 8.97711C11.0774 8.97793 11.1665 8.94167 11.2329 8.87616ZM7.06506 6.50737C7.06506 7.17511 6.80519 7.81549 6.34261 8.28765C5.88004 8.75981 5.25265 9.02506 4.59847 9.02506C4.50501 9.02506 4.41538 9.06295 4.3493 9.1304C4.28322 9.19786 4.24609 9.28934 4.24609 9.38473C4.24609 9.48012 4.28322 9.5716 4.3493 9.63905C4.41538 9.70651 4.50501 9.7444 4.59847 9.7444C5.43927 9.74345 6.24537 9.4021 6.83991 8.79525C7.43445 8.18839 7.76887 7.36559 7.76981 6.50737C7.76981 6.41198 7.73268 6.3205 7.6666 6.25305C7.60052 6.1856 7.51089 6.14771 7.41744 6.14771C7.32398 6.14771 7.23435 6.1856 7.16827 6.25305C7.10219 6.3205 7.06506 6.41198 7.06506 6.50737Z" fill="black"/>
</g>
<defs>
<clipPath id="clip0_795_1970">
<rect width="12" height="12" fill="black"/>
</clipPath>
</defs>
</svg>
