<svg width="100" height="100" viewBox="0 0 100 100" fill="none" xmlns="http://www.w3.org/2000/svg">
<path fill-rule="evenodd" clip-rule="evenodd" d="M79.9023 44.9552C80.6825 45.3134 81.3208 45.8507 81.8528 46.5311L87.3493 36.1801C86.5338 35.9294 85.8243 35.4638 85.257 34.8906L79.9023 44.9552Z" fill="#151616"/>
<path fill-rule="evenodd" clip-rule="evenodd" d="M69.7956 39.6548H12.2058C8.80143 39.6548 6 42.4843 6 45.9227V66.7322C6 70.1708 8.80143 73.0001 12.2058 73.0001H69.7956C73.1999 73.0001 76.0015 70.1708 76.0015 66.7322V45.9227C76.0015 42.4843 73.1999 39.6548 69.7956 39.6548ZM29.9012 64.6907C29.9012 67.6277 27.5251 69.9914 24.6174 69.9914H15.9293C13.0215 69.9914 10.6455 67.6275 10.6455 64.6907V47.9642C10.6455 45.0272 13.0213 42.6275 15.9293 42.6275H24.6175C27.5253 42.6275 29.9014 45.0272 29.9014 47.9642V64.6907H29.9012ZM50.6461 64.6907C50.6461 67.6277 48.2703 69.9914 45.3623 69.9914H36.6388C33.731 69.9914 31.3905 67.6275 31.3905 64.6907V47.9642C31.3905 45.0272 33.7308 42.6275 36.6388 42.6275H45.3623C48.2701 42.6275 50.6461 45.0272 50.6461 47.9642V64.6907ZM71.3913 64.6907C71.3913 67.6277 69.0155 69.9914 66.1075 69.9914H57.3839C54.4762 69.9914 52.1001 67.6275 52.1001 64.6907V47.9642C52.1001 45.0272 54.476 42.6275 57.3839 42.6275H66.1075C69.0153 42.6275 71.3913 45.0272 71.3913 47.9642V64.6907Z" fill="#151616"/>
<path fill-rule="evenodd" clip-rule="evenodd" d="M45.3623 43.8809H36.6387C34.4401 43.8809 32.5962 45.7076 32.5962 47.964V64.6904C32.5962 66.9468 34.4401 68.7735 36.6387 68.7735H45.3623C47.5964 68.7735 49.4048 66.9468 49.4048 64.6904V47.964C49.4048 45.7076 47.5964 43.8809 45.3623 43.8809ZM41.0005 63.8667C40.965 63.8667 37.5606 62.7204 36.7451 62.04L41.4614 52.6202L39.1211 52.5843L39.2274 54.4467C39.2274 54.4467 36.107 54.5899 36.0714 54.5542C36.0361 54.5183 35.0431 49.4681 35.5395 49.0384C36.0006 48.5726 45.0432 48.8595 45.1142 48.8595C45.1853 48.8595 46.6036 50.901 46.6036 50.901C46.6036 50.901 41.0358 63.8667 41.0005 63.8667Z" fill="#151616"/>
<path fill-rule="evenodd" clip-rule="evenodd" d="M66.1074 43.8809H57.3838C55.1497 43.8809 53.3413 45.7076 53.3413 47.964V64.6904C53.3413 66.9468 55.1497 68.7735 57.3838 68.7735H66.1074C68.3414 68.7735 70.1499 66.9468 70.1499 64.6904V47.964C70.1501 45.7076 68.3415 43.8809 66.1074 43.8809ZM61.7456 63.8667C61.7103 63.8667 58.3059 62.7204 57.4902 62.04L62.2065 52.6202L59.8307 52.5843L59.9372 54.4467C59.9372 54.4467 56.8519 54.5899 56.8166 54.5542C56.781 54.5183 55.7882 49.4681 56.2846 49.0384C56.7457 48.5726 65.7883 48.8595 65.8594 48.8595C65.9302 48.8595 67.3489 50.901 67.3489 50.901C67.3489 50.901 61.7811 63.8667 61.7456 63.8667Z" fill="#151616"/>
<path fill-rule="evenodd" clip-rule="evenodd" d="M24.6176 43.8809H15.9296C13.6956 43.8809 11.8516 45.7076 11.8516 47.964V64.6904C11.8516 66.9468 13.6956 68.7735 15.9296 68.7735H24.6178C26.8518 68.7735 28.6959 66.9468 28.6959 64.6904V47.964C28.6957 45.7076 26.8518 43.8809 24.6176 43.8809ZM20.2559 63.8667C20.2203 63.8667 16.8516 62.7204 16.036 62.04L20.7523 52.6202L18.3765 52.5843L18.4828 54.4467C18.4828 54.4467 15.3978 54.5899 15.3268 54.5542C15.2915 54.5183 14.3339 49.4681 14.7949 49.0384C15.2915 48.5726 24.3341 48.8595 24.3696 48.8595C24.4405 48.8595 25.8944 50.901 25.8944 50.901C25.8944 50.901 20.2912 63.8667 20.2559 63.8667Z" fill="#151616"/>
<path fill-rule="evenodd" clip-rule="evenodd" d="M90.1861 26.1158C87.6684 25.5426 85.186 27.1545 84.6185 29.6973C84.0511 32.2402 85.6469 34.7474 88.1648 35.2848C90.6825 35.8577 93.1649 34.2818 93.6966 31.7389C94.2641 29.1958 92.7038 26.6889 90.1861 26.1158ZM92.6684 29.9481C92.4555 30.772 91.6754 31.2733 90.8597 31.0944C90.0442 30.9152 89.5478 30.0913 89.7249 29.2678C89.9023 28.4797 90.718 27.9425 91.4982 28.1216C92.3137 28.3005 92.8456 29.1244 92.6684 29.9481Z" fill="#151616"/>
<path fill-rule="evenodd" clip-rule="evenodd" d="M77.8098 45.564H77.0649V45.5997V45.6356V45.7072V45.7431V45.779V45.8865V45.9222V66.7318V66.8393V66.8752V66.9109V67.0184V67.0543V67.0902H77.8098C80.0084 67.0902 81.817 65.2635 81.817 63.0428V49.6118C81.817 47.3905 80.0084 45.564 77.8098 45.564Z" fill="#151616"/>
</svg>
