<svg width="14" height="10" viewBox="0 0 14 10" fill="none" xmlns="http://www.w3.org/2000/svg">
<path d="M2.23538 9.9995C2.13521 9.9995 2.0352 9.96047 1.96009 9.88279C0.696097 8.57583 0 6.8417 0 4.99985C0 3.15838 0.695868 1.42453 1.95938 0.117671C2.10634 -0.0343429 2.34872 -0.0384784 2.50083 0.108557C2.65285 0.255542 2.65693 0.497947 2.50995 0.649986C1.38523 1.81328 0.765812 3.35807 0.765812 4.99985C0.765812 6.64198 1.38543 8.18703 2.51059 9.3504C2.6576 9.50241 2.65356 9.74482 2.50155 9.89183C2.42719 9.96374 2.33121 9.9995 2.23538 9.9995Z" fill="#FF0404"/>
<path d="M3.51472 8.68014C3.41455 8.68014 3.31454 8.64111 3.23944 8.56343C2.31674 7.60941 1.80859 6.34373 1.80859 4.99957C1.80859 3.65583 2.31648 2.39045 3.2387 1.43648C3.38566 1.28442 3.62809 1.28033 3.78012 1.42732C3.93216 1.5743 3.93625 1.81671 3.78926 1.96875C3.00584 2.77916 2.57438 3.8555 2.57438 4.99957C2.57438 6.144 3.00604 7.22058 3.78988 8.03107C3.93691 8.18308 3.93285 8.42548 3.78084 8.57249C3.70653 8.64435 3.61055 8.68014 3.51472 8.68014Z" fill="#FF0404"/>
<path d="M4.78751 7.36122C4.68734 7.36122 4.58732 7.32219 4.51222 7.24451C3.93084 6.64338 3.61066 5.84614 3.61066 4.99971C3.61066 4.1537 3.93056 3.35677 4.51146 2.75573C4.65836 2.60369 4.90079 2.59948 5.05288 2.74652C5.20495 2.89348 5.20908 3.13588 5.06212 3.28795C4.61997 3.74544 4.37647 4.35334 4.37647 4.99974C4.37647 5.64644 4.62018 6.25457 5.06271 6.71217C5.20975 6.86419 5.20569 7.10659 5.05365 7.2536C4.97932 7.32546 4.88333 7.36122 4.78751 7.36122Z" fill="#FF0404"/>
<path d="M10.8321 10.0002C10.7362 10.0002 10.6402 9.96442 10.5659 9.89248C10.4139 9.74545 10.4099 9.50304 10.5569 9.35106C11.6825 8.18758 12.3024 6.6423 12.3024 4.99984C12.3024 3.35771 11.6827 1.81266 10.5576 0.649291C10.4106 0.497278 10.4146 0.254873 10.5667 0.107862C10.7187 -0.0391989 10.9611 -0.0350889 11.1081 0.116899C12.3721 1.42383 13.0682 3.15796 13.0682 4.99984C13.0682 6.8421 12.3718 8.57649 11.1073 9.88352C11.0322 9.96115 10.9322 10.0002 10.8321 10.0002Z" fill="#FF0404"/>
<path d="M9.55992 8.68116C9.46404 8.68116 9.36806 8.64537 9.2937 8.57343C9.14173 8.42637 9.13775 8.18397 9.28476 8.032C10.069 7.22147 10.5009 6.14463 10.5009 4.99987C10.5009 3.85547 10.0693 2.77887 9.28543 1.96838C9.13839 1.81637 9.14245 1.57396 9.29446 1.42695C9.4465 1.27989 9.68891 1.284 9.83589 1.43599C10.7586 2.39006 11.2667 3.65572 11.2667 4.99987C11.2667 6.34444 10.7583 7.6104 9.83515 8.56452C9.76005 8.64215 9.66004 8.68116 9.55992 8.68116Z" fill="#FF0404"/>
<path d="M8.28521 7.3617C8.1893 7.3617 8.09329 7.32591 8.01896 7.25392C7.867 7.10686 7.86304 6.86446 8.0101 6.71249C8.45302 6.25485 8.69693 5.64648 8.69693 4.99948C8.69693 4.35277 8.45322 3.74464 8.01069 3.28704C7.86365 3.13503 7.86771 2.89263 8.01972 2.74562C8.17174 2.59855 8.41417 2.60266 8.56115 2.75468C9.14253 3.35581 9.46272 4.15305 9.46272 4.99948C9.46272 5.84634 9.14225 6.64385 8.56034 7.24506C8.48529 7.32269 8.3853 7.3617 8.28521 7.3617Z" fill="#FF0404"/>
<path d="M6.53199 6.14857C5.90407 6.14857 5.39325 5.63326 5.39325 4.99985C5.39325 4.36645 5.9041 3.85114 6.53199 3.85114C7.1599 3.85114 7.67072 4.36645 7.67072 4.99985C7.67072 5.63326 7.1599 6.14857 6.53199 6.14857Z" fill="#FF0404"/>
</svg>
